<?xml version="1.0" encoding="UTF-8"?>
<svg version="1.1" xmlns="http://www.w3.org/2000/svg" width="1418" height="2000">
<path d="M0 0 C467.94 0 935.88 0 1418 0 C1418 14.6244452 1418 14.6244452 1417.54443359 19.56298828 C1417.4434436 20.68972961 1417.34245361 21.81647095 1417.23840332 22.97735596 C1417.1262146 24.16303162 1417.01402588 25.34870728 1416.8984375 26.5703125 C1416.7190437 28.545283 1416.53964991 30.52025349 1416.3602562 32.495224 C1416.1686556 34.59189818 1415.97415681 36.68828447 1415.77874756 38.78460693 C1415.36637169 43.20890549 1414.96212588 47.6339249 1414.55908203 52.05908203 C1414.06533722 57.47465075 1413.56976222 62.89004557 1413.0717907 68.30522728 C1412.17003784 78.11376837 1411.28352146 87.92361571 1410.40625 97.734375 C1410.31025953 98.80783487 1410.31025953 98.80783487 1410.21232986 99.9029808 C1409.89287253 103.4765379 1409.57370747 107.05012101 1409.25469971 110.62371826 C1408.87419567 114.88544615 1408.49263675 119.14707918 1408.11083984 123.40869141 C1406.73457034 138.77193031 1405.36338059 154.13561161 1404 169.5 C1402.3841849 187.70915673 1400.75615384 205.91721206 1399.125 224.125 C1399.0300613 225.18479443 1399.0300613 225.18479443 1398.93320465 226.26599884 C1397.88979123 237.91343239 1396.84596285 249.56082874 1395.80209351 261.20822144 C1394.82620567 272.0971306 1393.85042588 282.98604944 1392.875 293.875 C1392.81184097 294.5800618 1392.74868195 295.2851236 1392.68360901 296.0115509 C1390.60201386 319.25000976 1388.52978471 342.48928722 1386.46777344 365.72949219 C1385.98165432 371.20772982 1385.49480737 376.68590265 1385.0078125 382.1640625 C1384.92490967 383.09670929 1384.84200684 384.02935608 1384.7565918 384.99026489 C1384.33629039 389.718299 1383.91582242 394.44631822 1383.49511719 399.17431641 C1382.76120411 407.42398702 1382.02802484 415.67371507 1381.30134583 423.92402649 C1379.30093464 446.6340641 1377.23855163 469.33792444 1375.13647079 492.03874588 C1371.61139918 529.87414889 1371.61139918 529.87414889 1368.3671875 567.734375 C1368.14103077 570.51044991 1367.91445559 573.28649028 1367.6875 576.0625 C1367.63051941 576.76045685 1367.57353882 577.4584137 1367.51483154 578.17752075 C1365.94483031 597.31322717 1364.13621389 616.42833827 1362.34955978 635.54479504 C1360.98103702 650.19040539 1359.6551109 664.83759949 1358.45385742 679.49804688 C1357.73934854 688.21061159 1356.96342307 696.91772844 1356.1875 705.625 C1356.10484894 706.55545135 1356.02219788 707.48590271 1355.93704224 708.44454956 C1354.37859773 725.97773872 1352.75015831 743.50418928 1351.1137085 761.03024292 C1349.70329316 776.15234472 1348.36090408 791.27734458 1347.1315918 806.41522217 C1346.42712345 815.08442138 1345.65293665 823.73708872 1344.6940918 832.38208008 C1344.05754608 838.20539174 1343.57633437 844.03462723 1343.125 849.875 C1342.24602835 861.22114292 1341.26840847 872.55746547 1340.26409912 883.89312744 C1340.09084876 885.84925095 1339.91818073 887.80542615 1339.74615479 889.76165771 C1338.81568201 900.3331847 1337.81845533 910.89192117 1336.68188477 921.44332886 C1335.9875718 927.95372678 1335.45964642 934.46884224 1335 941 C1334.39264988 949.26670999 1333.67004295 957.50102171 1332.75 965.73828125 C1332.01478802 972.48155363 1331.49933216 979.2356096 1331 986 C1330.3897833 994.26652933 1329.67005337 1002.50092838 1328.75 1010.73828125 C1328.01478802 1017.48155363 1327.49933216 1024.2356096 1327 1031 C1326.3897833 1039.26652933 1325.67005337 1047.50092838 1324.75 1055.73828125 C1324.01478787 1062.48155503 1323.49936803 1069.23561132 1323 1076 C1322.3877008 1084.28935925 1321.66943683 1092.54802852 1320.75 1100.80859375 C1320.03417084 1107.3629045 1319.50648977 1113.92651458 1319 1120.5 C1318.43549703 1127.82641056 1317.81286893 1135.13438067 1317 1142.4375 C1316.04052378 1151.07278597 1315.38961376 1159.72233162 1314.75 1168.38647461 C1314.21463078 1175.52246532 1313.54426474 1182.62712974 1312.75 1189.73828125 C1312.01478802 1196.48155363 1311.49933216 1203.2356096 1311 1210 C1310.3897833 1218.26652933 1309.67005337 1226.50092838 1308.75 1234.73828125 C1308.01478802 1241.48155363 1307.49933216 1248.2356096 1307 1255 C1306.3897833 1263.26652933 1305.67005337 1271.50092838 1304.75 1279.73828125 C1304.01478802 1286.48155363 1303.49933216 1293.2356096 1303 1300 C1302.38983817 1308.265786 1301.67086539 1316.49955457 1300.75 1324.73608398 C1300.01190564 1331.50074767 1299.49920068 1338.27649073 1299 1345.0625 C1298.40812311 1353.09907836 1297.70423567 1361.09514892 1296.75 1369.09619141 C1295.85456089 1376.82460048 1295.32069694 1384.57802602 1294.75 1392.3359375 C1294.21675181 1399.47646398 1293.55817878 1406.58650047 1292.75 1413.70068359 C1292.2287075 1418.42184242 1291.83148354 1423.14037491 1291.5 1427.87890625 C1291.37431641 1429.66167969 1291.37431641 1429.66167969 1291.24609375 1431.48046875 C1291.08430512 1433.83539221 1290.93042532 1436.19087479 1290.78515625 1438.546875 C1290.71167969 1439.61550781 1290.63820313 1440.68414063 1290.5625 1441.78515625 C1290.47162109 1443.22193726 1290.47162109 1443.22193726 1290.37890625 1444.68774414 C1290 1447 1290 1447 1288 1449 C1285.95751953 1449.7109375 1285.95751953 1449.7109375 1283.3828125 1450.375 C1282.4028833 1450.63249023 1281.4229541 1450.88998047 1280.41333008 1451.15527344 C1278.78560669 1451.57341309 1278.78560669 1451.57341309 1277.125 1452 C1274.73529426 1452.62875515 1272.34599269 1453.25904777 1269.95703125 1453.890625 C1269.00207008 1454.14214325 1269.00207008 1454.14214325 1268.02781677 1454.39874268 C1260.270183 1456.4463115 1252.54150185 1458.59734184 1244.8125 1460.75 C1244.06384674 1460.95823395 1243.31519348 1461.1664679 1242.54385376 1461.38101196 C1230.29238369 1464.78924455 1218.0509514 1468.23284796 1205.8125 1471.6875 C1204.98209198 1471.92189789 1204.15168396 1472.15629578 1203.29611206 1472.39779663 C1196.68163051 1474.2650581 1190.0672222 1476.13257959 1183.45361328 1478.00292969 C1169.3330985 1481.99384109 1155.17819912 1485.84478756 1141.00759888 1489.65301514 C1130.45490063 1492.49156541 1119.94089131 1495.42767158 1109.46264648 1498.53173828 C1101.43347575 1500.90091055 1093.35980462 1503.08059525 1085.27075195 1505.23510742 C1076.49179809 1507.58027269 1067.74330883 1510.02622885 1059 1512.5 C1049.34971429 1515.22948063 1039.69002199 1517.91418165 1030 1520.5 C1020.29122557 1523.09243887 1010.60893804 1525.77224658 1000.9375 1528.5 C1000.26123566 1528.6907309 999.58497131 1528.88146179 998.88821411 1529.07797241 C995.53853873 1530.02305098 992.18913079 1530.96907356 988.83984375 1531.91552734 C961.79633948 1539.55332274 961.79633948 1539.55332274 948.828125 1542.984375 C936.19385593 1546.33632394 923.59922432 1549.79897189 911.0625 1553.5 C903.46837183 1555.73949662 895.85890767 1557.85444226 888.1875 1559.8125 C878.2998598 1562.33876163 868.49319391 1565.1137461 858.6875 1567.9375 C848.64484054 1570.828276 838.59990121 1573.68904121 828.5 1576.375 C816.93345071 1579.4536238 805.40252632 1582.65376682 793.875 1585.875 C792.94664337 1586.13435333 792.01828674 1586.39370667 791.0617981 1586.66091919 C781.02013582 1589.46720585 770.98122546 1592.28309663 760.94732666 1595.11701965 C755.1762663 1596.74671808 749.40162736 1598.36340825 743.62646484 1599.97851562 C739.97202069 1601.00788107 736.32393326 1602.05795537 732.67578125 1603.109375 C730.36737563 1603.76108342 728.05879081 1604.41215752 725.75 1605.0625 C724.73284912 1605.36196533 723.71569824 1605.66143066 722.66772461 1605.9699707 C709.22500833 1609.7057368 698.37740162 1607.421255 685.375 1603.4375 C683.80591464 1602.97055325 682.23624259 1602.5055738 680.66601562 1602.04248047 C678.30279239 1601.34546187 675.93989191 1600.64757278 673.57867432 1599.94378662 C667.24798626 1598.05786702 660.88739656 1596.30903647 654.5 1594.625 C642.93276639 1591.54906546 631.40247861 1588.34621985 619.875 1585.125 C618.94664337 1584.86564667 618.01828674 1584.60629333 617.0617981 1584.33908081 C607.71662359 1581.72743766 598.37355049 1579.10844581 589.03515625 1576.47265625 C588.34726013 1576.27851639 587.65936401 1576.08437653 586.95062256 1575.88435364 C586.27710754 1575.69427231 585.60359253 1575.50419098 584.90966797 1575.30834961 C583.58561889 1574.93470858 582.26156299 1574.56109173 580.9375 1574.1875 C580.28654358 1574.00381866 579.63558716 1573.82013733 578.96490479 1573.63088989 C569.37777607 1570.92777688 559.77135957 1568.30642336 550.14868164 1565.7331543 C529.53975448 1560.21039745 508.97748949 1554.50524942 488.51318359 1548.46826172 C480.46556898 1546.10653715 472.37509869 1543.92357649 464.27099609 1541.76489258 C455.49191972 1539.41986796 446.74342576 1536.97365026 438 1534.5 C428.4322826 1531.79448635 418.85627889 1529.12863369 409.25 1526.5625 C387.60624956 1520.77536446 366.0090925 1514.80792412 344.51977539 1508.47045898 C335.30181494 1505.76594042 326.0268083 1503.28734081 316.74609375 1500.80859375 C295.37323585 1495.09524265 274.08490471 1489.06955638 252.79150391 1483.06835938 C232.71684763 1477.40031135 232.71684763 1477.40031135 212.57958984 1471.96069336 C209.18255605 1471.04899455 205.80154691 1470.09496898 202.421875 1469.12109375 C195.4390986 1467.11937372 188.44173985 1465.17507606 181.4375 1463.25 C178.9114431 1462.55474284 176.38540192 1461.85942856 173.859375 1461.1640625 C172.89737434 1460.89938675 172.89737434 1460.89938675 171.91593933 1460.62936401 C167.26051265 1459.3482151 162.60654797 1458.06184324 157.953125 1456.7734375 C156.63876096 1456.40980288 155.32438931 1456.04619576 154.01000977 1455.68261719 C151.52071751 1454.99387643 149.03161265 1454.30445786 146.54272461 1453.61425781 C145.40843018 1453.30069336 144.27413574 1452.98712891 143.10546875 1452.6640625 C142.05020996 1452.37176758 140.99495117 1452.07947266 139.90771484 1451.77832031 C137.36009026 1451.09638688 134.80888671 1450.48564611 132.23828125 1449.8984375 C131.16964844 1449.60195312 130.10101563 1449.30546875 129 1449 C127.49975149 1445.99950298 127.34609515 1442.79297424 126.9375 1439.5 C126.84662109 1438.8296875 126.75574219 1438.159375 126.66210938 1437.46875 C126.18882047 1433.71090725 125.96911099 1430.06944422 126.02734375 1426.28125 C126.08688306 1420.12688999 125.34282312 1414.104703 124.625 1408 C123.55240611 1398.48773607 122.62941662 1388.98509687 121.9375 1379.4375 C121.35118506 1371.35670768 120.64905359 1363.31108764 119.74975586 1355.25952148 C118.89198384 1347.39199964 118.33255766 1339.50511709 117.75 1331.61328125 C117.21465324 1324.47811274 116.54494581 1317.37417839 115.75 1310.26391602 C115.01190579 1303.49925373 114.49916495 1296.72351096 114 1289.9375 C113.46192001 1282.62665339 112.87297623 1275.34128033 112 1268.0625 C110.96330783 1259.40247573 110.36422787 1250.72073495 109.75 1242.02197266 C109.2266834 1234.73131388 108.56637929 1227.47628453 107.75 1220.21337891 C107.00878686 1213.4657335 106.49762834 1206.70699488 106 1199.9375 C105.46195899 1192.62665761 104.87307649 1185.3412637 104 1178.0625 C102.95944017 1169.37931275 102.36452693 1160.67386174 101.75 1151.95166016 C101.24275838 1144.89287783 100.59270363 1137.87881922 99.75 1130.85327148 C98.85013057 1123.14198806 98.31944276 1115.40523703 97.75 1107.66381836 C97.27182038 1101.26116136 96.71336195 1094.88058771 96 1088.5 C95.18427448 1081.197164 94.59451658 1073.891233 94.0625 1066.5625 C93.29073357 1055.96111427 92.21512637 1045.41334971 91.03759766 1034.85009766 C90.20007318 1027.21800837 89.61872641 1019.62726961 89.2421875 1011.9609375 C88.97806103 1007.64119176 88.54267543 1003.36243713 88.0625 999.0625 C87.20519156 991.38507525 86.56686757 983.70414394 86 976 C85.37497124 967.51033417 84.62977072 959.05320209 83.68188477 950.59375 C82.97055934 944.1129429 82.56770048 937.63589536 82.24609375 931.125 C82.12383508 927.97021605 82.12383508 927.97021605 81 925 C80.80227862 922.64495503 80.6522387 920.28580917 80.52734375 917.92578125 C80.02250672 908.99926073 79.3127375 900.09631995 78.5625 891.1875 C78.49652618 890.39708313 78.43055237 889.60666626 78.36257935 888.79229736 C77.58036473 879.43429489 76.74823484 870.08929282 75.69946289 860.75683594 C74.85180617 853.0406018 74.32050188 845.30118351 73.75195312 837.56030273 C73.21889748 830.44642338 72.52526018 823.373675 71.68188477 816.29077148 C70.92763967 809.78738542 70.5589499 803.28167462 70.2109375 796.74609375 C69.88852259 791.02024373 69.28341775 785.35264248 68.59765625 779.66015625 C67.37825168 769.3545574 66.47097116 759.02949747 65.625 748.6875 C64.5038883 734.9957789 63.34266382 721.30849909 62.125 707.625 C62.04285248 706.70119537 61.96070496 705.77739075 61.87606812 704.82559204 C60.33410475 687.51557504 58.72687389 670.21171381 57.11444092 652.90814209 C55.64550033 637.13587237 54.22120981 621.3610591 52.90014648 605.57568359 C52.3986987 599.5940464 51.87118361 593.61922611 51.25927734 587.64794922 C50.74462043 582.39185797 50.31594201 577.12795914 49.87161255 571.86553955 C48.63885243 557.28206699 47.36167069 542.70269322 46.0625 528.125 C45.97849945 527.18232269 45.8944989 526.23964539 45.80795288 525.2684021 C45.37766826 520.44094966 44.94698053 515.61353328 44.51611328 510.78613281 C43.75814069 502.29176643 43.00367265 493.79708864 42.24899292 485.3024292 C41.83281051 480.61827293 41.41639318 475.93413754 41 471.25 C40.83333221 469.3750001 40.66666555 467.5000001 40.5 465.625 C40.4175 464.696875 40.335 463.76875 40.25 462.8125 C39.5 454.37500002 39.5 454.37500002 39.25003052 451.56283569 C39.08326392 449.68671656 38.91649553 447.81059758 38.74972534 445.93447876 C38.33457294 441.26410286 37.91945115 436.59372425 37.50439453 431.92333984 C36.73637877 423.28167454 35.96809454 414.64003341 35.19871521 405.99848938 C34.9316199 402.99826867 34.66465244 399.99803661 34.39770508 396.99780273 C34.0542594 393.13789766 33.71028705 389.27804004 33.3659668 385.41821289 C32.67663111 377.68228727 31.99019745 369.9463433 31.33984375 362.20703125 C31.24783691 361.11696777 31.15583008 360.0269043 31.06103516 358.90380859 C30.90278431 357.0150583 30.7472167 355.12607987 30.59521484 353.23681641 C30.30597794 349.19487845 30.30597794 349.19487845 29.5012207 345.23706055 C28.77041304 341.97530182 28.72472372 338.6955165 28.5859375 335.3671875 C28.05019099 324.42353855 27.00292029 313.53602049 25.95999146 302.63101196 C25.38322698 296.59460979 24.8186124 290.55707162 24.25390625 284.51953125 C24.14249802 283.33004379 24.03108978 282.14055634 23.91630554 280.9150238 C23.07400461 271.88509883 22.29347852 262.85202651 21.5625 253.8125 C20.1992509 237.01240754 18.69589068 220.22506055 17.1875 203.4375 C17.12341824 202.72413357 17.05933647 202.01076714 16.99331284 201.27578354 C16.33270732 193.92240248 15.67124226 186.56909894 15.00921154 179.21584606 C13.69008421 164.56349697 12.377846 149.91053158 11.06594467 135.25753403 C10.87502407 133.12526882 10.68405653 130.99300782 10.49307251 128.86074829 C6.99194893 89.77178293 6.99194893 89.77178293 5.40673828 71.82714844 C4.66887892 63.4805831 3.92326418 55.13488211 3.15640259 46.79092407 C2.77626195 42.65021093 2.39974884 38.50917125 2.02349854 34.36810303 C1.84411064 32.40492455 1.6629777 30.44190458 1.47991943 28.47906494 C1.22690535 25.76508016 0.98004269 23.05059575 0.734375 20.3359375 C0.6595993 19.55148254 0.58482361 18.76702759 0.50778198 17.95880127 C-0.03131823 11.90059506 0 6.15307373 0 0 Z " fill="#E34D26" transform="translate(0,392)"/>
<path d="M0 0 C292.71 0 585.42 0 887 0 C887 9.43631194 886.78937515 18.53734021 885.9765625 27.89453125 C885.87032562 29.16616623 885.76408875 30.43780121 885.65463257 31.74797058 C885.43038486 34.41795126 885.20400344 37.08763282 884.97363281 39.75708008 C884.68310587 43.12486033 884.40019155 46.49322455 884.11980152 49.86186218 C883.07241944 62.42634809 881.9643061 74.96386026 880.41113281 87.47631836 C879.77469556 92.93100894 879.41527665 98.3959377 879.0625 103.875 C878.35324884 114.18384932 877.32086748 124.41844365 876.11010742 134.67919922 C874.96072716 144.70097568 874.25211943 154.73159827 873.64648438 164.79833984 C873.53916992 166.53784912 873.53916992 166.53784912 873.4296875 168.3125 C873.34050049 169.85357422 873.34050049 169.85357422 873.24951172 171.42578125 C873 174 873 174 872 177 C647.93 177 423.86 177 193 177 C194.32 188.55 195.64 200.1 197 212 C198.0625 226 198.0625 226 198.50390625 232.53125 C199.06300981 240.33269496 199.98315236 248.08590262 200.89257812 255.8527832 C201.94290268 265.00913414 202.67808949 274.16999709 203.265625 283.3671875 C203.69570477 289.83461347 204.38194074 296.22663517 205.22080994 302.65380859 C206.18469447 310.18369395 206.82653119 317.73505181 207.43261719 325.30102539 C207.62574184 327.69670236 207.82824222 330.09147073 208.03125 332.48632812 C208.15941994 334.05724561 208.28704297 335.62820783 208.4140625 337.19921875 C208.47340973 337.891259 208.53275696 338.58329926 208.59390259 339.29631042 C209.10960961 345.91635897 209 352.2866369 209 359 C422.18 359 635.36 359 855 359 C855 365.57300398 854.97480844 371.63447127 854.37890625 378.09765625 C854.31505234 378.81019058 854.25119843 379.52272491 854.18540955 380.2568512 C854.05072529 381.75737181 853.91403265 383.25771343 853.77539062 384.75787354 C853.41403553 388.66968747 853.06721061 392.58276845 852.72265625 396.49609375 C852.65587677 397.2533374 852.58909729 398.01058105 852.52029419 398.79077148 C852.06253838 404.06549437 851.71973615 409.33472432 851.5 414.625 C851.155443 422.521098 850.14903926 430.3072237 849.15625 438.14453125 C848.07174001 446.90484492 847.37296052 455.66076899 846.77197266 464.46582031 C846.15131788 473.39045208 845.32779852 482.28679175 844.4375 491.1875 C843.52874813 500.28038288 842.73547269 509.34382474 842.23828125 518.46875 C841.98202518 522.26638087 841.57253109 526.03398355 841.125 529.8125 C840.07338905 538.73316547 839.31398172 547.6752617 838.5625 556.625 C837.57573801 568.35973918 836.54724776 580.08872033 835.4375 591.8125 C835.31142349 593.14876127 835.18536535 594.48502427 835.05932617 595.82128906 C834.60542724 600.62472646 834.15037715 605.42804806 833.69091797 610.23095703 C832.81752006 619.38020651 831.98343361 628.50529813 831.5625 637.6875 C831.16157523 646.30201742 830.16069531 654.82571495 829.15869141 663.38818359 C828.07493038 672.83578125 827.34844595 682.28529271 826.70166016 691.77148438 C826.23215713 698.45279791 825.49703167 704.95886127 824.43359375 711.5703125 C823.76849286 716.8312006 823.61069992 722.10380328 823.39428711 727.39916992 C823.12236069 733.5900477 822.52586046 739.67710266 821.73266602 745.82055664 C820.94128444 752.07358571 820.55822403 758.31580936 820.24609375 764.609375 C820 768 820 768 819.49609375 770.46875 C818.82735262 773.88090948 818.75861346 777.2853449 818.625 780.75 C818.27989748 788.1793118 817.50817319 795.49979279 816.5625 802.875 C815.47158597 811.49263324 814.63144716 820.08237551 814.0625 828.75 C813.27959093 840.61738901 812.31147304 852.46213699 811.2651062 864.30895996 C811.09072056 866.28467483 810.9176093 868.26050266 810.74588013 870.2364502 C809.76212132 881.53529968 808.63635465 892.77508579 807 904 C806.44127197 904.13575439 805.88254395 904.27150879 805.30688477 904.41137695 C802.72445634 905.04119204 800.14348956 905.6768152 797.5625 906.3125 C796.68400391 906.52583984 795.80550781 906.73917969 794.90039062 906.95898438 C789.9754284 908.17659496 785.18892467 909.57375622 780.39233398 911.22094727 C775.57131808 912.79088927 770.65130859 914.02082071 765.75 915.3125 C757.56206802 917.49229148 749.39075159 919.7124075 741.25 922.0625 C734.34707919 924.05282034 727.4331894 925.99272034 720.5 927.875 C702.25839385 932.827738 684.03738172 937.85217364 665.84655762 942.98822021 C652.25715468 946.82494506 638.64070532 950.54886346 624.99902344 954.19580078 C616.65754014 956.43260036 608.32863668 958.71591962 600 961 C599.23848633 961.20834473 598.47697266 961.41668945 597.69238281 961.63134766 C587.61307922 964.39216175 577.5704723 967.26599388 567.55126953 970.23803711 C554.2896249 974.14446898 540.91796261 977.66945975 527.57385254 981.28114319 C523.85571232 982.28787126 520.13801312 983.2962216 516.42041016 984.30493164 C514.54634387 984.81281179 512.6719912 985.31963629 510.79736328 985.82543945 C500.92802339 988.48939351 491.10794968 991.22201 481.36988831 994.33409119 C475.98740806 996.04082074 470.57275453 997.40527102 465.0625 998.625 C460.0404098 999.746916 455.15365944 1000.89982695 450.30859375 1002.6484375 C442.24575571 1005.36949133 435.78784433 1003.31113952 427.9375 1000.875 C425.77392422 1000.22364151 423.60985069 999.57393437 421.4453125 998.92578125 C420.36024414 998.59916504 419.27517578 998.27254883 418.15722656 997.93603516 C413.56120259 996.57343417 408.94103919 995.3093753 404.3125 994.0625 C402.50778978 993.57430275 400.70310295 993.08601899 398.8984375 992.59765625 C397.95967773 992.34387207 397.02091797 992.09008789 396.05371094 991.82861328 C380.84765861 987.70250666 365.66321035 983.49941414 350.52124023 979.14404297 C342.70168638 976.90078429 334.85456167 974.7641562 327.00390625 972.6328125 C310.82536782 968.23904487 294.6632907 963.78739316 278.55200195 959.15283203 C272.25564449 957.34647471 265.94485662 955.59726915 259.625 953.875 C258.24634766 953.49903687 258.24634766 953.49903687 256.83984375 953.11547852 C252.74109833 952.00183344 248.64007826 950.90074548 244.52734375 949.83984375 C243.51196533 949.5761499 243.51196533 949.5761499 242.47607422 949.30712891 C240.71579587 948.85212458 238.95368205 948.40423681 237.19140625 947.95703125 C234 947 234 947 230.70703125 945.52734375 C226.33226641 943.58937057 221.79167215 942.72287181 217.125 941.75 C204.59757791 939.01946065 192.31474207 935.55395949 180 932 C176.52121116 930.99868135 173.04202958 929.99874147 169.5625 929 C168.30228027 928.63745117 168.30228027 928.63745117 167.01660156 928.26757812 C160.0943126 926.2867948 153.14432307 924.4178239 146.1875 922.5625 C136.68310534 920.02664155 127.23047207 917.34950705 117.79589844 914.56591797 C108.3786368 911.79530503 98.91452142 909.20889963 89.43334961 906.66674805 C86.28157734 905.80314916 83.14108864 904.90158444 80 904 C78.39260003 890.80808275 76.99313901 877.60001699 75.6875 864.375 C75.58117249 863.30316467 75.47484497 862.23132935 75.36529541 861.12701416 C73.99839272 847.2719711 72.75869876 833.41046734 71.66796875 819.53125 C71.61343977 818.83804279 71.55891079 818.14483559 71.50272942 817.4306221 C70.91638699 809.95921495 70.34501871 802.48682699 69.7878418 795.01318359 C68.80756542 782.0404197 67.67017947 769.12773019 65.98983765 756.22457886 C65.11180843 749.4198706 64.66678243 742.68258972 64.40893555 735.82977295 C64.11152568 728.76906163 63.39898702 721.78156853 62.6328125 714.7578125 C61.13617725 700.66245729 59.87043637 686.55441193 58.69238281 672.42871094 C58.37101157 668.57720023 58.04517901 664.72608505 57.71875 660.875 C57.50755645 658.36720905 57.29660979 655.85939729 57.0859375 653.3515625 C56.99114105 652.22940338 56.8963446 651.10724426 56.79867554 649.95108032 C56.10729928 641.63660839 55.55519186 633.32787795 55 625 C113.74 625 172.48 625 233 625 C237.34458471 663.01511617 237.34458471 663.01511617 238.56640625 681.09375 C238.97587604 686.9946542 239.61481559 692.85095705 240.32299805 698.72216797 C240.90654605 703.70968878 241.21993164 708.67180197 241.4375 713.6875 C241.74371011 720.63029886 242.53157734 727.43232855 243.5 734.3125 C245.03002982 745.19882731 245.67132413 756.01769246 246 767 C247.01211548 767.08326538 247.01211548 767.08326538 248.04467773 767.16821289 C248.93614502 767.2480542 249.8276123 767.32789551 250.74609375 767.41015625 C252.06758423 767.52435913 252.06758423 767.52435913 253.41577148 767.64086914 C256.53945878 768.07496872 259.12995185 769.05166993 262.02807617 770.25073242 C264.05262759 771.01999679 265.99273779 771.49247301 268.11328125 771.92578125 C273.17365104 773.01150935 278.14009422 774.36293134 283.125 775.75 C292.08173951 778.22085114 301.05849715 780.60114937 310.05908203 782.90722656 C318.54928122 785.09755397 326.91424234 787.64994885 335.28515625 790.25390625 C337.50152886 790.86301009 339.69154225 791.37282228 341.9375 791.8515625 C348.33864442 793.25018183 354.62830128 795.05202469 360.9375 796.8125 C362.12923828 797.14314453 363.32097656 797.47378906 364.54882812 797.81445312 C369.78864684 799.2688727 375.02731066 800.72728066 380.26367188 802.1940918 C390.53702044 805.0669259 400.83489182 807.83536428 411.15380859 810.53979492 C413.65889075 811.19638284 416.16346391 811.8548856 418.66796875 812.51367188 C420.29163804 812.94021314 421.91533493 813.36664938 423.5390625 813.79296875 C424.27250885 813.9856987 425.0059552 814.17842865 425.7616272 814.3769989 C427.84019493 814.92149927 429.91977629 815.46186315 432 816 C433.0962117 816.28528816 433.0962117 816.28528816 434.21456909 816.57633972 C446.27311488 819.66617021 457.42243953 815.45624232 469 812 C471.87476736 811.14504824 474.74975368 810.29083962 477.625 809.4375 C478.31722656 809.23116943 479.00945312 809.02483887 479.72265625 808.81225586 C485.9094717 806.98584434 492.14538199 805.4132322 498.4140625 803.89453125 C501.24005682 803.18957188 504.03273318 802.42564826 506.82910156 801.61401367 C512.22070107 800.08906172 517.64692332 798.68704072 523.0625 797.25 C532.32389099 794.79042439 541.57563474 792.30045289 550.8125 789.75 C558.43036985 787.64923874 566.06812924 785.75518663 573.78515625 784.0546875 C578.34736187 782.97694334 582.79095199 781.53752982 587.26391602 780.14160156 C593.67590881 778.18234663 600.13318783 776.38644992 606.5925293 774.59057617 C608.93204905 773.93901809 611.26972969 773.28112743 613.60742188 772.62304688 C622.68527333 770.08549625 631.75049529 767.83911001 641 766 C640.96003906 764.86046875 640.92007813 763.7209375 640.87890625 762.546875 C640.88021601 755.83564688 641.82869661 749.21308022 642.65213013 742.56466675 C643.95009319 732.03674411 645.22942474 721.54802214 645.5625 710.9375 C645.7989009 703.54131869 646.47191427 696.28222328 647.375 688.9375 C648.62132527 678.74374339 649.6083058 668.54692048 650.4375 658.3125 C650.52712509 657.20976242 650.52712509 657.20976242 650.61856079 656.08474731 C650.87125788 652.97112068 651.12298554 649.85741781 651.37339783 646.74360657 C652.15935154 636.98084569 652.97707775 627.22078724 653.80227661 617.46127319 C654.05507677 614.46304019 654.30484236 611.4645652 654.55444336 608.46606445 C655.34159177 599.09698619 656.20608111 589.7469544 657.27636719 580.40577698 C658.21532448 572.20900069 658.98256783 563.99819503 659.75268555 555.78393555 C659.9392246 553.79983837 660.12779246 551.81593227 660.31640625 549.83203125 C660.42412354 548.68452393 660.53184082 547.5370166 660.64282227 546.35473633 C661.01137086 542.89320097 661.50769816 539.44611288 662 536 C459.05 536 256.1 536 47 536 C45.75799343 528.54796058 44.7449193 521.90862568 44.5625 514.5 C44.26887689 506.55217243 43.5999046 498.71192518 42.6875 490.8125 C41.12775264 477.21177616 40.05538422 463.58542284 39 449.9375 C37.90376456 435.79712439 36.76279848 421.69334808 35.07641602 407.609375 C33.87897678 397.44789748 33.06577586 387.26102797 32.24685669 377.0635376 C31.57447243 368.6939306 30.88885153 360.33675632 29.875 352 C29.06894482 345.36627669 28.72965648 338.76636072 28.46435547 332.09423828 C28.07729847 323.63242741 27.07335446 315.25916818 26.08618164 306.84985352 C25.36008857 300.56401292 24.76137225 294.32194124 24.5 288 C24.13827388 279.26719154 23.09976021 270.63367867 22.0859375 261.95581055 C21.35406653 255.57211979 20.76148493 249.2322522 20.5 242.8125 C20.21554955 235.8547773 19.42129446 229.02601696 18.5 222.125 C17.5319752 214.84654938 16.76802158 207.6508246 16.5 200.3125 C16.14869751 190.79035344 15.1711366 181.36786445 14.15625 171.89599609 C13.06553221 161.71552212 12.12437677 151.53142238 11.27685547 141.328125 C11.01941106 138.23334348 10.75875678 135.13884498 10.49708557 132.04441833 C10.18424293 128.34222253 9.87320915 124.63987539 9.5625 120.9375 C9.4985202 120.17581512 9.43454041 119.41413025 9.36862183 118.62936401 C8.63888198 109.92329706 7.93307101 101.21617492 7.28125 92.50390625 C5.96807113 75.04877171 4.4308377 57.65669871 2.35766602 40.2734375 C0.76370064 26.8030379 0 13.59629772 0 0 Z " fill="#FEFEFE" transform="translate(265,689)"/>
<path d="M0 0 C191.07 0 382.14 0 579 0 C577.9184537 24.87556492 577.9184537 24.87556492 576.54202271 34.83746338 C575.32736463 43.78586117 574.6756123 52.81235748 573.87109375 61.8046875 C573.67471803 63.98073682 573.47818682 66.15677212 573.2815094 68.33279419 C572.87213236 72.86932493 572.46476626 77.40603051 572.05883789 81.94287109 C571.54287734 87.70744489 571.02165211 93.47152833 570.4988699 99.23548698 C570.09254722 103.72246549 569.6891769 108.20970588 569.28663826 112.6970253 C569.09581163 114.82020445 568.90408157 116.94330264 568.71136284 119.06631088 C567.74506427 129.72786512 566.82416277 140.37604698 566.34164333 151.07218742 C566.11996567 155.76568637 565.62882068 160.34770196 565 165 C564.23417892 170.67608566 563.76405107 176.27990989 563.5 182 C563.17418783 188.95361488 562.45869814 195.77555728 561.5390625 202.6796875 C559.84108928 215.81273854 558.87392565 229.04555499 558.34375 242.2734375 C558.12046664 246.12556619 557.63186839 249.91492677 557.12084961 253.73901367 C555.6605974 265.09411248 554.72481699 276.49967171 553.72265625 287.90234375 C553.5087587 290.31151089 553.2945961 292.72065451 553.08018494 295.129776 C552.51826147 301.45098274 551.95968773 307.77248087 551.4019165 314.09405518 C550.84335866 320.41898704 550.28201278 326.74367123 549.72070312 333.06835938 C549.06977165 340.40291646 548.41903756 347.73748992 547.770401 355.07225037 C546.87081465 365.23883818 545.96884511 375.40510552 545.03491211 385.56860352 C544.96323098 386.34972724 544.89154985 387.13085096 544.81769657 387.9356451 C544.50060928 391.38675791 544.18129467 394.8376266 543.85829163 398.28819275 C543.18421599 405.57969467 542.67443389 412.85868232 542.34140015 420.17315674 C542.12529053 424.59492835 541.66382465 428.92745561 541.0625 433.3125 C540.01842508 441.02318666 539.49907903 448.73649378 539 456.5 C538.43530863 465.26403212 537.71000401 473.89684619 536.5 482.59375 C535.56721802 490.05600587 535.2332522 497.5940858 534.78515625 505.09765625 C534.39954579 511.26065851 533.86340453 517.35951822 533.05688477 523.48266602 C532.02547375 531.51277735 531.24091597 539.55664008 530.52734375 547.62109375 C530.39824607 549.05967202 530.26897455 550.49823469 530.13954163 551.93678284 C529.87140943 554.923924 529.60524379 557.91123157 529.34057617 560.89868164 C529.00585691 564.67522568 528.66626293 568.45131281 528.3253231 572.22729969 C526.47434558 592.43508935 526.47434558 592.43508935 525.21313477 612.68603516 C524.96959337 616.47278304 524.50622112 620.17661909 524 623.9375 C523.23499841 629.62688683 522.76480115 635.26488399 522.5 641 C522.24457637 646.48726409 521.81727766 651.86522869 521.0625 657.3125 C519.85786714 666.20893676 519.32020338 675.13595597 518.78540039 684.0949707 C518.40020958 690.24916383 517.86513917 696.33854779 517.05737305 702.45263672 C516.00354083 710.65131004 515.22963805 718.86695168 514.51953125 727.1015625 C514.38478263 728.63733303 514.24974878 730.17307856 514.11445618 731.70880127 C513.75243227 735.82561833 513.39382429 739.94272612 513.03586578 744.05989838 C512.42402434 751.08620048 511.80539586 758.11191134 511.1882019 765.1377449 C510.94780027 767.87552922 510.70777904 770.61334672 510.46777344 773.35116577 C509.33853759 786.22033382 508.18525196 799.08721458 507.01953125 811.953125 C506.85801146 813.73826874 506.69651735 815.5234148 506.53504944 817.30856323 C505.27228271 831.26495426 505.27228271 831.26495426 504.66763306 837.88848877 C504.30431736 841.86842967 503.94349948 845.84858994 503.58437157 849.82891083 C503.45356138 851.27342173 503.32183202 852.7178498 503.18902016 854.16217804 C502.42643336 862.45906643 501.78763895 870.74856784 501.37295723 879.06965446 C501.12713273 883.73770738 500.62725074 888.30911305 500 892.9375 C499.14566967 899.29123284 498.65413304 905.59918046 498.4296875 912.00756836 C498.23784177 916.59497043 497.74738964 921.08927231 497.140625 925.640625 C495.5007072 938.1784976 494.54690354 950.79231906 493.45520782 963.38702774 C492.78078076 971.15306909 492.0967431 978.91827456 491.4140625 986.68359375 C491.32819759 987.66138479 491.24233269 988.63917583 491.15386581 989.64659691 C489.44351105 1009.11238601 487.69173839 1028.57436828 485.93475342 1048.03599167 C485.46002477 1053.29459992 484.98582525 1058.5532558 484.51171875 1063.81192017 C484.19239218 1067.35345543 483.87305228 1070.8949895 483.55371094 1074.43652344 C483.47430236 1075.31721552 483.39489378 1076.1979076 483.31307888 1077.10528731 C482.35116771 1087.77274903 481.38739929 1098.44003982 480.42105663 1109.10710102 C479.80243961 1115.93773953 479.18612765 1122.76858383 478.57144368 1129.59957737 C478.2110164 1133.6040363 477.84953876 1137.60839335 477.48527145 1141.61250496 C475.50681013 1163.03768056 475.50681013 1163.03768056 474.20785522 1184.51225281 C473.99127368 1188.1464249 473.5643566 1191.70743751 473.0625 1195.3125 C471.79601784 1204.55312907 471.29770253 1213.8402133 470.78540039 1223.1496582 C470.6750647 1224.97049927 470.6750647 1224.97049927 470.5625 1226.828125 C470.50191406 1227.9202832 470.44132812 1229.01244141 470.37890625 1230.13769531 C470.0074814 1232.94348458 469.60858048 1234.68373722 468 1237 C465.35346043 1238.05562539 462.92532704 1238.85068277 460.1875 1239.5625 C459.03616577 1239.88154297 459.03616577 1239.88154297 457.86157227 1240.20703125 C452.38089375 1241.70368027 446.85701749 1242.96837069 441.30859375 1244.1875 C436.78877988 1245.29744249 432.3920463 1246.72704815 427.96533203 1248.1574707 C422.62718867 1249.86078964 417.25635749 1251.17614086 411.76953125 1252.32421875 C409.02755217 1252.92239483 409.02755217 1252.92239483 406.63671875 1253.95703125 C403.85154088 1255.05872383 401.0506741 1255.77854412 398.14160156 1256.47753906 C394.52963834 1257.35870656 390.95516103 1258.37368227 387.375 1259.375 C386.59302246 1259.59269043 385.81104492 1259.81038086 385.00537109 1260.03466797 C380.20473619 1261.37399326 375.41314466 1262.74175821 370.625 1264.125 C366.49526386 1265.31235827 362.36299899 1266.42336931 358.1875 1267.4375 C352.4228472 1268.84388983 346.75854584 1270.53105609 341.07592773 1272.23193359 C337.48494314 1273.29817792 333.92157534 1274.30519532 330.25 1275.0625 C326.92582005 1275.74983044 323.73838379 1276.66800881 320.5 1277.6875 C310.85985434 1280.71405736 301.10962218 1283.35397261 291.37548828 1286.05908203 C287.99728424 1287.00075702 284.62136616 1287.95021832 281.24609375 1288.90234375 C280.1468457 1289.21196045 279.04759766 1289.52157715 277.91503906 1289.84057617 C275.83462159 1290.4267755 273.75451861 1291.01409271 271.67480469 1291.6027832 C266.73701456 1292.99117458 261.79267683 1294.31451204 256.8125 1295.54296875 C251.93253034 1296.74820279 247.12028167 1298.09888807 242.3125 1299.5625 C233.73214668 1302.13613429 233.73214668 1302.13613429 229.4375 1303 C225.39183481 1303.82928386 221.49280999 1305.05969303 217.5625 1306.3125 C194.25876299 1313.72946635 194.25876299 1313.72946635 183.3359375 1315.4453125 C180.52784571 1316.1121169 177.91973623 1317.17621934 175.23046875 1318.2109375 C171.33576031 1319.58875029 167.32884262 1320.48758467 163.3125 1321.4375 C156.53016545 1323.08348704 149.86906912 1324.90589028 143.21875 1327.03125 C138.74363938 1328.37812795 134.21500264 1329.46429974 129.67456055 1330.56616211 C125.36627325 1331.6234459 121.19839574 1332.86947282 117.01953125 1334.34765625 C114.05617975 1335.30487037 111.03368207 1335.89872534 107.98828125 1336.53515625 C105.54045172 1337.1074386 103.32333714 1338.04683605 101 1339 C99.2264614 1339.43955766 97.45267156 1339.87811507 95.67797852 1340.31298828 C92.31702434 1341.17521137 88.97894282 1342.11340445 85.640625 1343.05859375 C84.96604752 1343.24942535 84.29147003 1343.44025696 83.59645081 1343.63687134 C80.77639449 1344.4357029 77.9568813 1345.23643263 75.13769531 1346.03833008 C67.33405678 1348.2561394 59.52545951 1350.39939055 51.64501953 1352.33178711 C47.8318768 1353.29510367 44.07420802 1354.41728087 40.3125 1355.5625 C35.2247274 1357.0890571 30.17665749 1358.47745059 24.96875 1359.5390625 C21.99391879 1360.23555076 19.15026165 1361.27490943 16.265625 1362.2734375 C10.96269296 1363.97403295 5.45269929 1364.90946014 0 1366 C0 1305.61 0 1245.22 0 1183 C-0.66 1182.67 -1.32 1182.34 -2 1182 C17.77460001 1176.24298401 17.77460001 1176.24298401 25.14770508 1174.46362305 C30.98921148 1173.04392684 36.70102448 1171.50609823 42.42578125 1169.66015625 C50.12573403 1167.21491549 57.8881705 1165.09202224 65.70672607 1163.06295776 C69.44204941 1162.0931406 73.17384424 1161.10987968 76.90625 1160.12890625 C77.62734955 1159.93974136 78.3484491 1159.75057648 79.09140015 1159.55567932 C92.85336192 1155.94294687 106.52008194 1152.00062088 120.19799805 1148.08398438 C130.06193565 1145.26136643 139.93770598 1142.48301609 149.8203125 1139.7265625 C154.06741469 1138.5419229 158.31185841 1137.34828997 162.5546875 1136.1484375 C180.57225147 1131.06087224 180.57225147 1131.06087224 189.25 1128.9375 C200.89073878 1126.08769258 212.3753463 1122.66320968 223.8671875 1119.26953125 C234.63535206 1116.0945625 245.41716749 1113.05911694 256.29125977 1110.26733398 C263.32478094 1108.45560604 270.32274141 1106.53601465 277.3125 1104.5625 C286.00567165 1102.10803732 294.71233736 1099.71326964 303.4375 1097.375 C323.44368834 1092.0904695 323.44368834 1092.0904695 343.18359375 1085.9140625 C349.66422065 1083.81077998 356.13854015 1081.7509452 363 1082 C362.95939453 1080.453125 362.95939453 1080.453125 362.91796875 1078.875 C362.92212266 1072.54997979 363.67092725 1066.28583857 364.3125 1060 C364.44826794 1058.63660708 364.58351161 1057.27316186 364.71826172 1055.90966797 C365.00020242 1053.05781539 365.28350781 1050.2061042 365.56787109 1047.35449219 C366.27162232 1040.27972134 366.9540312 1033.20294996 367.625 1026.125 C367.72223862 1025.1028389 367.72223862 1025.1028389 367.82144165 1024.06002808 C368.51550447 1016.73125459 369.15847151 1009.41643907 369.5 1002.0625 C369.89171464 994.09763573 370.90700302 986.23968418 371.90966797 978.33129883 C372.80854238 971.07974894 373.42787955 963.86997459 373.70898438 956.56860352 C373.81593263 953.86848619 373.94542623 951.26982777 374.48193359 948.6171875 C375.01461307 945.92617716 375.28593578 943.31222198 375.5 940.578125 C375.5825 939.55203125 375.665 938.5259375 375.75 937.46875 C375.8325 936.4065625 375.915 935.344375 376 934.25 C376.93641143 922.36927999 376.93641143 922.36927999 377.5390625 917.296875 C377.96061347 913.65382164 378.16103252 910.03703545 378.29052734 906.37304688 C378.62480032 896.98248818 379.56821292 887.76110815 380.76855469 878.44580078 C382.19724501 867.04222291 383.09679558 855.60139161 383.99755859 844.14648438 C384.05731873 843.39396393 384.11707886 842.64144348 384.1786499 841.86611938 C384.34111309 839.8118174 384.50002442 837.7572354 384.65869141 835.70263672 C384.98982182 832.11041651 385.48159856 828.56921472 386 825 C386.16348333 823.25047241 386.30745046 821.49898613 386.4296875 819.74609375 C386.53700195 818.2451416 386.53700195 818.2451416 386.64648438 816.71386719 C386.72189453 815.63266602 386.79730469 814.55146484 386.875 813.4375 C387.04876452 811.03510445 387.22328984 808.63276385 387.3984375 806.23046875 C387.49350586 804.92384277 387.58857422 803.6172168 387.68652344 802.27099609 C388.21181871 795.09217062 388.75364795 787.91465545 389.30865479 780.73806763 C389.43438769 779.10315882 389.55858023 777.46813068 389.68109131 775.83297729 C390.26413576 768.05995199 390.90331787 760.33462616 391.99609375 752.61328125 C393.28608839 743.42130231 393.9041659 734.19157288 394.5625 724.9375 C394.75076316 722.3180079 394.94038132 719.69863762 395.13328552 717.07948303 C395.25189407 715.4669266 395.36783895 713.85417113 395.48060608 712.24119568 C395.78324359 708.10319496 396.31291038 704.09469183 397 700 C397.25345224 697.24407499 397.48254894 694.49396305 397.68359375 691.734375 C397.8079368 690.10416622 397.93228597 688.4739579 398.05664062 686.84375 C398.24608915 684.31712278 398.43449544 681.79042072 398.62231445 679.26367188 C399.34928165 669.53482876 400.1620663 659.83526748 401.32981873 650.14801025 C401.9100047 645.24695894 402.23476123 640.36799096 402.4375 635.4375 C402.77087743 628.25999688 403.53035307 621.1896086 404.4375 614.0625 C406.12126741 600.72499667 407.05834361 587.41860359 408 574 C409.485 555.685 409.485 555.685 411 537 C197.82 537 -15.36 537 -235 537 C-236.65 516.87 -238.3 496.74 -240 476 C-240.66 470.72 -241.32 465.44 -242 460 C-242.34153654 456.06094529 -242.66052445 452.1304067 -242.9375 448.1875 C-243.59735782 439.34702777 -244.46655053 430.55426881 -245.5 421.75 C-246.76948223 410.8843071 -247.6068532 400.0262735 -248.29638672 389.10961914 C-248.79264428 381.43756124 -249.50562137 373.86592356 -250.6328125 366.26171875 C-251.05297848 362.52939328 -251 358.75590107 -251 355 C-26.93 355 197.14 355 428 355 C428.66 344.44 429.32 333.88 430 323 C431.09269499 312.01756169 431.09269499 312.01756169 431.74615479 306.74234009 C432.20395918 303.03648008 432.63006378 299.32697529 433.0546875 295.6171875 C433.13862762 294.88500504 433.22256775 294.15282257 433.30905151 293.39845276 C434.21131756 285.37085094 434.81049204 277.32416833 435.31640625 269.26245117 C435.88738234 260.42761572 436.9592919 251.84601883 438 243 C439.65 221.55 441.3 200.1 443 178 C150.29 178 -142.42 178 -444 178 C-444 180.64 -444 183.28 -444 186 C-444.33 186 -444.66 186 -445 186 C-445 183.03 -445 180.06 -445 177 C-298.15 177 -151.3 177 0 177 C0 118.59 0 60.18 0 0 Z " fill="#F06529" transform="translate(709,511)"/>
<path d="M0 0 C292.71 0 585.42 0 887 0 C887 9.43631194 886.78937515 18.53734021 885.9765625 27.89453125 C885.87032562 29.16616623 885.76408875 30.43780121 885.65463257 31.74797058 C885.43038486 34.41795126 885.20400344 37.08763282 884.97363281 39.75708008 C884.68310587 43.12486033 884.40019155 46.49322455 884.11980152 49.86186218 C883.07241944 62.42634809 881.9643061 74.96386026 880.41113281 87.47631836 C879.77469556 92.93100894 879.41527665 98.3959377 879.0625 103.875 C878.35324884 114.18384932 877.32086748 124.41844365 876.11010742 134.67919922 C874.96072716 144.70097568 874.25211943 154.73159827 873.64648438 164.79833984 C873.53916992 166.53784912 873.53916992 166.53784912 873.4296875 168.3125 C873.34050049 169.85357422 873.34050049 169.85357422 873.24951172 171.42578125 C873 174 873 174 872 177 C647.93 177 423.86 177 193 177 C194.32 188.55 195.64 200.1 197 212 C198.0625 226 198.0625 226 198.50390625 232.53125 C199.06300981 240.33269496 199.98315236 248.08590262 200.89257812 255.8527832 C201.94290268 265.00913414 202.67808949 274.16999709 203.265625 283.3671875 C203.69570477 289.83461347 204.38194074 296.22663517 205.22080994 302.65380859 C206.18469447 310.18369395 206.82653119 317.73505181 207.43261719 325.30102539 C207.62574184 327.69670236 207.82824222 330.09147073 208.03125 332.48632812 C208.15941994 334.05724561 208.28704297 335.62820783 208.4140625 337.19921875 C208.47340973 337.891259 208.53275696 338.58329926 208.59390259 339.29631042 C209.10960961 345.91635897 209 352.2866369 209 359 C286.22 359 363.44 359 443 359 C443 417.41 443 475.82 443 536 C312.32 536 181.64 536 47 536 C45.75799343 528.54796058 44.7449193 521.90862568 44.5625 514.5 C44.26887689 506.55217243 43.5999046 498.71192518 42.6875 490.8125 C41.12775264 477.21177616 40.05538422 463.58542284 39 449.9375 C37.90376456 435.79712439 36.76279848 421.69334808 35.07641602 407.609375 C33.87897678 397.44789748 33.06577586 387.26102797 32.24685669 377.0635376 C31.57447243 368.6939306 30.88885153 360.33675632 29.875 352 C29.06894482 345.36627669 28.72965648 338.76636072 28.46435547 332.09423828 C28.07729847 323.63242741 27.07335446 315.25916818 26.08618164 306.84985352 C25.36008857 300.56401292 24.76137225 294.32194124 24.5 288 C24.13827388 279.26719154 23.09976021 270.63367867 22.0859375 261.95581055 C21.35406653 255.57211979 20.76148493 249.2322522 20.5 242.8125 C20.21554955 235.8547773 19.42129446 229.02601696 18.5 222.125 C17.5319752 214.84654938 16.76802158 207.6508246 16.5 200.3125 C16.14869751 190.79035344 15.1711366 181.36786445 14.15625 171.89599609 C13.06553221 161.71552212 12.12437677 151.53142238 11.27685547 141.328125 C11.01941106 138.23334348 10.75875678 135.13884498 10.49708557 132.04441833 C10.18424293 128.34222253 9.87320915 124.63987539 9.5625 120.9375 C9.4985202 120.17581512 9.43454041 119.41413025 9.36862183 118.62936401 C8.63888198 109.92329706 7.93307101 101.21617492 7.28125 92.50390625 C5.96807113 75.04877171 4.4308377 57.65669871 2.35766602 40.2734375 C0.76370064 26.8030379 0 13.59629772 0 0 Z " fill="#EAEAEA" transform="translate(265,689)"/>
<path d="M0 0 C58.74 0 117.48 0 178 0 C182.34458471 38.01511617 182.34458471 38.01511617 183.56640625 56.09375 C183.97587604 61.9946542 184.61481559 67.85095705 185.32299805 73.72216797 C185.90654605 78.70968878 186.21993164 83.67180197 186.4375 88.6875 C186.74371011 95.63029886 187.53157734 102.43232855 188.5 109.3125 C190.03002982 120.19882731 190.67132413 131.01769246 191 142 C191.67474365 142.05551025 192.3494873 142.11102051 193.04467773 142.16821289 C193.93614502 142.2480542 194.8276123 142.32789551 195.74609375 142.41015625 C196.6270874 142.4862915 197.50808105 142.56242676 198.41577148 142.64086914 C201.53945878 143.07496872 204.12995185 144.05166993 207.02807617 145.25073242 C209.05262759 146.01999679 210.99273779 146.49247301 213.11328125 146.92578125 C218.17365104 148.01150935 223.14009422 149.36293134 228.125 150.75 C237.08173951 153.22085114 246.05849715 155.60114937 255.05908203 157.90722656 C263.54928122 160.09755397 271.91424234 162.64994885 280.28515625 165.25390625 C282.50152886 165.86301009 284.69154225 166.37282228 286.9375 166.8515625 C293.33864442 168.25018183 299.62830128 170.05202469 305.9375 171.8125 C307.12923828 172.14314453 308.32097656 172.47378906 309.54882812 172.81445312 C314.79291034 174.27005613 320.03572498 175.73010033 325.27685547 177.19628906 C335.43950716 180.03517408 345.62084426 182.79596916 355.82421875 185.48486328 C358.26387331 186.12866101 360.702238 186.77720149 363.140625 187.42578125 C372.38364323 189.87098352 381.62493047 192.10860544 391 194 C390.01 194.33 389.02 194.66 388 195 C388 255.39 388 315.78 388 378 C388.99 378.33 389.98 378.66 391 379 C384.50392205 379.45174395 379.10888508 377.79012046 372.9375 375.875 C370.77392422 375.22364151 368.60985069 374.57393437 366.4453125 373.92578125 C365.36024414 373.59916504 364.27517578 373.27254883 363.15722656 372.93603516 C358.56120259 371.57343417 353.94103919 370.3093753 349.3125 369.0625 C347.50778978 368.57430275 345.70310295 368.08601899 343.8984375 367.59765625 C342.95967773 367.34387207 342.02091797 367.09008789 341.05371094 366.82861328 C325.84765861 362.70250666 310.66321035 358.49941414 295.52124023 354.14404297 C287.70168638 351.90078429 279.85456167 349.7641562 272.00390625 347.6328125 C255.82536782 343.23904487 239.6632907 338.78739316 223.55200195 334.15283203 C217.25564449 332.34647471 210.94485662 330.59726915 204.625 328.875 C203.70589844 328.62435791 202.78679687 328.37371582 201.83984375 328.11547852 C197.74109833 327.00183344 193.64007826 325.90074548 189.52734375 324.83984375 C188.51196533 324.5761499 188.51196533 324.5761499 187.47607422 324.30712891 C185.71579587 323.85212458 183.95368205 323.40423681 182.19140625 322.95703125 C179 322 179 322 175.70703125 320.52734375 C171.33226641 318.58937057 166.79167215 317.72287181 162.125 316.75 C149.59757791 314.01946065 137.31474207 310.55395949 125 307 C121.52121116 305.99868135 118.04202958 304.99874147 114.5625 304 C113.30228027 303.63745117 113.30228027 303.63745117 112.01660156 303.26757812 C105.0943126 301.2867948 98.14432307 299.4178239 91.1875 297.5625 C81.68310534 295.02664155 72.23047207 292.34950705 62.79589844 289.56591797 C53.3786368 286.79530503 43.91452142 284.20889963 34.43334961 281.66674805 C31.28157734 280.80314916 28.14108864 279.90158444 25 279 C23.39260003 265.80808275 21.99313901 252.60001699 20.6875 239.375 C20.58117249 238.30316467 20.47484497 237.23132935 20.36529541 236.12701416 C18.99839272 222.2719711 17.75869876 208.41046734 16.66796875 194.53125 C16.61343977 193.83804279 16.55891079 193.14483559 16.50272942 192.4306221 C15.91638699 184.95921495 15.34501871 177.48682699 14.7878418 170.01318359 C13.80756542 157.0404197 12.67017947 144.12773019 10.98983765 131.22457886 C10.11180843 124.4198706 9.66678243 117.68258972 9.40893555 110.82977295 C9.11152568 103.76906163 8.39898702 96.78156853 7.6328125 89.7578125 C6.13617725 75.66245729 4.87043637 61.55441193 3.69238281 47.42871094 C3.37101157 43.57720023 3.04517901 39.72608505 2.71875 35.875 C2.50755645 33.36720905 2.29660979 30.85939729 2.0859375 28.3515625 C1.99114105 27.22940338 1.8963446 26.10724426 1.79867554 24.95108032 C1.10729928 16.63660839 0.55519186 8.32787795 0 0 Z " fill="#EAEAEA" transform="translate(320,1314)"/>
<path d="M0 0 C146.52 0 293.04 0 444 0 C444 9.43631194 443.78937515 18.53734021 442.9765625 27.89453125 C442.87032562 29.16616623 442.76408875 30.43780121 442.65463257 31.74797058 C442.43038486 34.41795126 442.20400344 37.08763282 441.97363281 39.75708008 C441.68310587 43.12486033 441.40019155 46.49322455 441.11980152 49.86186218 C440.07241944 62.42634809 438.9643061 74.96386026 437.41113281 87.47631836 C436.77469556 92.93100894 436.41527665 98.3959377 436.0625 103.875 C435.35324884 114.18384932 434.32086748 124.41844365 433.11010742 134.67919922 C431.96072716 144.70097568 431.25211943 154.73159827 430.64648438 164.79833984 C430.53916992 166.53784912 430.53916992 166.53784912 430.4296875 168.3125 C430.34050049 169.85357422 430.34050049 169.85357422 430.24951172 171.42578125 C430 174 430 174 429 177 C287.43 177 145.86 177 0 177 C0 118.59 0 60.18 0 0 Z " fill="#FEFEFE" transform="translate(708,689)"/>
<path d="M0 0 C31.68 0 63.36 0 96 0 C101.74665035 8.93923388 107.44650483 17.88086227 113 26.9375 C113.70634678 28.08726012 114.41272746 29.23699941 115.11914062 30.38671875 C119.29788586 37.19364433 123.42877336 44.02658899 127.51953125 50.88671875 C131.69426763 57.84461271 135.97964691 64.73628168 140.2421875 71.640625 C144.20708027 78.0670229 148.13425263 84.51343778 152 91 C155.78906972 86.55078209 158.76932719 81.71930798 161.8125 76.75 C162.37001953 75.84483643 162.92753906 74.93967285 163.50195312 74.00708008 C168.69399276 65.55280449 173.80045559 57.04699575 178.88598633 48.52832031 C181.87764196 43.5188479 184.88689552 38.53258609 188.0546875 33.63208008 C189.16475285 31.84214726 189.16475285 31.84214726 190 29 C190.66 29 191.32 29 192 29 C192.2578125 28.30390625 192.515625 27.6078125 192.78125 26.890625 C194.13392624 23.68235443 195.75049365 20.75974397 197.5 17.75 C198.1084375 16.69296875 198.716875 15.6359375 199.34375 14.546875 C201 12 201 12 203 11 C203.28875 10.278125 203.5775 9.55625 203.875 8.8125 C205 6 205 6 209 0 C240.68 0 272.36 0 305 0 C305 89.43 305 178.86 305 271 C274.97 271 244.94 271 214 271 C213.67 228.1 213.34 185.2 213 141 C209.7 146.28 206.4 151.56 203 157 C200.90652227 160.25814188 198.8081675 163.50991547 196.6875 166.75 C195.57939304 168.44919655 194.47132117 170.14841598 193.36328125 171.84765625 C192.80850098 172.69730957 192.2537207 173.54696289 191.68212891 174.42236328 C187.28917068 181.153982 182.91321633 187.89669842 178.53466797 194.63769531 C177.54185855 196.16592056 176.54871676 197.69392995 175.55517578 199.22167969 C168.27352496 210.42069044 161.11023169 221.69141713 154 233 C151.80078125 232.93359375 151.80078125 232.93359375 149 232 C147.16410794 229.69127087 145.68209959 227.57173626 144.1875 225.0625 C143.78080078 224.41603516 143.37410156 223.76957031 142.95507812 223.10351562 C140 218.32075893 140 218.32075893 140 216 C139.34 216 138.68 216 138 216 C137.5875 215.13375 137.175 214.2675 136.75 213.375 C135.05324198 209.94599852 135.05324198 209.94599852 132.8125 206.75 C131 204 131 204 131 202 C130.34 202 129.68 202 129 202 C128.6596875 201.34515625 128.319375 200.6903125 127.96875 200.015625 C124.71142086 193.88214353 121.15644664 188.09184154 117.2578125 182.34765625 C114.67536462 178.54067275 112.18105402 174.67808004 109.6875 170.8125 C109.22907715 170.10254883 108.7706543 169.39259766 108.29833984 168.66113281 C107.35293143 167.19661878 106.40778543 165.73193531 105.46289062 164.26708984 C102.95750107 160.38440502 100.44743452 156.50474764 97.9375 152.625 C97.47239014 151.90546143 97.00728027 151.18592285 96.52807617 150.44458008 C96.09470947 149.77450928 95.66134277 149.10443848 95.21484375 148.4140625 C94.83448975 147.8257666 94.45413574 147.2374707 94.06225586 146.63134766 C93.05237388 145.0804326 92.02659993 143.5398999 91 142 C90.67 184.57 90.34 227.14 90 271 C60.3 271 30.6 271 0 271 C0 181.57 0 92.14 0 0 Z " fill="#000000" transform="translate(722,0)"/>
<path d="M0 0 C30.69 0 61.38 0 93 0 C93 29.04 93 58.08 93 88 C119.4 88 145.8 88 173 88 C173 58.96 173 29.92 173 0 C203.36 0 233.72 0 265 0 C265 89.43 265 178.86 265 271 C234.64 271 204.28 271 173 271 C173 241.3 173 211.6 173 181 C146.6 181 120.2 181 93 181 C93 210.7 93 240.4 93 271 C70.08004373 271.04010881 70.08004373 271.04010881 60.34570312 271.04882812 C53.69115405 271.05481692 47.03661867 271.06191818 40.38208008 271.07543945 C35.01992581 271.08626715 29.65778622 271.09227658 24.29562187 271.09487724 C22.24499722 271.09673171 20.1943734 271.10035272 18.14375496 271.10573006 C15.28209797 271.11293893 12.42050243 271.11399101 9.55883789 271.11352539 C8.70216522 271.11712067 7.84549255 271.12071594 6.96286011 271.12442017 C1.11405216 271.11405216 1.11405216 271.11405216 0 270 C-0.09665268 268.55607056 -0.12371812 267.10742261 -0.12304783 265.66026211 C-0.12503888 264.71775425 -0.12702993 263.7752464 -0.12908131 262.8041777 C-0.12616847 261.7565345 -0.12325563 260.7088913 -0.12025452 259.62950134 C-0.12110894 258.52608778 -0.12196337 257.42267422 -0.12284368 256.28582388 C-0.12450172 252.55763929 -0.11897183 248.82949887 -0.11352539 245.10131836 C-0.11324356 242.44110512 -0.11335705 239.78089466 -0.1139679 237.12068176 C-0.11449332 231.37757338 -0.11134458 225.63447631 -0.10573006 219.89137077 C-0.09761757 211.58771185 -0.0950001 203.28405843 -0.09374207 194.98039598 C-0.09155115 181.50963262 -0.08488999 168.03887531 -0.07543945 154.56811523 C-0.06626636 141.47924836 -0.05918502 128.39038311 -0.05493164 115.30151367 C-0.05466892 114.49528759 -0.05440619 113.68906151 -0.05413551 112.85840433 C-0.05283051 108.81397574 -0.05156679 104.76954713 -0.05032361 100.72511852 C-0.03994976 67.15007366 -0.02151079 33.57504003 0 0 Z " fill="#000000" transform="translate(131,0)"/>
<path d="M0 0 C202.95 0 405.9 0 615 0 C614.32099117 10.18513245 613.60048402 20.35335653 612.75268555 30.52368164 C612.56353211 32.80007887 612.37837031 35.07677846 612.19335938 37.35351562 C611.57470593 44.86142962 610.8760829 52.35124748 610.01953125 59.8359375 C608.98397116 68.88606546 608.15779678 77.94938369 607.36782837 87.02389526 C607.11792083 89.89379615 606.86529723 92.7634477 606.61206055 95.63305664 C605.88501923 103.87904638 605.16388593 112.12555181 604.44287109 120.37207031 C603.98855932 125.56684404 603.5320657 130.76142268 603.07440186 135.9559021 C602.81677627 138.88881716 602.56190461 141.82196317 602.30712891 144.75512695 C602.1489012 146.55421138 601.99054232 148.35328427 601.83203125 150.15234375 C601.72757942 151.36810593 601.72757942 151.36810593 601.62101746 152.60842896 C601.34083195 155.76207363 601.02754904 158.84499518 600.47314453 161.96435547 C599.8270247 166.10979098 599.74125902 170.22919117 599.59765625 174.41796875 C599.1160149 186.12247882 597.82978501 197.68687175 596.4375 209.3125 C596.20051793 211.33651208 595.96418709 213.36060052 595.72851562 215.38476562 C595.15980227 220.25741815 594.58244407 225.1289705 594 230 C590.8748566 230.95176436 587.74811489 231.89817495 584.62109375 232.84375 C583.31513245 233.24158691 583.31513245 233.24158691 581.98278809 233.64746094 C576.04732364 235.43867724 570.08728467 237.03874556 564.0625 238.5 C556.15603112 240.42850028 548.33445497 242.5725796 540.51733398 244.83544922 C534.28374698 246.63915592 528.03623494 248.35906342 521.76025391 250.01025391 C512.76336883 252.37834715 503.77592215 254.7763083 494.80859375 257.25390625 C493.41732506 257.63739646 492.02604898 258.02085986 490.63476562 258.40429688 C488.53305505 258.98363179 486.43169621 259.56411392 484.33129883 260.14819336 C477.09713751 262.15810257 469.89238916 264.07177864 462.53515625 265.58984375 C457.96375106 266.53491412 453.62732767 267.67383526 449.23144531 269.23193359 C444.67698609 270.79958444 440.01464894 272.02449762 435.375 273.3125 C434.29629639 273.6122876 433.21759277 273.9120752 432.10620117 274.22094727 C428.73889719 275.1525901 425.36985282 276.07762175 422 277 C420.90929199 277.29938477 419.81858398 277.59876953 418.69482422 277.90722656 C415.56990806 278.76037828 412.44198953 279.60129756 409.3125 280.4375 C408.36358887 280.69635986 407.41467773 280.95521973 406.43701172 281.22192383 C401.84973004 282.43161499 397.79119065 283.32576918 393 283 C394.32 282.67 395.64 282.34 397 282 C397 189.27 397 96.54 397 1 C265.99 1 134.98 1 0 1 C0 0.67 0 0.34 0 0 Z " fill="#F06529" transform="translate(312,1225)"/>
<path d="M0 0 C82.5 0 165 0 250 0 C250 59.4 250 118.8 250 180 C172.78 180 95.56 180 16 180 C14.74936636 177.49873272 14.6894107 175.49569417 14.45922852 172.70263672 C14.36565567 171.59322723 14.27208282 170.48381775 14.17567444 169.34078979 C14.07774094 168.13262604 13.97980743 166.92446228 13.87890625 165.6796875 C13.77408432 164.43309357 13.66926239 163.18649963 13.56126404 161.90213013 C13.22444994 157.89339997 12.89291508 153.88426097 12.5625 149.875 C10.84755426 128.52269087 10.84755426 128.52269087 8.41333008 107.24511719 C7.77565413 102.23862653 7.41594875 97.2206441 7.0625 92.1875 C6.51043802 84.76801119 5.84119381 77.38725556 4.94238281 70.00170898 C3.20941782 55.73815973 2.21246052 41.46174122 1.3125 27.125 C1.24588165 26.06778748 1.17926331 25.01057495 1.11062622 23.92132568 C0.92099957 20.88782986 0.73480224 17.8541532 0.55078125 14.8203125 C0.49468689 13.90372864 0.43859253 12.98714478 0.38079834 12.04278564 C0.33030334 11.18835876 0.27980835 10.33393188 0.2277832 9.45361328 C0.18353714 8.71120392 0.13929108 7.96879456 0.09370422 7.20388794 C-0.0083098 4.80455655 0 2.40149911 0 0 Z " fill="#E34D26" transform="translate(459,867)"/>
<path d="M0 0 C82.83 0 165.66 0 251 0 C251 29.7 251 59.4 251 90 C224.93 90 198.86 90 172 90 C172 149.73 172 209.46 172 271 C141.64 271 111.28 271 80 271 C80 211.27 80 151.54 80 90 C53.6 90 27.2 90 0 90 C0 60.3 0 30.6 0 0 Z " fill="#000000" transform="translate(433,0)"/>
<path d="M0 0 C30.69 0 61.38 0 93 0 C93 59.07 93 118.14 93 179 C134.58 179 176.16 179 219 179 C219 209.36 219 239.72 219 271 C146.73 271 74.46 271 0 271 C0 181.57 0 92.14 0 0 Z " fill="#000000" transform="translate(1070,0)"/>
</svg>
