<?xml version="1.0" encoding="UTF-8"?>
<svg version="1.1" xmlns="http://www.w3.org/2000/svg" width="1421" height="2000">
<path d="M0 0 C468.93 0 937.86 0 1421 0 C1421 18.36814466 1421 18.36814466 1420.3359375 24.90234375 C1420.22736923 26.06680527 1420.22736923 26.06680527 1420.11660767 27.25479126 C1419.87623877 29.81639386 1419.62555784 32.37687572 1419.375 34.9375 C1419.1971402 36.81429832 1419.02008581 38.69117311 1418.84375 40.56811523 C1418.45210508 44.72899032 1418.05667718 48.88948481 1417.65917969 53.04980469 C1416.93656282 60.63850938 1416.23658538 68.2292697 1415.5390625 75.8203125 C1415.41246542 77.19749451 1415.28586833 78.57467651 1415.15927124 79.95185852 C1414.96716516 82.04192464 1414.77507944 84.13199261 1414.58305168 86.22206593 C1413.87081358 93.97253503 1413.15447148 101.72262377 1412.4375 109.47265625 C1412.37440266 110.15477865 1412.31130531 110.83690105 1412.24629593 111.53969383 C1411.01506725 124.8487291 1409.77817929 138.15723383 1408.53686523 151.46533203 C1407.61246483 161.38183305 1406.69545294 171.29899216 1405.78414345 181.21670532 C1405.27551648 186.75167872 1404.76640974 192.28660802 1404.25717545 197.82152557 C1404.1276166 199.229732 1403.99807704 200.63794021 1403.86855698 202.04615021 C1401.96423626 222.74794353 1400.00509531 243.443797 1397.99588013 264.13571167 C1396.69096388 277.5910891 1395.45117628 291.04834964 1394.33218384 304.52041626 C1393.17805746 318.37973645 1391.8438965 332.2204399 1390.5 346.0625 C1388.98713812 361.64600334 1387.5108555 377.2296482 1386.1640625 392.82836914 C1384.91456991 407.22866126 1383.53372762 421.61649268 1382.16699219 436.00604248 C1380.89990776 449.35458065 1379.65340249 462.70365149 1378.5 476.0625 C1377.16574798 491.50821248 1375.66511391 506.93689077 1374.16699219 522.36746216 C1372.87033626 535.73934598 1371.61128213 549.11140607 1370.5 562.5 C1369.29369764 577.03338627 1367.90908752 591.54746403 1366.5 606.0625 C1365.09529691 620.53743658 1363.69681935 635.01160427 1362.4375 649.5 C1362.38011658 650.15930511 1362.32273315 650.81861023 1362.26361084 651.49789429 C1362.02943674 654.18941998 1361.79542726 656.88095992 1361.56170654 659.57252502 C1360.76973577 668.67516371 1359.94970586 677.77527598 1359.125 686.875 C1359.00137085 688.23960358 1359.00137085 688.23960358 1358.87524414 689.6317749 C1357.35036147 706.42799585 1355.73636516 723.21522912 1354.1104126 740.00192261 C1352.72905333 754.27306946 1351.3973541 768.54591799 1350.16381836 782.83056641 C1348.91455699 797.23013854 1347.53365786 811.61722719 1346.16699219 826.00604248 C1344.89990769 839.35458145 1343.65347437 852.70365731 1342.5 866.0625 C1341.26213128 880.38435319 1339.88662099 894.69184683 1338.5 909 C1337.0955939 923.49575845 1335.69924489 937.99104719 1334.4375 952.5 C1334.38011658 953.15921448 1334.32273315 953.81842896 1334.26361084 954.49761963 C1334.02943194 957.18924155 1333.79543385 959.88087911 1333.56170654 962.57254028 C1332.76973042 971.67517343 1331.94970541 980.77528101 1331.125 989.875 C1331.00137085 991.23960358 1331.00137085 991.23960358 1330.87524414 992.6317749 C1329.350636 1009.42497195 1327.73644163 1026.20912723 1326.11141968 1042.99285889 C1324.51444596 1059.49938892 1322.99974262 1076.01017449 1321.56625366 1092.53160095 C1320.75659792 1101.83579787 1319.90888195 1111.13658501 1319.0625 1120.4375 C1318.9781369 1121.3647287 1318.8937738 1122.2919574 1318.80685425 1123.24728394 C1316.82067304 1145.06027847 1314.7865454 1166.86878553 1312.75 1188.67712402 C1312.16608659 1194.93052867 1311.58277136 1201.18398882 1311 1207.4375 C1310.91716766 1208.32584534 1310.83433533 1209.21419067 1310.74899292 1210.12945557 C1309.83182482 1219.9705991 1308.92299457 1229.81241377 1308.03515625 1239.65625 C1307.95534012 1240.54092453 1307.87552399 1241.42559906 1307.79328918 1242.33708191 C1307.713181 1243.22511002 1307.63307281 1244.11313812 1307.55053711 1245.02807617 C1307.38787434 1246.83121892 1307.22519526 1248.63436019 1307.0625 1250.4375 C1306.9416655 1251.77695175 1306.9416655 1251.77695175 1306.81838989 1253.14346313 C1305.41779545 1268.64317794 1303.93785362 1284.13465442 1302.4375 1299.625 C1300.73058893 1317.25259971 1299.09758347 1334.88344029 1297.56625366 1352.52706909 C1296.35074464 1366.49607277 1295.07017809 1380.45937419 1293.78474426 1394.42208862 C1293.24451684 1400.29946097 1292.71589796 1406.17776272 1292.19438171 1412.05682373 C1291.84521695 1415.9741814 1291.48861612 1419.89083919 1291.13034058 1423.80737305 C1290.96093576 1425.6767178 1290.79466499 1427.54634937 1290.63162231 1429.41625977 C1290.40589525 1431.99968731 1290.16913816 1434.58187618 1289.9296875 1437.1640625 C1289.86521927 1437.93267609 1289.80075104 1438.70128967 1289.73432922 1439.49319458 C1289.22805458 1444.77194542 1289.22805458 1444.77194542 1287 1447 C1285.14453125 1447.67919922 1285.14453125 1447.67919922 1282.8125 1448.3046875 C1281.45850098 1448.6749707 1281.45850098 1448.6749707 1280.07714844 1449.05273438 C1279.06168945 1449.32408203 1278.04623047 1449.59542969 1277 1449.875 C1274.69232233 1450.50640342 1272.38506036 1451.13932732 1270.078125 1451.7734375 C1269.44642395 1451.94643372 1268.8147229 1452.11942993 1268.16387939 1452.29766846 C1260.54431313 1454.38888711 1252.95156454 1456.57337912 1245.35671997 1458.75231934 C1226.79639643 1464.07594258 1208.21951789 1469.34043757 1189.63891602 1474.59277344 C1174.40051798 1478.9006796 1159.16627949 1483.22229773 1143.94555664 1487.59228516 C1134.94141584 1490.17369728 1125.92389806 1492.7051388 1116.90298462 1495.22721863 C1104.97012462 1498.5647378 1093.04705371 1501.93661652 1081.125 1505.3125 C1079.98433075 1505.63537994 1078.8436615 1505.95825989 1077.66842651 1506.29092407 C1060.49218309 1511.15324884 1043.3218249 1516.03570741 1026.16015625 1520.94921875 C1024.94730957 1521.29645996 1023.73446289 1521.64370117 1022.48486328 1522.00146484 C1020.26942405 1522.63626563 1018.0542267 1523.27191165 1015.83935547 1523.90869141 C1007.21922477 1526.38186196 998.58405896 1528.79986607 989.94755554 1531.21513367 C978.20944873 1534.49868201 966.4785593 1537.8075278 954.75 1541.125 C953.05718399 1541.60356445 953.05718399 1541.60356445 951.33016968 1542.09179688 C934.18646829 1546.94015078 917.06523819 1551.86205915 899.95568848 1556.82940674 C888.70572304 1560.0932856 877.44447379 1563.27483468 866.11669922 1566.25976562 C853.30898556 1569.66521302 840.5969954 1573.41555671 827.87304688 1577.11914062 C814.99711083 1580.86445284 802.09666674 1584.51422451 789.17922974 1588.1137085 C783.90497122 1589.58404279 778.63223994 1591.05983368 773.359375 1592.53515625 C771.25781475 1593.12305491 769.15625225 1593.71094554 767.0546875 1594.29882812 C766.01538086 1594.58959229 764.97607422 1594.88035645 763.90527344 1595.17993164 C761.79465154 1595.77029826 759.68397407 1596.36046621 757.57324219 1596.95043945 C755.46201275 1597.5405901 753.35088748 1598.13111354 751.23986816 1598.72201538 C749.16920651 1599.30120718 747.09816675 1599.87904908 745.0267334 1600.45547485 C740.03535031 1601.84862493 735.0572676 1603.27289684 730.09570312 1604.76904297 C729.15454651 1605.04928818 728.21338989 1605.32953339 727.24371338 1605.61827087 C725.49202332 1606.14178506 723.74313165 1606.67480947 721.99798584 1607.21974182 C714.52575471 1609.43964008 707.76063159 1609.89159707 700.23828125 1607.55859375 C699.14708984 1607.22988281 698.05589844 1606.90117188 696.93164062 1606.5625 C695.73732422 1606.19125 694.54300781 1605.82 693.3125 1605.4375 C690.56087156 1604.60562046 687.805926 1603.78499241 685.05078125 1602.96484375 C684.29048615 1602.73755585 683.53019104 1602.51026794 682.74685669 1602.27609253 C672.39471663 1599.1982042 661.97581688 1596.35632867 651.56524658 1593.48391724 C620.22699328 1584.83535763 620.22699328 1584.83535763 605.4375 1580.5 C558.24920972 1566.66826657 510.85947508 1553.44374905 463.4375 1540.4375 C449.23695734 1536.54018366 435.10967636 1532.4072163 420.99295044 1528.21772766 C406.44843226 1523.90293383 391.9054598 1519.63902939 377.24072266 1515.74731445 C354.05008554 1509.57604205 330.98774773 1502.91931985 307.9760437 1496.11453247 C295.01807575 1492.28347301 282.02218689 1488.60661428 269 1485 C262.24894801 1483.12877938 255.49899691 1481.25361919 248.75 1479.375 C247.84124115 1479.12209198 246.9324823 1478.86918396 245.9961853 1478.60861206 C229.50911843 1474.01606735 213.06351892 1469.28621584 196.62573242 1464.52075195 C186.78072047 1461.6670577 176.9338475 1458.82406559 167.0625 1456.0625 C166.11608643 1455.79687256 165.16967285 1455.53124512 164.19458008 1455.25756836 C159.37000927 1453.91140502 154.53602847 1452.61274132 149.6875 1451.35546875 C148.14437134 1450.95026001 148.14437134 1450.95026001 146.57006836 1450.53686523 C144.62300665 1450.02745864 142.67340324 1449.52763032 140.72094727 1449.03930664 C139.86557373 1448.8149292 139.0102002 1448.59055176 138.12890625 1448.359375 C137.37681885 1448.16827148 136.62473145 1447.97716797 135.84985352 1447.78027344 C134 1447 134 1447 132 1444 C131.54516602 1441.40228271 131.54516602 1441.40228271 131.25390625 1438.24121094 C131.08362915 1436.46094513 131.08362915 1436.46094513 130.90991211 1434.64471436 C130.79526611 1433.35430237 130.68062012 1432.06389038 130.5625 1430.734375 C130.43634901 1429.38121923 130.30946397 1428.02813172 130.18188477 1426.67510986 C129.84631425 1423.09415309 129.52107968 1419.51232802 129.19787598 1415.93023682 C128.8753037 1412.37607141 128.54259818 1408.82285788 128.2109375 1405.26953125 C126.97451375 1391.97876689 125.77734836 1378.68451609 124.64624023 1365.38433838 C124.15228212 1359.60427667 123.59189142 1353.83329959 123 1348.0625 C122.29241389 1341.16031607 121.68091082 1334.25580151 121.125 1327.33984375 C119.89908853 1312.37924886 118.44456328 1297.44066976 117 1282.5 C116.47730503 1277.09392812 115.95573931 1271.68775103 115.4375 1266.28125 C115.37408354 1265.61978344 115.31066708 1264.95831688 115.2453289 1264.27680588 C114.35107033 1254.92615284 113.5318682 1245.57212068 112.7716217 1236.20974731 C111.74289534 1223.66361756 110.53723587 1211.13353819 109.34057617 1198.60253906 C108.99973293 1195.03253476 108.66218383 1191.46222688 108.32541561 1187.89183617 C108.06180402 1185.10181612 107.7962315 1182.31198531 107.53009224 1179.52220535 C107.34441184 1177.57143022 107.16057829 1175.62047958 106.97679138 1173.66952515 C106.86319778 1172.48613556 106.74960419 1171.30274597 106.63256836 1170.08349609 C106.53423203 1169.05002045 106.43589569 1168.0165448 106.33457947 1166.95175171 C105.99373307 1163.94471144 105.49952439 1160.9841584 105 1158 C104.81866088 1155.43783154 104.66573639 1152.88499672 104.54296875 1150.3203125 C104.0320418 1140.81504062 103.19396743 1131.35203599 102.3125 1121.875 C102.14130787 1120.01140525 101.97025133 1118.14779804 101.79931641 1116.28417969 C100.71494425 1104.50744475 99.59683375 1092.73392663 98.47265625 1080.9609375 C98.40686434 1080.27162518 98.34107243 1079.58231285 98.27328682 1078.87211227 C97.5544134 1071.34133898 96.83297196 1063.81082422 96.10668945 1056.28076172 C94.9049055 1043.78311276 93.75273666 1031.28539199 92.7348175 1018.77139282 C91.89016011 1008.47494093 90.89035203 998.19455151 89.88400269 987.9128418 C88.33911888 972.11411358 86.81401235 956.31436011 85.4375 940.5 C85.37987488 939.83803619 85.32224976 939.17607239 85.26287842 938.49404907 C85.02741714 935.78853751 84.79213294 933.08301063 84.55715942 930.37745667 C83.78661272 921.52073669 82.98986885 912.6663875 82.1875 903.8125 C82.10702423 902.92414459 82.02654846 902.03578918 81.94363403 901.12051392 C80.81980203 888.74149536 79.6602803 876.36598667 78.48046875 863.9921875 C78.41444395 863.29965315 78.34841915 862.6071188 78.2803936 861.89359856 C77.55854604 854.3250279 76.83382668 846.756738 76.10620117 839.1887207 C74.83680748 825.96252938 73.60792719 812.7348041 72.47363281 799.49633789 C71.74355301 790.98174894 70.9688364 782.47116009 70.19506836 773.96044922 C69.93310208 771.07658533 69.67259482 768.19259173 69.41210938 765.30859375 C69.24227534 763.43749203 69.07235672 761.56639798 68.90234375 759.6953125 C68.82628403 758.85147003 68.7502243 758.00762756 68.67185974 757.13821411 C68.24363273 752.44562944 67.75872766 747.76332978 67.22892761 743.08117676 C66.90479219 740.13446754 66.64239259 737.18383771 66.38671875 734.23046875 C66.21982544 732.31681519 66.21982544 732.31681519 66.04956055 730.36450195 C65.99101898 729.68860016 65.93247742 729.01269836 65.87216187 728.3163147 C65.54289766 724.52049862 65.20875246 720.72511115 64.875 716.9296875 C64.7684333 715.7171505 64.7684333 715.7171505 64.65971375 714.4801178 C62.22315171 686.78825903 59.64330031 659.11031803 57 631.4375 C56.90323534 630.42441017 56.90323534 630.42441017 56.80451584 629.39085388 C56.60983705 627.352691 56.41514837 625.31452906 56.22045898 623.27636719 C54.80133913 608.41951173 53.38374762 593.56254704 51.99658203 578.70266724 C51.83718384 576.99598209 51.67738105 575.28933466 51.51708984 573.58273315 C50.73978792 565.30177932 49.99582343 557.01955474 49.31915283 548.72972107 C48.03269517 532.97175495 46.52151895 517.23659839 45 501.5 C44.47730503 496.09392811 43.95576443 490.68774863 43.4375 485.28125 C43.37414585 484.62055197 43.3107917 483.95985394 43.24551773 483.27913475 C42.34565825 473.87189746 41.52286549 464.4611156 40.75802612 455.04206848 C39.73686678 442.58846611 38.51817911 430.15330406 37.32011414 417.71571732 C36.78522414 412.15551973 36.25466092 406.59490612 35.72315979 401.03438377 C35.52433109 398.95465939 35.32534979 396.87494964 35.12634277 394.79524231 C34.07058375 383.75877515 33.02440821 372.72144265 31.99456787 361.68252563 C31.83605369 359.98438267 31.67710464 358.28628022 31.51763916 356.58822632 C30.64369206 347.2778225 29.826183 337.96464431 29.0625 328.64453125 C27.96521283 315.29851472 26.70544051 301.96890418 25.44073486 288.63787842 C24.83751282 282.2719073 24.23900362 275.90549039 23.640625 269.5390625 C23.57250107 268.81450111 23.50437714 268.08993973 23.43418884 267.34342194 C21.92030921 251.23218331 20.45680157 235.11648332 19 219 C17.51194337 202.5381126 16.01618165 186.07715642 14.46484375 169.62109375 C14.40149778 168.94905914 14.33815182 168.27702454 14.27288628 167.58462524 C13.7654469 162.20292776 13.25720765 156.82130579 12.74874496 151.4397049 C10.74410492 130.21745714 8.83931231 108.98807185 6.99835205 87.7510376 C5.55879215 71.15635627 4.01342521 54.58023063 2.30859375 38.01074219 C1.7937549 32.98780497 1.29351551 27.96378857 0.8125 22.9375 C0.72846924 22.11032471 0.64443848 21.28314941 0.55786133 20.4309082 C-0.09000378 13.53552229 0 7.02631926 0 0 Z " fill="#E6A42B" transform="translate(0,391)"/>
<path d="M0 0 C237.6 0 475.2 0 720 0 C720.86350768 3.45403072 721.21172517 6.33368373 721.41796875 9.859375 C721.9359893 17.0814867 723.0800819 24.12040805 724.3125 31.25 C726.49186561 44.14200505 728.20161742 57.05492989 729.65551758 70.04785156 C730.35406106 76.17138301 731.13435224 82.1349952 732.5871582 88.12597656 C733.19482723 90.88438427 733.35649664 93.62124648 733.5 96.4375 C733.81205181 101.17849772 734.45898489 105.61696008 735.46875 110.25 C736.24413478 114.26375649 736.6968812 118.3076613 737.18383789 122.36499023 C737.85015744 127.87807399 738.58980498 133.37759419 739.375 138.875 C739.4985083 139.7410083 739.6220166 140.6070166 739.74926758 141.49926758 C740.47965981 146.56007013 741.24843109 151.61354187 742.046875 156.6640625 C742.31491943 158.36780029 742.31491943 158.36780029 742.58837891 160.10595703 C742.93492171 162.2977851 743.2858468 164.48892684 743.64208984 166.67919922 C744.46566132 171.88531822 745.10405109 177.01922481 745.4296875 182.28125 C745.8088232 187.79408808 746.70269942 193.08499513 747.7776947 198.5015564 C749.56534005 207.64900068 750.71157346 216.88890099 751.9375 226.125 C752.19775522 228.06449666 752.45833818 230.00394936 752.71923828 231.94335938 C753.23839715 235.8073225 753.75517786 239.67159218 754.27001953 243.53613281 C754.9307707 248.49138654 755.60244165 253.4450948 756.27734375 258.3984375 C756.64367571 261.09889797 757.00929066 263.79945509 757.375 266.5 C757.54249756 267.72605957 757.70999512 268.95211914 757.88256836 270.21533203 C758.03218018 271.33020996 758.18179199 272.44508789 758.3359375 273.59375 C758.46532715 274.54958984 758.5947168 275.50542969 758.72802734 276.49023438 C759 279 759 279 759 283 C698.94 283 638.88 283 577 283 C576.38066967 276.80669672 575.81593331 270.7064789 575.53515625 264.50390625 C575.47875725 263.33541893 575.47875725 263.33541893 575.42121887 262.14332581 C575.29945932 259.61648316 575.18097635 257.08949851 575.0625 254.5625 C574.89128571 250.97776814 574.71778801 247.39315153 574.54296875 243.80859375 C574.49895935 242.90500122 574.45494995 242.00140869 574.40960693 241.07043457 C574.11564211 235.11894561 573.78564072 229.17050698 573.42578125 223.22265625 C573.37931961 222.44803543 573.33285797 221.67341461 573.2849884 220.87532043 C573.06673808 217.24916801 572.84279767 213.62351303 572.60961914 209.99829102 C571.9984824 199.93884495 572 190.131694 572 180 C431.42 180 290.84 180 146 180 C146 189.9 146 199.8 146 210 C145.59001805 219.86277337 145.12964441 229.70943371 144.5625 239.5625 C144.4257186 242.06181 144.28964984 244.56115911 144.15429688 247.06054688 C143.55041673 258.05305471 142.844543 269.02094105 142 280 C141.01 306.4 140.02 332.8 139 360 C344.26 360 549.52 360 761 360 C761 366.73161295 760.97439441 372.56137061 760.16015625 379.09765625 C759.98297857 380.56371914 759.80581433 382.02978365 759.62866211 383.49584961 C759.53600067 384.24204559 759.44333923 384.98824158 759.34786987 385.75704956 C757.47295747 400.5599424 757.47295747 400.5599424 756.4375 415.4375 C756.15510977 422.66616218 755.42616306 429.81095662 754.625 437 C753.43596041 447.69915981 752.37677604 458.40157349 751.4375 469.125 C751.37419495 469.8456665 751.31088989 470.56633301 751.2456665 471.30883789 C750.42401668 480.70107723 749.68567465 490.09676997 749 499.5 C748.38831256 507.84241645 747.56712857 516.13346692 746.5625 524.4375 C745.17937279 535.88541731 744.15043831 547.34625603 743.19775391 558.83569336 C742.19522699 570.89883382 741.07907405 582.9492886 739.9375 595 C738.66806454 608.40334469 737.47940318 621.80117182 736.59545898 635.23632812 C736.52915283 636.21923828 736.46284668 637.20214844 736.39453125 638.21484375 C736.34143799 639.05136475 736.28834473 639.88788574 736.23364258 640.74975586 C736 643 736 643 735.50219727 644.88989258 C734.8157977 647.77397202 734.72113945 650.58674274 734.5703125 653.546875 C734.46299805 655.50826416 734.46299805 655.50826416 734.35351562 657.50927734 C734.31653564 658.20059753 734.27955566 658.89191772 734.24145508 659.60418701 C733.61136538 671.21428315 732.68943441 682.6934703 731.11035156 694.21899414 C729.934223 702.96888192 729.2470144 711.73208373 728.64648438 720.53857422 C728.53916992 722.08762451 728.53916992 722.08762451 728.4296875 723.66796875 C728.34050049 725.03344849 728.34050049 725.03344849 728.24951172 726.42651367 C728 729 728 729 727.5 731.36181641 C726.85885045 734.74475686 726.7254294 738.11182585 726.5703125 741.54296875 C726.09701112 750.55283835 725.17171541 759.48772761 724.18740845 768.45397949 C721.73825513 790.86360075 719.61367215 813.30235552 717.54349518 835.74947739 C717.31581953 838.21406614 717.08689592 840.6785359 716.85760498 843.14297485 C715.00429672 863.08206792 713.31761597 883.01741084 712 903 C707.19112016 904.62738813 702.39284622 906.23185557 697.49609375 907.578125 C696.52091797 907.84818359 695.54574219 908.11824219 694.54101562 908.39648438 C693.51685547 908.67814453 692.49269531 908.95980469 691.4375 909.25 C682.94003818 911.60677681 674.46048694 914.01376433 666 916.5 C656.89553625 919.17200265 647.7702827 921.75988621 638.63012695 924.30688477 C627.25435491 927.47957554 615.90151763 930.73143894 604.54833984 933.98388672 C597.53792301 935.99141079 590.52588712 937.99327391 583.51391602 939.99536133 C577.60447433 941.68300562 571.69594736 943.37373898 565.7890625 945.0703125 C554.23827993 948.38476892 542.67942222 951.65167838 531.07788086 954.78393555 C523.40936582 956.86475801 515.78527765 959.08621641 508.16210938 961.32666016 C501.03898661 963.41624675 493.9009557 965.44535126 486.75 967.4375 C477.88700854 969.90715009 469.03321732 972.40664028 460.1875 974.9375 C459.023396 975.27056152 457.85929199 975.60362305 456.65991211 975.94677734 C453.10646169 976.96400793 449.55319526 977.98187852 446 979 C429.38302749 983.76137545 412.75724047 988.48703544 396.10742188 993.13232422 C391.82781289 994.32730618 387.54942903 995.52664553 383.27099609 996.72583008 C374.74493468 999.11522927 366.21789018 1001.50109668 357.6875 1003.875 C356.95861572 1004.07818848 356.22973145 1004.28137695 355.47875977 1004.49072266 C353.65363266 1004.99788537 351.82691229 1005.49930603 350 1006 C349.34902344 1006.20447754 348.69804688 1006.40895508 348.02734375 1006.61962891 C345.66387474 1007.06306396 344.39023289 1006.76522878 342.11328125 1006.03125 C340.97306519 1005.6746228 340.97306519 1005.6746228 339.80981445 1005.31079102 C338.98570068 1005.04322998 338.16158691 1004.77566895 337.3125 1004.5 C335.50068939 1003.93398643 333.68815414 1003.3702886 331.875 1002.80859375 C330.91722656 1002.51065918 329.95945312 1002.21272461 328.97265625 1001.90576172 C323.94302842 1000.37324536 318.87867495 998.96853618 313.8125 997.5625 C312.76723145 997.27125244 311.72196289 996.98000488 310.64501953 996.67993164 C307.43047954 995.78493268 304.21533928 994.89212288 301 994 C288.49198759 990.52954693 275.99986068 987.03615816 263.57885742 983.26489258 C256.03632463 980.98584849 248.45308224 978.86281413 240.86181641 976.75268555 C232.68788928 974.47923796 224.52969233 972.15393013 216.375 969.8125 C207.99453253 967.40736889 199.60695555 965.06922973 191.171875 962.86328125 C186.78724843 961.66992845 182.46364895 960.29908789 178.12890625 958.9375 C174.13523579 957.74089462 170.10671263 956.75315135 166.046875 955.80859375 C163.57794092 955.15337663 161.21134869 954.41315368 158.796875 953.58984375 C153.75329654 951.88114496 148.64438047 950.49424929 143.5 949.125 C136.87391208 947.34026766 130.26319904 945.52512827 123.6875 943.5625 C115.56334826 941.13912498 107.39992602 938.86383654 99.23266602 936.59057617 C93.1809105 934.90234586 87.14469153 933.17398827 81.125 931.375 C75.27894748 929.63024789 69.40538447 928.03157548 63.5 926.5 C56.09578422 924.57947551 48.75640198 922.49520817 41.42578125 920.3125 C28.21631786 916.3809348 14.9427716 912.67185024 1.6340332 909.09204102 C-4.27621346 907.4962018 -10.14509575 905.7881935 -16 904 C-18.09979241 888.20688048 -19.69392616 872.40838932 -20.6484375 856.50341797 C-21.38230668 844.34554646 -22.45998454 832.3271941 -24 820.25 C-25.92781107 805.10877867 -27.23081404 789.9780944 -28.20898438 774.74560547 C-29.18079231 759.6268595 -30.52708568 744.60564337 -32.26794434 729.55911255 C-33.53818039 718.57122124 -34.61338748 707.59820994 -35.31640625 696.55615234 C-35.65222821 691.52995988 -36.18054761 686.61788845 -36.9921875 681.64453125 C-38.09304362 674.8201348 -38.58196058 668.02026973 -39 661.125 C-39.57518136 652.31136242 -40.26549039 643.61263825 -41.6328125 634.8828125 C-42.01402333 631.88990197 -42.02452764 629.01376826 -42 626 C-18.54818754 625.97667363 4.90362319 625.95902211 28.35544491 625.94818783 C39.24372177 625.94302431 50.13199143 625.93598056 61.02026367 625.92456055 C70.50683569 625.9146154 79.99340249 625.90814698 89.47997957 625.90591151 C94.50632755 625.90460411 99.53266062 625.90151644 104.55900383 625.89426994 C109.28421897 625.88751239 114.00941298 625.88538249 118.73463249 625.88689232 C120.47416295 625.88661587 122.21369407 625.88460918 123.95322037 625.88079453 C126.31758985 625.87586141 128.68187825 625.87700028 131.04624939 625.87974548 C131.74370724 625.87683264 132.44116509 625.8739198 133.15975803 625.87091869 C137.88587879 625.88587879 137.88587879 625.88587879 139 627 C139.23148637 628.90601437 139.39877522 630.81985707 139.54077148 632.73461914 C139.63434433 633.96422867 139.72791718 635.1938382 139.82432556 636.46070862 C139.87258924 637.123519 139.92085293 637.78632938 139.97057915 638.46922493 C140.1224188 640.55334355 140.27985197 642.63697313 140.43873596 644.7205658 C140.77676549 649.1675006 141.1074477 653.6149671 141.4375 658.0625 C141.81696585 663.1690701 142.19957765 668.2753779 142.588274 673.3812542 C142.74103531 675.40562266 142.88896451 677.43035397 143.03672791 679.45509338 C143.5936118 686.80666242 144.34557298 694.09932522 145.29482174 701.40798473 C145.95197379 706.49354446 146.44048002 711.56442772 146.78125 716.6796875 C146.86977234 717.91345627 146.86977234 717.91345627 146.96008301 719.17214966 C147.14405894 721.73950277 147.32268991 724.30717861 147.5 726.875 C148.38405082 739.62432798 149.48816311 752.30862814 151 765 C153.84414769 765.81261363 156.68829984 766.62521163 159.5324707 767.43774414 C162.04410017 768.15542325 164.55565426 768.87336618 167.06713867 769.59155273 C173.47140398 771.42269511 179.87668562 773.25001764 186.28515625 775.06640625 C198.40901467 778.50763954 210.50756565 782.00576721 222.54418945 785.74243164 C226.95146256 787.10478392 231.35003684 788.37261333 235.83300781 789.45898438 C240.5814193 790.64448233 245.28746225 791.99296085 250 793.3125 C251.66059448 793.77716675 251.66059448 793.77716675 253.35473633 794.2512207 C260.61686986 796.29642283 267.83289178 798.4418863 275.01171875 800.76171875 C279.71090505 802.25246864 284.45998357 803.57122978 289.2019043 804.91821289 C294.8438412 806.5251694 300.47543664 808.16729455 306.10794067 809.8069458 C308.11565144 810.39044742 310.12401457 810.97165342 312.13256836 811.55224609 C318.25387631 813.32269481 324.37067244 815.10370803 330.46875 816.953125 C331.42515381 817.23881348 332.38155762 817.52450195 333.36694336 817.81884766 C335.10784341 818.33949361 336.8459102 818.86975397 338.58032227 819.41162109 C343.16357973 820.76887621 346.27686547 821.26617696 351 820 C352.15665161 819.69352539 352.15665161 819.69352539 353.33666992 819.38085938 C356.25342723 818.59341671 359.15781579 817.76835101 362.0625 816.9375 C364.31490546 816.29877801 366.56751809 815.66078627 368.8203125 815.0234375 C369.99625977 814.69053711 371.17220703 814.35763672 372.38378906 814.01464844 C375.97807793 813.00615097 379.57742037 812.01865212 383.1796875 811.0390625 C396.08543288 807.52746682 408.91136295 803.85461025 421.67675781 799.86181641 C429.37144141 797.46652444 437.10545168 795.29360012 444.89111328 793.21606445 C451.40881615 791.46529538 457.86429412 789.55315492 464.3125 787.5625 C481.51495578 782.26268705 498.85257538 777.45651294 516.30273438 773.04077148 C523.10567939 771.30203343 529.70515207 769.1811719 536.3125 766.8125 C539 766 539 766 543 766 C543.05607422 764.11861328 543.05607422 764.11861328 543.11328125 762.19921875 C543.54713209 749.63876523 544.41086509 737.14275781 545.5 724.625 C545.56571198 723.86706146 545.63142395 723.10912292 545.6991272 722.32821655 C546.8583893 709.03187792 546.8583893 709.03187792 547.5390625 703.328125 C548.2389211 697.2814043 548.50900283 691.19898733 548.875 685.125 C549.58320598 673.84562555 550.63575408 662.65615588 551.9621582 651.42993164 C552.79999723 644.20779139 553.35384037 637.03325971 553.65869141 629.77099609 C553.93466572 623.46980922 554.53310046 617.2303341 555.20166016 610.95996094 C555.92281908 604.08587933 556.44341018 597.20622944 556.9375 590.3125 C557.65269142 580.46150286 558.66030997 570.67888213 559.94702148 560.88598633 C560.97684305 552.89448927 561.46022979 545.09655315 562 537 C360.37 537.33 158.74 537.66 -49 538 C-48.33454994 527.35279905 -47.59791551 516.73971009 -46.66015625 506.1171875 C-46.53169524 504.64577609 -46.40339826 503.17435035 -46.2752533 501.70291138 C-45.94077441 497.86776439 -45.60390323 494.03283124 -45.26654053 490.19793701 C-44.9293091 486.35866367 -44.59472655 482.51915947 -44.25976562 478.6796875 C-43.51230316 470.11927733 -42.75733512 461.55954168 -42 453 C-41.89693542 451.83041748 -41.79387085 450.66083496 -41.68768311 449.45581055 C-41.41746016 446.39483974 -41.14482287 443.33409648 -40.87109375 440.2734375 C-40.79584976 439.41877899 -40.72060577 438.56412048 -40.64308167 437.68356323 C-40.22175171 433.01449141 -39.67733126 428.38900817 -39 423.75 C-37.86524517 415.75352454 -37.33308952 407.72514848 -36.75 399.67236328 C-36.30454124 393.62995884 -35.76922223 387.63454865 -35 381.625 C-33.85397981 372.59219517 -33.27992907 363.5264703 -32.69726562 354.44189453 C-32.5822168 352.69755127 -32.5822168 352.69755127 -32.46484375 350.91796875 C-32.399021 349.87406982 -32.33319824 348.8301709 -32.26538086 347.75463867 C-32.03617541 345.37549879 -31.5834722 343.30498702 -31 341 C-30.82264806 339.20878011 -30.68337416 337.41361158 -30.5703125 335.6171875 C-30.49876953 334.54581543 -30.42722656 333.47444336 -30.35351562 332.37060547 C-30.27810547 331.21705566 -30.20269531 330.06350586 -30.125 328.875 C-29.4766158 319.50735616 -28.63350561 310.19627486 -27.5 300.875 C-26.12590222 289.48974001 -25.1356894 278.10722927 -24.27685547 266.67285156 C-23.72121016 259.30148648 -23.14856108 251.93150825 -22.5625 244.5625 C-22.49918488 243.76569824 -22.43586975 242.96889648 -22.37063599 242.14794922 C-21.48507461 231.08972424 -20.39842598 220.07782479 -19.05712891 209.06420898 C-18.07407569 200.92512568 -17.34540988 192.78169897 -16.69897461 184.60961914 C-16.20974051 178.43833141 -15.64406437 172.28195606 -15 166.125 C-14.07428844 157.24268468 -13.40699306 148.34800659 -12.75219727 139.44213867 C-12.23438081 132.5730514 -11.55342903 125.75352844 -10.6796875 118.92163086 C-10.077148 114.07322029 -9.74236283 109.25076982 -9.5 104.375 C-9.24523642 99.25897838 -8.81560335 94.26073111 -8.0625 89.1875 C-6.99546381 81.81309433 -6.49380685 74.43288776 -6 67 C-5.02664041 52.37201334 -5.02664041 52.37201334 -4 45.5625 C-2.69958557 36.86917837 -2.25344447 28.10529944 -1.69726562 19.33813477 C-1.5822168 17.53493774 -1.5822168 17.53493774 -1.46484375 15.6953125 C-1.399021 14.62297363 -1.33319824 13.55063477 -1.26538086 12.44580078 C-0.94517448 8.28812573 -0.46049806 4.14448254 0 0 Z " fill="#F5F6F6" transform="translate(363,687)"/>
<path d="M0 0 C191.4 0 382.8 0 580 0 C580 12.39455782 580 12.39455782 579.6328125 17.3828125 C579.55281006 18.47875732 579.47280762 19.57470215 579.39038086 20.70385742 C579.30280518 21.83283447 579.21522949 22.96181152 579.125 24.125 C579.03549072 25.31134033 578.94598145 26.49768066 578.85375977 27.7199707 C578.29406706 34.90505634 577.5943709 42.0515673 576.68017578 49.19946289 C576.10018622 53.82042925 575.74807645 58.41542626 575.5 63.0625 C575.17116711 69.04608424 574.53759419 74.92095578 573.73046875 80.85742188 C572.98219769 86.59230533 572.62958306 92.31628967 572.4296875 98.09521484 C572.23538927 102.76389224 571.70731771 107.32478227 571.05859375 111.953125 C569.98436115 119.73380432 569.324254 127.51220369 568.73849487 135.34283447 C567.74392404 148.59285648 566.54625341 161.79353122 565.05712891 174.99780273 C564.03688664 184.21165512 563.33837149 193.43239392 562.70117188 202.6796875 C562.27738307 208.69107823 561.75451134 214.65424186 560.9375 220.625 C560.04302358 227.18449375 559.61683475 233.67259902 559.34375 240.28125 C559.10676372 244.38398658 558.58756109 248.44244548 558.05859375 252.515625 C557.0852877 260.03231114 556.35978754 267.55225135 555.73876953 275.10620117 C555.55553208 277.33474416 555.36798606 279.56289487 555.1796875 281.79101562 C554.58393255 288.8634899 554.00356417 295.93717046 553.43299866 303.01171875 C553.12399877 306.84130935 552.81262597 310.67070383 552.5 314.5 C552.43888031 315.25031494 552.37776062 316.00062988 552.31478882 316.77368164 C551.40223507 327.91023665 550.27580983 339.00753951 548.984375 350.10742188 C548.1948754 356.96514979 547.66566414 363.76609802 547.3125 370.66015625 C546.86659886 377.79631637 545.91006808 384.89516325 545.08813477 391.99536133 C544.21962871 399.63340441 543.6230944 407.22110484 543.26391602 414.8972168 C543.04639248 418.75390127 542.58234493 422.5502983 542.0625 426.37890625 C541.01810458 434.37568191 540.3431773 442.37959409 539.73849487 450.41992188 C538.56443993 465.96378235 537.05998106 481.44398039 535.33642578 496.93701172 C533.98255925 509.26328854 532.83789506 521.5698993 532.34130859 533.96313477 C532.19198869 537.45760334 531.86018869 540.62343233 531 544 C530.81761741 545.35335603 530.66421658 546.71083489 530.53515625 548.0703125 C530.45845703 548.87114258 530.38175781 549.67197266 530.30273438 550.49707031 C530.22345703 551.36428711 530.14417969 552.23150391 530.0625 553.125 C529.93391602 554.49543457 529.93391602 554.49543457 529.80273438 555.89355469 C529.01497661 564.46401418 528.38484129 573.04504975 527.75024414 581.62792969 C527.30000944 587.56839226 526.75192033 593.46537614 526 599.375 C525.04634924 606.92225173 524.50980225 614.47321726 524 622.0625 C523.41804183 630.71685455 522.66443028 639.25421495 521.4921875 647.84765625 C520.82813144 653.06837715 520.49901611 658.3145865 520.125 663.5625 C519.30116298 675.00439474 518.18878493 686.40368496 517 697.8125 C516.91157837 698.66318054 516.82315674 699.51386108 516.73205566 700.39031982 C516.30469108 704.50025037 515.87588502 708.61002872 515.44628906 712.71972656 C513.94164755 727.13098885 512.73512251 741.52998663 511.74951172 755.98657227 C511.2344963 763.32730568 510.48669371 770.55716074 509.4921875 777.84765625 C508.82813363 783.06835989 508.49875697 788.31458124 508.125 793.5625 C507.18079278 806.75558683 505.82325837 819.89542661 504.40869141 833.04516602 C503.46616757 841.89059699 502.72156864 850.71080132 502.21264648 859.59179688 C501.9694687 863.48934214 501.56466354 867.31544562 501.0625 871.1875 C499.48483461 883.94409358 498.33020272 896.73435822 497.3125 909.546875 C497.25202484 910.3082225 497.19154968 911.06957001 497.12924194 911.85398865 C496.87621659 915.04294912 496.62328516 918.23191691 496.37091064 921.42092896 C495.43378408 933.21486123 494.32245465 944.97442053 493.05493164 956.73803711 C492.35687918 963.29587511 491.74458203 969.8496067 491.26586914 976.42724609 C491.13426392 978.22669678 491.13426392 978.22669678 491 980.0625 C490.89885643 981.46967285 490.89885643 981.46967285 490.79566956 982.90527344 C490.23393231 990.48396812 489.48940938 998.02633995 488.64453125 1005.578125 C486.87223323 1021.78983538 485.38390854 1038.02426822 483.90790176 1054.26509094 C483.53016309 1058.4167709 483.1501489 1062.56824256 482.77026367 1066.71972656 C482.6148165 1068.41873115 482.45937523 1070.11773628 482.30393982 1071.81674194 C482.22673643 1072.6606184 482.14953304 1073.50449486 482.06999016 1074.37394333 C481.83602155 1076.93267461 481.60236819 1079.4914345 481.36878967 1082.05020142 C480.43895477 1092.2322194 479.49999599 1102.41333971 478.55020523 1112.5935154 C477.97001472 1118.81225454 477.39111073 1125.03111369 476.8125 1131.25 C476.750411 1131.91708858 476.68832199 1132.58417717 476.6243515 1133.27148056 C474.82021095 1152.66542227 473.1410461 1172.06607832 471.57156372 1191.48034668 C470.39056788 1206.03815304 468.97386328 1220.52500264 467 1235 C461.21333505 1237.25221518 455.41322183 1239.13154313 449.4375 1240.8125 C448.54289062 1241.06676758 447.64828125 1241.32103516 446.7265625 1241.58300781 C438.70094022 1243.84472363 430.63608084 1245.95119649 422.55249023 1247.99536133 C421.18072632 1248.34570435 421.18072632 1248.34570435 419.78125 1248.703125 C418.97751953 1248.90583008 418.17378906 1249.10853516 417.34570312 1249.31738281 C414.8183278 1250.05286797 412.43897305 1251.01374182 410 1252 C407.71580103 1252.5920958 405.42282108 1253.15069402 403.125 1253.6875 C396.3751287 1255.31375614 389.75410497 1257.25182649 383.125 1259.3125 C373.47587944 1262.30738996 363.7659798 1264.99088613 354.00170898 1267.58300781 C347.7292352 1269.25239048 341.50780418 1271.00850698 335.3203125 1272.97265625 C328.07412669 1275.21471139 320.7589445 1277.23006971 313.46191406 1279.29931641 C311.29322744 1279.91654475 309.1264981 1280.53987911 306.9609375 1281.16796875 C301.78418113 1282.66589936 296.61484405 1284.11423085 291.375 1285.375 C285.09814441 1286.91082637 278.93927936 1288.79254718 272.75830078 1290.66967773 C266.54898128 1292.55025739 260.31808487 1294.32373304 254.06079102 1296.03686523 C247.78865446 1297.76178778 241.55123528 1299.59590648 235.3125 1301.4375 C227.3058381 1303.79761325 219.27594985 1306.00072492 211.1875 1308.0625 C202.38759543 1310.30762596 193.74879524 1312.89362522 185.109375 1315.6875 C180.11706937 1317.29850838 175.07419635 1318.67314992 170 1320 C168.18715055 1320.49873151 166.37465875 1320.9987646 164.5625 1321.5 C160.92842725 1322.49389087 157.28625102 1323.42445188 153.625 1324.3125 C141.08109798 1327.42391173 128.63175957 1331.01348408 116.40625 1335.203125 C113.72759151 1336.0902132 111.02258722 1336.8019016 108.27734375 1337.453125 C99.37239774 1339.59153399 90.57455627 1342.09394638 81.8125 1344.75 C73.39525609 1347.30090636 64.95507432 1349.76490658 56.5 1352.1875 C55.34346924 1352.52040039 54.18693848 1352.85330078 52.99536133 1353.19628906 C47.61449653 1354.73334798 42.23159803 1356.21167225 36.796875 1357.546875 C31.38896618 1358.87697411 26.07081667 1360.42177499 20.75 1362.0625 C4.6813602 1367 4.6813602 1367 -1 1367 C-1 1306.61 -1 1246.22 -1 1184 C6.86762332 1180.62816143 6.86762332 1180.62816143 11.0625 1179.4921875 C12.48079102 1179.10256836 12.48079102 1179.10256836 13.92773438 1178.70507812 C14.94158203 1178.43115234 15.95542969 1178.15722656 17 1177.875 C19.23997631 1177.25924026 21.47954119 1176.64198242 23.71875 1176.0234375 C24.90082031 1175.69698242 26.08289063 1175.37052734 27.30078125 1175.03417969 C33.71543295 1173.24085441 40.10672454 1171.36772399 46.5 1169.5 C56.89150506 1166.4685798 67.29735821 1163.49543147 77.7253418 1160.59155273 C85.42960506 1158.44472599 93.12320747 1156.26232803 100.8125 1154.0625 C102.5605896 1153.56266602 102.5605896 1153.56266602 104.34399414 1153.05273438 C110.25813884 1151.36053337 116.17082604 1149.66337766 122.08203125 1147.9609375 C133.46757631 1144.68743569 144.86232405 1141.47795185 156.3125 1138.4375 C165.55128108 1135.98400437 174.69707206 1133.30823048 183.82739258 1130.47973633 C189.52191272 1128.72526703 195.22723394 1127.10055861 201 1125.625 C209.36292897 1123.48448842 217.65197971 1121.1074601 225.9375 1118.6875 C226.93313461 1118.39678116 226.93313461 1118.39678116 227.94888306 1118.10018921 C230.64759917 1117.31202526 233.34628216 1116.52374824 236.04484558 1115.73506165 C246.19446539 1112.77141046 256.36639447 1109.88539726 266.53515625 1106.98828125 C270.0553875 1105.98420176 273.57469758 1104.97695272 277.09375 1103.96875 C290.15912207 1100.22654718 303.23375382 1096.52063048 316.32421875 1092.8671875 C321.34994262 1091.46376621 326.37275579 1090.05027579 331.39453125 1088.6328125 C332.84667662 1088.22321504 334.29882506 1087.81362845 335.75097656 1087.40405273 C337.88475211 1086.80219168 340.01842176 1086.19996952 342.1517334 1085.59646606 C344.13340951 1085.03590482 346.11549556 1084.47681373 348.09765625 1083.91796875 C349.80707397 1083.43493286 349.80707397 1083.43493286 351.55102539 1082.94213867 C355.35483685 1081.90307104 359.17161954 1080.94419591 363 1080 C363.07287735 1079.07750458 363.1457547 1078.15500916 363.22084045 1077.20455933 C365.06312626 1053.97236566 367.05978378 1030.75852907 369.21251678 1007.5531044 C369.44191695 1005.07733061 369.67033954 1002.6014683 369.89849854 1000.12557983 C371.76259219 979.90466846 373.63761491 959.68545777 375.84545898 939.49853516 C376.66353157 931.93603132 377.27818032 924.39033285 377.64498901 916.79328918 C377.85172166 912.70482129 378.27218101 908.72610299 378.9375 904.6875 C380.25375644 896.30245896 380.7027766 887.85436634 381.21459961 879.38745117 C381.5756743 873.74195146 382.07091378 868.21116596 383 862.62890625 C384.22893242 855.11478105 384.615191 847.59188589 385 840 C385.44231281 831.273623 386.10790788 822.73222321 387.54052734 814.09814453 C388.31155939 808.89920902 388.53473367 803.68189421 388.8125 798.4375 C390.0136417 778.35978402 392.12104166 758.36294732 394.09115601 738.3493042 C394.72871424 731.84975729 395.34306563 725.34879088 395.921875 718.84375 C395.9893544 718.08653152 396.0568338 717.32931305 396.12635803 716.54914856 C396.42632083 713.16947435 396.72162482 709.78949713 397.01147461 706.40893555 C397.54304283 700.36914207 398.19664925 694.37371845 399.02734375 688.3671875 C399.91587214 681.8929081 400.47570749 675.45774787 400.875 668.9375 C401.76920872 655.48515797 402.89796947 642.05634612 404.0625 628.625 C404.15053894 627.59865448 404.23857788 626.57230896 404.32928467 625.51486206 C404.58273926 622.56435659 404.83961279 619.61416981 405.09765625 616.6640625 C405.21164009 615.33443733 405.21164009 615.33443733 405.32792664 613.97795105 C405.71514583 609.60677845 406.24941629 605.32663601 407 601 C407.1101747 599.67000078 407.19521711 598.33749087 407.24609375 597.00390625 C407.27896484 596.27880859 407.31183594 595.55371094 407.34570312 594.80664062 C407.40545893 593.34580184 407.46287264 591.88486475 407.51757812 590.42382812 C407.87072685 582.80780934 408.97696652 575.67275108 410 568 C411.485 552.655 411.485 552.655 413 537 C207.74 537 2.48 537 -209 537 C-209 510.46192628 -209 510.46192628 -208.66796875 501.1484375 C-208.63177933 500.06026733 -208.5955899 498.97209717 -208.55830383 497.85095215 C-208.43981172 494.35876801 -208.31434944 490.86688989 -208.1875 487.375 C-208.14431641 486.15266663 -208.10113281 484.93033325 -208.05664062 483.67095947 C-207.34862213 463.79225002 -206.37656984 443.93635068 -205.14135742 424.08349609 C-203.7776239 401.72566289 -202.95311211 379.39813458 -202 357 C-61.42 357 79.16 357 224 357 C229 445.33333333 229 445.33333333 229 460 C289.06 460 349.12 460 411 460 C409.515 450.1 409.515 450.1 408 440 C407.42179587 436.02273415 406.84643972 432.04548483 406.28125 428.06640625 C406.06523132 426.55215309 406.06523132 426.55215309 405.84484863 425.00730896 C405.39588972 421.8591352 404.94791128 418.71082296 404.5 415.5625 C404.20189035 413.47069351 403.90371344 411.37889661 403.60546875 409.28710938 C403.45859619 408.25661469 403.31172363 407.22612 403.16040039 406.16439819 C402.8680865 404.11393905 402.57560846 402.06350331 402.28295898 400.01309204 C401.56586787 394.98589578 400.85298758 389.95816951 400.1484375 384.92919922 C400.01280396 383.96618393 399.87717041 383.00316864 399.73742676 382.01097107 C399.4820278 380.19697526 399.2282668 378.38274779 398.97644043 376.56825256 C398.86239868 375.76060959 398.74835693 374.95296661 398.63085938 374.12084961 C398.48360413 373.06709389 398.48360413 373.06709389 398.33337402 371.99205017 C398.02452921 369.98065241 398.02452921 369.98065241 397.48522949 367.96070862 C396.68702189 364.73532237 396.50007245 361.4261729 396.1875 358.125 C394.38687626 340.21334443 392.21398654 322.2744278 388.65625 304.62109375 C387.75195114 299.6313018 387.17776073 294.62041706 386.64599609 289.57885742 C386.25361062 285.77632425 386.25361062 285.77632425 385.50219727 282.03393555 C384.9943361 279.97706078 384.73556389 278.01799331 384.53515625 275.91015625 C384.41817383 274.73163086 384.41817383 274.73163086 384.29882812 273.52929688 C384.14464902 271.91997287 383.99097932 270.31059997 383.83789062 268.70117188 C383.28549347 263.14576313 382.50170448 257.65662835 381.63110352 252.14282227 C380.79550338 246.74856394 380.05799732 241.34036414 379.30859375 235.93359375 C379.15733536 234.84454239 379.00607697 233.75549103 378.85023499 232.63343811 C378.21729299 228.07250021 377.58567106 223.5113831 376.95629883 218.94995117 C376.49230211 215.59006487 376.0256339 212.23055816 375.55859375 208.87109375 C375.41691269 207.83883163 375.27523163 206.80656952 375.1292572 205.74302673 C374.99564285 204.78425125 374.8620285 203.82547577 374.72436523 202.83764648 C374.60826401 201.99749496 374.49216278 201.15734344 374.37254333 200.29173279 C374.02811913 198.17297727 373.52061914 196.08247657 373 194 C372.67 188.39 372.34 182.78 372 177 C249.24 177 126.48 177 0 177 C0 118.59 0 60.18 0 0 Z " fill="#F1BF22" transform="translate(711,510)"/>
<path d="M0 0 C23.45181246 -0.02332637 46.90362319 -0.04097789 70.35544491 -0.05181217 C81.24372177 -0.05697569 92.13199143 -0.06401944 103.02026367 -0.07543945 C112.50683569 -0.0853846 121.99340249 -0.09185302 131.47997957 -0.09408849 C136.50632755 -0.09539589 141.53266062 -0.09848356 146.55900383 -0.10573006 C151.28421897 -0.11248761 156.00941298 -0.11461751 160.73463249 -0.11310768 C162.47416295 -0.11338413 164.21369407 -0.11539082 165.95322037 -0.11920547 C168.31758985 -0.12413859 170.68187825 -0.12299972 173.04624939 -0.12025452 C173.74370724 -0.12316736 174.44116509 -0.1260802 175.15975803 -0.12908131 C179.88587879 -0.11412121 179.88587879 -0.11412121 181 1 C181.23148637 2.90601437 181.39877522 4.81985707 181.54077148 6.73461914 C181.63434433 7.96422867 181.72791718 9.1938382 181.82432556 10.46070862 C181.87258924 11.123519 181.92085293 11.78632938 181.97057915 12.46922493 C182.1224188 14.55334355 182.27985197 16.63697313 182.43873596 18.7205658 C182.77676549 23.1675006 183.1074477 27.6149671 183.4375 32.0625 C183.81696585 37.1690701 184.19957765 42.2753779 184.588274 47.3812542 C184.74103531 49.40562266 184.88896451 51.43035397 185.03672791 53.45509338 C185.5936118 60.80666242 186.34557298 68.09932522 187.29482174 75.40798473 C187.95197379 80.49354446 188.44048002 85.56442772 188.78125 90.6796875 C188.86977234 91.91345627 188.86977234 91.91345627 188.96008301 93.17214966 C189.14405894 95.73950277 189.32268991 98.30717861 189.5 100.875 C190.38405082 113.62432798 191.48816311 126.30862814 193 139 C195.84414769 139.81261363 198.68829984 140.62521163 201.5324707 141.43774414 C204.04410017 142.15542325 206.55565426 142.87336618 209.06713867 143.59155273 C215.47140398 145.42269511 221.87668562 147.25001764 228.28515625 149.06640625 C240.40901467 152.50763954 252.50756565 156.00576721 264.54418945 159.74243164 C268.95146256 161.10478392 273.35003684 162.37261333 277.83300781 163.45898438 C282.5814193 164.64448233 287.28746225 165.99296085 292 167.3125 C293.10706299 167.62227783 294.21412598 167.93205566 295.35473633 168.2512207 C302.61686986 170.29642283 309.83289178 172.4418863 317.01171875 174.76171875 C321.71090505 176.25246864 326.45998357 177.57122978 331.2019043 178.91821289 C336.84381388 180.52516162 342.47543926 182.16711026 348.10794067 183.80667114 C350.11579391 184.39049631 352.12410793 184.97271068 354.13256836 185.55444336 C360.2493926 187.32646682 366.36415557 189.1041036 372.46875 190.91796875 C373.42515381 191.19914551 374.38155762 191.48032227 375.36694336 191.77001953 C377.10664278 192.28148265 378.844592 192.79895524 380.58032227 193.32373047 C384.8481356 194.56968331 388.50071211 195.28075556 393 195 C392.34 195.99 391.68 196.98 391 198 C390.81132398 200.47416229 390.73900034 202.83442262 390.75949097 205.30815125 C390.75778212 206.0580046 390.75607327 206.80785796 390.75431263 207.58043414 C390.75101094 210.10018721 390.76203252 212.61967565 390.77294922 215.1394043 C390.77351319 216.94277948 390.77319706 218.74615512 390.77206421 220.54953003 C390.77148913 225.45212861 390.78326852 230.35462982 390.79721212 235.25720572 C390.80969366 240.37815597 390.81088795 245.49910831 390.81326294 250.62007141 C390.8194853 260.32042653 390.83590633 270.02073671 390.85596192 279.72107202 C390.87829742 290.76324685 390.88930843 301.80542381 390.89935279 312.8476156 C390.9202719 335.56510201 390.95546255 358.28254849 391 381 C389.55664554 380.68134908 388.1134171 380.36212727 386.67024231 380.04266357 C385.4646754 379.77610521 385.4646754 379.77610521 384.23475361 379.50416183 C381.81087825 378.95733401 379.40980904 378.35364739 377.01171875 377.703125 C376.15126953 377.46980469 375.29082031 377.23648437 374.40429688 376.99609375 C373.50775391 376.74988281 372.61121094 376.50367188 371.6875 376.25 C370.73037109 375.98832031 369.77324219 375.72664063 368.78710938 375.45703125 C361.67115741 373.49627454 354.60203429 371.40222874 347.54174805 369.25097656 C341.39002414 367.3875888 335.20699739 365.66921353 329 364 C322.02845157 362.12423887 315.09431542 360.16427227 308.1875 358.0625 C299.77817812 355.50524997 291.33089916 353.1067502 282.86254883 350.75292969 C274.68840093 348.47931737 266.52993951 346.1540011 258.375 343.8125 C249.99453253 341.40736889 241.60695555 339.06922973 233.171875 336.86328125 C228.78724843 335.66992845 224.46364895 334.29908789 220.12890625 332.9375 C216.13523579 331.74089462 212.10671263 330.75315135 208.046875 329.80859375 C205.57794092 329.15337663 203.21134869 328.41315368 200.796875 327.58984375 C195.75329654 325.88114496 190.64438047 324.49424929 185.5 323.125 C178.87391208 321.34026766 172.26319904 319.52512827 165.6875 317.5625 C157.56334826 315.13912498 149.39992602 312.86383654 141.23266602 310.59057617 C135.1809105 308.90234586 129.14469153 307.17398827 123.125 305.375 C117.27894748 303.63024789 111.40538447 302.03157548 105.5 300.5 C98.09578422 298.57947551 90.75640198 296.49520817 83.42578125 294.3125 C70.21631786 290.3809348 56.9427716 286.67185024 43.6340332 283.09204102 C37.72378654 281.4962018 31.85490425 279.7881935 26 278 C23.90020759 262.20688048 22.30607384 246.40838932 21.3515625 230.50341797 C20.61769332 218.34554646 19.54001546 206.3271941 18 194.25 C16.07218893 179.10877867 14.76918596 163.9780944 13.79101562 148.74560547 C12.81920769 133.6268595 11.47291432 118.60564337 9.73205566 103.55911255 C8.46181961 92.57122124 7.38661252 81.59820994 6.68359375 70.55615234 C6.34777179 65.52995988 5.81945239 60.61788845 5.0078125 55.64453125 C3.90695638 48.8201348 3.41803942 42.02026973 3 35.125 C2.42481864 26.31136242 1.73450961 17.61263825 0.3671875 8.8828125 C-0.01402333 5.88990197 -0.02452764 3.01376826 0 0 Z " fill="#EBECED" transform="translate(321,1313)"/>
<path d="M0 0 C122.76 0 245.52 0 372 0 C372.86350768 3.45403072 373.21172517 6.33368373 373.41796875 9.859375 C373.9359893 17.0814867 375.0800819 24.12040805 376.3125 31.25 C378.49186561 44.14200505 380.20161742 57.05492989 381.65551758 70.04785156 C382.35406106 76.17138301 383.13435224 82.1349952 384.5871582 88.12597656 C385.19482723 90.88438427 385.35649664 93.62124648 385.5 96.4375 C385.81205181 101.17849772 386.45898489 105.61696008 387.46875 110.25 C388.24413478 114.26375649 388.6968812 118.3076613 389.18383789 122.36499023 C389.85015744 127.87807399 390.58980498 133.37759419 391.375 138.875 C391.4985083 139.7410083 391.6220166 140.6070166 391.74926758 141.49926758 C392.47965981 146.56007013 393.24843109 151.61354187 394.046875 156.6640625 C394.31491943 158.36780029 394.31491943 158.36780029 394.58837891 160.10595703 C394.93492171 162.2977851 395.2858468 164.48892684 395.64208984 166.67919922 C396.46566132 171.88531822 397.10405109 177.01922481 397.4296875 182.28125 C397.8088232 187.79408808 398.70269942 193.08499513 399.7776947 198.5015564 C401.56534005 207.64900068 402.71157346 216.88890099 403.9375 226.125 C404.19775522 228.06449666 404.45833818 230.00394936 404.71923828 231.94335938 C405.23839715 235.8073225 405.75517786 239.67159218 406.27001953 243.53613281 C406.9307707 248.49138654 407.60244165 253.4450948 408.27734375 258.3984375 C408.64367571 261.09889797 409.00929066 263.79945509 409.375 266.5 C409.54249756 267.72605957 409.70999512 268.95211914 409.88256836 270.21533203 C410.03218018 271.33020996 410.18179199 272.44508789 410.3359375 273.59375 C410.46532715 274.54958984 410.5947168 275.50542969 410.72802734 276.49023438 C411 279 411 279 411 283 C350.94 283 290.88 283 229 283 C228.39907483 276.99074826 227.84806273 271.1444787 227.5703125 265.13671875 C226.2322015 236.74294232 224.60665532 208.38424393 223 180 C112.615 179.505 112.615 179.505 0 179 C0 119.93 0 60.86 0 0 Z " fill="#FEFEFE" transform="translate(711,687)"/>
<path d="M0 0 C201.3 0 402.6 0 610 0 C610 16.84703434 610 16.84703434 609.1953125 23.06640625 C609.02315669 24.4587357 608.85103904 25.85106987 608.67895508 27.2434082 C608.58836823 27.94825348 608.49778137 28.65309875 608.40444946 29.37930298 C606.64882412 43.09511399 605.38828682 56.77782255 604.59619141 70.58227539 C604.49636963 72.31465454 604.49636963 72.31465454 604.39453125 74.08203125 C604.34143799 75.08468018 604.28834473 76.0873291 604.23364258 77.12036133 C604 80 604 80 603.50439453 82.95825195 C602.97040652 86.17846332 602.72602911 89.32778213 602.53515625 92.5859375 C602.45716797 93.84792969 602.37917969 95.10992188 602.29882812 96.41015625 C602.14360996 99.01422967 601.98991606 101.61839449 601.83789062 104.22265625 C601.38582765 111.49241699 600.70811157 118.67498525 599.75474548 125.89624023 C598.8449242 132.91987599 598.30592475 139.95942716 597.79534912 147.021698 C597.49204443 151.21172569 597.17426928 155.40067404 596.859375 159.58984375 C596.79245453 160.4852034 596.72553406 161.38056305 596.65658569 162.30305481 C595.85026656 173.066222 594.9993772 183.82583411 594.14178467 194.58502197 C593.87890522 197.8884261 593.6183848 201.19201098 593.35791016 204.49560547 C593.19449143 206.54786395 593.03092425 208.60011062 592.8671875 210.65234375 C592.79437561 211.58099747 592.72156372 212.50965118 592.64654541 213.46644592 C592.228369 218.66701425 591.68759633 223.82796515 591 229 C589.97003906 229.30292969 588.94007813 229.60585937 587.87890625 229.91796875 C587.20021484 230.1176123 586.52152344 230.31725586 585.82226562 230.52294922 C584.28847336 230.97400611 582.754617 231.42484511 581.22070312 231.87548828 C577.46727616 232.97849576 573.71452605 234.08354147 569.96484375 235.19921875 C555.24534425 239.57035344 540.44695106 243.66363332 525.6484375 247.7578125 C514.50985105 250.84696225 503.42009873 254.0507022 492.37133789 257.44750977 C483.57872981 260.14590224 474.7436888 262.67808516 465.89355469 265.18017578 C460.40535771 266.73513405 454.92184758 268.30653031 449.4375 269.875 C442.07228407 271.98021787 434.7066671 274.08400693 427.33984375 276.18359375 C426.08953369 276.54018066 424.83922363 276.89676758 423.55102539 277.26416016 C421.17146239 277.942771 418.79175188 278.62086489 416.41186523 279.29833984 C415.32462158 279.60852051 414.23737793 279.91870117 413.1171875 280.23828125 C412.08303711 280.5317041 411.04888672 280.82512695 409.98339844 281.12744141 C408.02020319 281.70161979 406.06452326 282.30226265 404.11816406 282.93115234 C403.23612305 283.21555176 402.35408203 283.49995117 401.4453125 283.79296875 C400.29699951 284.17811646 400.29699951 284.17811646 399.12548828 284.57104492 C396.73988428 285.05249521 395.2868825 284.76413128 393 284 C393.66 284 394.32 284 395 284 C395 190.61 395 97.22 395 1 C264.65 1 134.3 1 0 1 C0 0.67 0 0.34 0 0 Z " fill="#F1BF23" transform="translate(315,1224)"/>
<path d="M0 0 C73.59 0 147.18 0 223 0 C223 31.68 223 63.36 223 96 C194.95 96.33 166.9 96.66 138 97 C142.60705784 101.60705784 146.96248288 105.8626483 151.8427124 110.06976318 C155.77665529 113.5896654 159.46624439 117.35832073 163.18146133 121.10629654 C164.66830831 122.60611805 166.15844142 124.10260809 167.64938354 125.59835815 C170.8107768 128.77107163 173.96818448 131.94773255 177.125 135.125 C180.79475401 138.81847124 184.46618647 142.5102424 188.14187241 146.19781113 C189.60066915 147.6630277 191.05639116 149.1312508 192.51199341 150.59963989 C196.86308937 154.96680042 201.22124986 159.11097135 206 163 C211.66666667 168.66666667 217.33333333 174.33333333 223 180 C223 209.04 223 238.08 223 268 C149.74 268 76.48 268 1 268 C1 239.29 1 210.58 1 181 C29.05 180.67 57.1 180.34 86 180 C81.91816503 175.90552822 81.91816503 175.90552822 77.625 172.1875 C74.40777689 169.46735857 71.74681527 166.48257662 69.01953125 163.28125 C63.17974618 156.68466493 56.84495644 150.54115521 50 145 C48.31126121 143.35570171 46.64694485 141.68615782 45 140 C43.60724551 138.58030635 42.21120767 137.16382884 40.8125 135.75 C40.13832031 135.06421875 39.46414063 134.3784375 38.76953125 133.671875 C37.09201005 131.92550889 37.09201005 131.92550889 35 131 C35 130.34 35 129.68 35 129 C34.34 129 33.68 129 33 129 C33 128.34 33 127.68 33 127 C32.34 127 31.68 127 31 127 C29.66796875 125.64453125 29.66796875 125.64453125 28.1875 123.8125 C25.59574169 120.62317811 22.95865106 117.95865106 20 115 C1 96 1 96 0 0 Z " fill="#000000" transform="translate(753,1)"/>
<path d="M0 0 C30.69 0 61.38 0 93 0 C93 89.43 93 178.86 93 271 C20.73 271 -51.54 271 -126 271 C-126 240.31 -126 209.62 -126 178 C-84.42 178 -42.84 178 0 178 C0 119.26 0 60.52 0 0 Z " fill="#000000" transform="translate(571,0)"/>
<path d="M0 0 C66.33 0 132.66 0 201 0 C201 59.4 201 118.8 201 180 C132.36 180 63.72 180 -7 180 C-7 153.46192628 -7 153.46192628 -6.66796875 144.1484375 C-6.63177933 143.06026733 -6.5955899 141.97209717 -6.55830383 140.85095215 C-6.43981172 137.35876801 -6.31434944 133.86688989 -6.1875 130.375 C-6.14431641 129.15266663 -6.10113281 127.93033325 -6.05664062 126.67095947 C-5.34862213 106.79225002 -4.37656984 86.93635068 -3.14135742 67.08349609 C-1.7776239 44.72566289 -0.95311211 22.39813458 0 0 Z " fill="#E6A42B" transform="translate(509,867)"/>
</svg>
