<?xml version="1.0" encoding="UTF-8"?>
<svg version="1.1" xmlns="http://www.w3.org/2000/svg" width="512" height="512">
<path d="M0 0 C9.06492634 8.51942635 14.76089361 19.82515336 15.41363525 32.3092804 C15.46048914 34.5139892 15.47727703 36.71666806 15.48046875 38.921875 C15.48379715 39.73311829 15.48712555 40.54436157 15.49055481 41.38018799 C15.49559874 43.09134356 15.49796392 44.80250888 15.49780273 46.51367188 C15.49998152 49.10303376 15.51814295 51.69196375 15.53710938 54.28125 C15.59078998 69.18494749 14.28214934 82.80198925 4.33203125 94.75390625 C3.15344949 95.91790761 1.94506653 97.05339504 0.6953125 98.140625 C-0.82736285 99.34685907 -0.82736285 99.34685907 -1.6875 101.375 C-0.39972656 101.74238281 -0.39972656 101.74238281 0.9140625 102.1171875 C17.73991444 108.34468672 29.66520281 123.8261176 36.95361328 139.54711914 C40.72899262 148.18044336 42.51470075 156.95482375 42.3125 166.375 C46.2725 166.375 50.2325 166.375 54.3125 166.375 C55.5374579 151.37953204 55.5374579 151.37953204 51.16015625 137.62890625 C48.66350357 135.22024133 46.19111619 133.2984993 43.3125 131.375 C40.66637118 128.98435948 39.46816941 127.86276416 38.375 124.4375 C38.30028109 120.77627319 39.09886056 119.2445326 41.3125 116.375 C44.4634035 114.79954825 46.95627581 114.43203128 50.3125 115.375 C53.37973943 117.5534079 56.07863794 120.04046424 58.66503906 122.77099609 C60.3926969 124.5124162 60.3926969 124.5124162 62.84277344 126.34228516 C67.13346408 129.94625236 69.93278387 132.57995733 71.11743164 138.18017578 C71.41401037 142.46782413 71.18962297 146.71581236 70.9375 151 C70.88723526 152.49594347 70.84162615 153.99205096 70.80078125 155.48828125 C70.69161555 159.12064803 70.51970112 162.74674896 70.3125 166.375 C71.33585449 166.36194824 72.35920898 166.34889648 73.41357422 166.33544922 C74.77310966 166.324892 76.13264761 166.31465503 77.4921875 166.3046875 C78.50091919 166.2905481 78.50091919 166.2905481 79.5300293 166.27612305 C85.57894066 166.24290755 91.28722304 166.6347129 95.9296875 170.83984375 C101.0389979 176.74297356 100.55896131 181.57371221 100.625 189.0625 C100.65400391 190.13951172 100.68300781 191.21652344 100.71289062 192.32617188 C100.7653703 198.91035231 100.37578007 203.09345253 96.3125 208.375 C94.453125 209.8984375 94.453125 209.8984375 92.5625 210.75 C91.94890625 211.04648437 91.3353125 211.34296875 90.703125 211.6484375 C87.2819509 212.6882061 83.86348406 212.95578035 80.3125 213.375 C79.16702938 220.95465001 78.02841363 228.53530706 76.89453125 236.11669922 C76.50808502 238.69506071 76.12007692 241.27318862 75.73046875 243.85107422 C75.17035577 247.55896496 74.61588633 251.26766263 74.0625 254.9765625 C73.88750977 256.12677887 73.71251953 257.27699524 73.53222656 258.46206665 C73.29197754 260.08306778 73.29197754 260.08306778 73.046875 261.73681641 C72.90475586 262.68279694 72.76263672 263.62877747 72.61621094 264.60342407 C71.98512022 270.3625708 72.15348177 273.81145081 75.1875 278.8125 C80.60265271 288.24123649 81.4652742 297.68008905 81.48046875 308.3359375 C81.48379715 309.16654694 81.48712555 309.99715637 81.49055481 310.85293579 C81.49558646 312.59921724 81.49796431 314.34550818 81.49780273 316.09179688 C81.4999883 318.73584113 81.51818173 321.37946684 81.53710938 324.0234375 C81.59551958 341.06142365 79.46817375 356.37241455 67.3125 369.375 C64.72877097 371.81830898 62.04774843 374.1050582 59.3125 376.375 C58.6525 377.035 57.9925 377.695 57.3125 378.375 C58.11171875 378.75269531 58.9109375 379.13039063 59.734375 379.51953125 C73.67856206 386.50799119 84.67818924 396.72381719 92.3125 410.375 C92.91835938 409.46878906 93.52421875 408.56257813 94.1484375 407.62890625 C102.8896121 394.81239475 113.42375889 383.90815873 128.3125 378.375 C127.51585937 377.67375 126.71921875 376.9725 125.8984375 376.25 C114.83255279 366.39834448 105.15209564 355.70198122 104.16532898 340.03894043 C104.15548477 339.23653931 104.14564056 338.43413818 104.13549805 337.60742188 C104.12266281 336.68876343 104.10982758 335.77010498 104.09660339 334.8236084 C104.08552299 333.34857849 104.08552299 333.34857849 104.07421875 331.84375 C104.066147 330.81624634 104.05807526 329.78874268 104.04975891 328.73010254 C104.03594532 326.55478589 104.02521101 324.37944781 104.01733398 322.20410156 C104.00585223 319.99895797 103.98546139 317.79384132 103.95581055 315.58886719 C103.69641626 296.28065773 105.18941261 281.01656561 118.8125 266.1875 C129.32371415 256.10499096 142.42078189 251.93792661 156.73291016 252.01147461 C170.34755133 252.34307174 181.76083681 257.93984701 191.625 267.1875 C202.16550804 278.37599009 205.44442894 291.1901132 205.515625 306.1640625 C205.52132507 307.10373871 205.52702515 308.04341492 205.53289795 309.01156616 C205.54231841 310.99679449 205.54887015 312.98203824 205.55273438 314.96728516 C205.56240134 317.96936153 205.59343723 320.97074135 205.625 323.97265625 C205.72550511 342.09091719 203.41678215 356.54119487 190.60546875 370.16796875 C187.69001513 372.97415494 184.71987096 375.20008236 181.3125 377.375 C184.38144897 379.80245845 187.57505228 381.67765949 191 383.5625 C207.35592249 393.09022184 217.80617615 408.00018614 223.1875 426.0625 C224.33714534 431.25668074 224.68418062 436.38489014 224.8125 441.6875 C224.84327637 442.4405542 224.87405273 443.1936084 224.90576172 443.96948242 C224.90684706 448.8735825 223.85346797 451.89539138 220.97460938 455.85620117 C215.26900331 461.06985795 209.25469226 460.79449437 201.97045898 460.73144531 C200.83644653 460.73348969 199.70243408 460.73553406 198.53405762 460.73764038 C194.79207137 460.74064423 191.05052751 460.7221825 187.30859375 460.703125 C184.7059795 460.7000666 182.10336362 460.69819109 179.50074768 460.69744873 C174.04935018 460.69376183 168.59807902 460.67882334 163.14672852 460.65625 C156.15680322 460.62736395 149.1669795 460.61702396 142.177001 460.6125679 C136.80417251 460.60901126 131.4313666 460.59859389 126.05854988 460.58669281 C123.48092906 460.5809935 120.90330599 460.57623368 118.32568169 460.57242584 C114.72546281 460.5655555 111.12533593 460.55191947 107.52514648 460.53613281 C105.92519585 460.53445602 105.92519585 460.53445602 104.29292297 460.53274536 C103.31026459 460.52703522 102.3276062 460.52132507 101.31517029 460.51544189 C100.46477393 460.51246723 99.61437757 460.50949257 98.73821163 460.50642776 C96.3125 460.375 96.3125 460.375 93.62483311 459.80372238 C91.29664388 459.13177236 91.29664388 459.13177236 89.3125 460.375 C87.75034704 460.46961245 86.18418646 460.50130003 84.61917114 460.50198364 C83.13441284 460.50621338 83.13441284 460.50621338 81.61965942 460.51052856 C80.52974701 460.50850433 79.43983459 460.5064801 78.31689453 460.50439453 C77.17210632 460.50614685 76.02731812 460.50789917 74.84783936 460.50970459 C71.04698184 460.51412149 67.24617052 460.51118527 63.4453125 460.5078125 C60.81216422 460.50848568 58.17901599 460.50945582 55.54586792 460.51071167 C50.01934302 460.51253253 44.49283147 460.51012978 38.96630859 460.50537109 C32.57818884 460.49993401 26.19010102 460.50168743 19.80198205 460.5071975 C13.65851997 460.51228442 7.51507204 460.51174303 1.37160873 460.50881577 C-1.24312469 460.50814764 -3.85785892 460.50897095 -6.4725914 460.51129532 C-10.12611816 460.51382963 -13.77958331 460.50996988 -17.43310547 460.50439453 C-19.0619014 460.50743088 -19.0619014 460.50743088 -20.72360229 460.51052856 C-22.21682007 460.50629883 -22.21682007 460.50629883 -23.74020386 460.50198364 C-24.60409163 460.50160662 -25.46797939 460.50122959 -26.35804558 460.50084114 C-28.6875 460.375 -28.6875 460.375 -30.87170601 459.80456352 C-32.77201374 459.15012651 -32.77201374 459.15012651 -34.6875 460.375 C-36.24965296 460.46961245 -37.81581354 460.50130003 -39.38082886 460.50198364 C-40.86558716 460.50621338 -40.86558716 460.50621338 -42.38034058 460.51052856 C-43.47025299 460.50850433 -44.56016541 460.5064801 -45.68310547 460.50439453 C-46.82789368 460.50614685 -47.97268188 460.50789917 -49.15216064 460.50970459 C-52.95301816 460.51412149 -56.75382948 460.51118527 -60.5546875 460.5078125 C-63.18783578 460.50848568 -65.82098401 460.50945582 -68.45413208 460.51071167 C-73.98065698 460.51253253 -79.50716853 460.51012978 -85.03369141 460.50537109 C-91.42181116 460.49993401 -97.80989898 460.50168743 -104.19801795 460.5071975 C-110.34148003 460.51228442 -116.48492796 460.51174303 -122.62839127 460.50881577 C-125.24312469 460.50814764 -127.85785892 460.50897095 -130.4725914 460.51129532 C-134.12611816 460.51382963 -137.77958331 460.50996988 -141.43310547 460.50439453 C-143.0619014 460.50743088 -143.0619014 460.50743088 -144.72360229 460.51052856 C-146.21682007 460.50629883 -146.21682007 460.50629883 -147.74020386 460.50198364 C-148.60409163 460.50160662 -149.46797939 460.50122959 -150.35804558 460.50084114 C-152.6875 460.375 -152.6875 460.375 -154.80920601 459.80456352 C-156.89662935 459.15594818 -156.89662935 459.15594818 -159.6875 460.375 C-161.64427522 460.48368657 -163.60450139 460.53388646 -165.56420898 460.55200195 C-166.77233749 460.56483719 -167.980466 460.57767242 -169.22520447 460.59089661 C-170.53147293 460.59828354 -171.83774139 460.60567047 -173.18359375 460.61328125 C-174.18145747 460.61939454 -174.18145747 460.61939454 -175.19948006 460.62563133 C-178.71835136 460.64646467 -182.23718394 460.66078004 -185.75610352 460.67016602 C-189.38906896 460.68124523 -193.0214244 460.71566913 -196.65417385 460.75533772 C-199.45002888 460.78147947 -202.24573768 460.78985543 -205.04170418 460.79344749 C-207.03150778 460.80068276 -209.0212115 460.8271273 -211.010849 460.85383606 C-212.82777 460.84944771 -212.82777 460.84944771 -214.68139648 460.8449707 C-215.74712387 460.85083694 -216.81285126 460.85670319 -217.91087341 460.86274719 C-221.38580321 460.25233481 -222.58688378 459.16543735 -224.6875 456.375 C-224.6875 455.385 -224.6875 454.395 -224.6875 453.375 C-231.2875 453.375 -237.8875 453.375 -244.6875 453.375 C-245.0175 455.025 -245.3475 456.675 -245.6875 458.375 C-250.71096523 461.72397682 -256.536997 460.74405191 -262.4375 460.75 C-263.70078125 460.77449219 -264.9640625 460.79898437 -266.265625 460.82421875 C-278.23163556 460.86192677 -278.23163556 460.86192677 -283.6875 456.375 C-287.83187025 451.68567197 -288.33613748 447.92611068 -288.1875 441.9375 C-288.17468994 441.14835205 -288.16187988 440.3592041 -288.14868164 439.54614258 C-287.52742832 421.20534338 -279.44103349 405.38324029 -266.6875 392.375 C-259.96584712 386.52352147 -252.83771294 381.96325747 -244.6875 378.375 C-245.6465625 377.6634375 -245.6465625 377.6634375 -246.625 376.9375 C-258.58964244 366.92626857 -266.52773947 356.04730617 -268.6875 340.375 C-268.85093822 337.11224696 -268.87509414 333.85238611 -268.890625 330.5859375 C-268.89917511 329.17642319 -268.89917511 329.17642319 -268.90789795 327.73843384 C-268.91731841 325.75320551 -268.92387015 323.76796176 -268.92773438 321.78271484 C-268.93740134 318.78063847 -268.96843723 315.77925865 -269 312.77734375 C-269.09931774 294.87313102 -266.90744895 280.14542559 -254.13671875 266.69921875 C-247.15738213 260.07608432 -239.88712383 256.10843456 -230.6875 253.375 C-230.08550781 253.18292969 -229.48351562 252.99085938 -228.86328125 252.79296875 C-215.0976037 250.14857468 -200.79518114 252.93398893 -189.09375 260.5703125 C-177.66972505 269.13833121 -170.24590719 280.1705683 -167.6875 294.375 C-167.39462062 297.98442018 -167.35988711 301.5790851 -167.3515625 305.19921875 C-167.3415773 306.73410698 -167.3415773 306.73410698 -167.33139038 308.30000305 C-167.32130678 310.45738948 -167.31657202 312.61480683 -167.31689453 314.7722168 C-167.31253602 318.03553021 -167.27620965 321.29747344 -167.23828125 324.56054688 C-167.13907999 342.8498832 -169.50274063 357.26786253 -182.8125 370.8125 C-185.64174548 373.55801392 -188.48237735 376.0782416 -191.6875 378.375 C-190.94886719 378.70371094 -190.21023437 379.03242188 -189.44921875 379.37109375 C-174.56013812 386.35212393 -164.37063056 396.63466153 -155.6875 410.375 C-155.30980469 409.70855469 -154.93210938 409.04210937 -154.54296875 408.35546875 C-146.35906042 394.65173467 -135.1397986 385.0152453 -120.6875 378.375 C-122.53856552 376.44680675 -124.39786258 374.60620731 -126.48828125 372.9375 C-137.27165289 364.22704835 -143.06213078 351.99994548 -144.6875 338.375 C-144.83214214 335.34715493 -144.85129149 332.32393889 -144.85546875 329.29296875 C-144.85879715 328.43874832 -144.86212555 327.58452789 -144.86555481 326.704422 C-144.87059411 324.90508559 -144.87296407 323.10573994 -144.87280273 321.30639648 C-144.87498514 318.58105757 -144.89316169 315.85612666 -144.91210938 313.13085938 C-144.94917942 302.09492925 -144.66511952 292.2169131 -140.1875 281.9375 C-139.7646875 280.94878906 -139.341875 279.96007812 -138.90625 278.94140625 C-137.6875 276.375 -137.6875 276.375 -135.6875 273.375 C-135.14132345 261.13252468 -138.40986205 248.11617291 -140.25 236.0625 C-140.58311054 233.85748653 -140.91579636 231.65240885 -141.24804688 229.44726562 C-142.05630128 224.08909345 -142.86980052 218.73173847 -143.6875 213.375 C-144.44748291 213.24440186 -145.20746582 213.11380371 -145.99047852 212.97924805 C-146.98490967 212.80433838 -147.97934082 212.62942871 -149.00390625 212.44921875 C-150.48419312 212.19144653 -150.48419312 212.19144653 -151.99438477 211.9284668 C-156.80590265 210.93964339 -158.8946838 209.45571036 -161.78515625 205.515625 C-164.6301328 200.38645736 -164.27110923 195.03624886 -164.1875 189.3125 C-164.21070313 187.71825195 -164.21070313 187.71825195 -164.234375 186.09179688 C-164.20337186 179.88729405 -163.88846104 176.0562887 -159.6875 171.375 C-153.56265764 166.55331559 -148.45883506 166.21815564 -140.875 166.3125 C-140.18212891 166.31701172 -139.48925781 166.32152344 -138.77539062 166.32617188 C-137.07938932 166.33786844 -135.38343297 166.35580076 -133.6875 166.375 C-133.82103882 165.05447632 -133.82103882 165.05447632 -133.95727539 163.70727539 C-136.32174185 136.77559747 -136.32174185 136.77559747 -130.0078125 128.53515625 C-125.01904498 123.2394874 -117.71927843 115.74152531 -110.25 115.0625 C-106.6875 115.375 -106.6875 115.375 -104.3125 116.4375 C-101.90890609 119.3033235 -101.81664413 121.69439225 -101.6875 125.375 C-102.94920822 128.73519701 -104.7619021 130.54558529 -107.5 132.8125 C-108.90763676 133.98598442 -110.30260683 135.17475925 -111.6875 136.375 C-112.58210937 137.00921875 -113.47671875 137.6434375 -114.3984375 138.296875 C-118.02720604 143.17651598 -117.470127 148.26268932 -117.5 154.1875 C-117.52513672 155.35732422 -117.55027344 156.52714844 -117.57617188 157.73242188 C-117.63495756 160.61292046 -117.66411178 163.49399656 -117.6875 166.375 C-113.7275 166.375 -109.7675 166.375 -105.6875 166.375 C-105.605 164.498125 -105.5225 162.62125 -105.4375 160.6875 C-104.15667142 144.51045964 -97.36909304 130.42602804 -86.6875 118.375 C-86.16800781 117.76140625 -85.64851562 117.1478125 -85.11328125 116.515625 C-79.61935424 110.48199232 -69.9070512 102.63954634 -61.6875 101.375 C-62.12320313 100.91351563 -62.55890625 100.45203125 -63.0078125 99.9765625 C-73.63292035 88.33953961 -78.80532107 76.42554006 -78.890625 60.6796875 C-78.89632507 59.85099152 -78.90202515 59.02229553 -78.90789795 58.16848755 C-78.9173113 56.41865296 -78.92386729 54.66880094 -78.92773438 52.91894531 C-78.937394 50.27897068 -78.96843299 47.63979085 -79 45 C-79.10392193 28.50407442 -76.69429958 13.93602497 -64.98828125 1.48046875 C-46.49249306 -15.44521857 -19.32403414 -15.96191334 0 0 Z " fill="#010101" transform="translate(287.6875,51.625)"/>
<path d="M0 0 C1.28438965 -0.01073296 1.28438965 -0.01073296 2.59472656 -0.02168274 C3.52619003 -0.02437164 4.4576535 -0.02706055 5.41734314 -0.02983093 C6.40487579 -0.03640213 7.39240845 -0.04297333 8.40986633 -0.04974365 C11.67920511 -0.06945804 14.94849792 -0.081137 18.21788025 -0.09111023 C19.89631421 -0.09722352 19.89631421 -0.09722352 21.60865593 -0.10346031 C27.53462921 -0.12431609 33.46057939 -0.13861829 39.38658142 -0.147995 C45.49052961 -0.15904039 51.59411136 -0.1934205 57.69793034 -0.23316669 C62.40532075 -0.25938784 67.1126247 -0.26769188 71.82008171 -0.27127647 C74.06900435 -0.27613051 76.31792344 -0.28771051 78.56677437 -0.30631447 C81.72558714 -0.33081574 84.88346328 -0.32972028 88.04234314 -0.32279968 C88.95963699 -0.33560974 89.87693085 -0.3484198 90.82202148 -0.36161804 C101.58692815 -0.27628737 109.84508574 3.34149018 117.52256775 10.78779602 C120.48828993 14.02702965 122.78434621 17.18835881 124.682724 21.14717102 C124.99983337 21.79814758 125.31694275 22.44912415 125.6436615 23.11982727 C128.40391119 29.89383453 128.91534035 37.97853384 127.682724 45.14717102 C125.276474 48.10029602 125.276474 48.10029602 122.682724 50.14717102 C122.022724 50.14717102 121.362724 50.14717102 120.682724 50.14717102 C120.682724 56.41717102 120.682724 62.68717102 120.682724 69.14717102 C122.332724 69.80717102 123.982724 70.46717102 125.682724 71.14717102 C128.67503606 75.63563911 128.01180012 79.92851898 127.995224 85.20967102 C128.01133728 86.20933899 128.02745056 87.20900696 128.04405212 88.2389679 C128.05174162 100.07309583 124.91625014 109.36402215 116.86631775 118.12373352 C109.22259879 125.38140606 99.95217036 128.25507184 89.55064392 128.28901672 C88.33555649 128.29605118 87.12046906 128.30308563 85.86856079 128.31033325 C84.56328934 128.31449753 83.25801788 128.3186618 81.91319275 128.32295227 C80.54944086 128.33338825 79.18569621 128.34481278 77.82196045 128.35717773 C72.04828614 128.40940093 66.27474467 128.45758402 60.50083923 128.47309875 C56.96105865 128.48323049 53.4218768 128.51268026 49.88233376 128.55441856 C47.89287635 128.57256745 45.90326485 128.57009166 43.91372681 128.56716919 C36.82068315 128.66269123 31.64107941 129.19657891 25.682724 133.14717102 C24.38105286 133.89982239 24.38105286 133.89982239 23.05308533 134.66767883 C22.2979364 135.1404425 21.54278748 135.61320618 20.76475525 136.10029602 C19.4806073 136.90032043 19.4806073 136.90032043 18.17051697 137.71650696 C17.28767029 138.2711261 16.40482361 138.82574524 15.495224 139.39717102 C13.63977431 140.55345161 11.78430558 141.70970164 9.92881775 142.86592102 C8.17994864 143.95939726 6.43123877 145.05312826 4.682724 146.14717102 C2.14352799 147.73452285 -0.39808655 149.31783862 -2.942276 150.89717102 C-3.92454163 151.51076477 -4.90680725 152.12435852 -5.9188385 152.75654602 C-10.87924798 155.63261405 -15.71684226 155.88450623 -21.317276 155.14717102 C-26.39819712 153.09263748 -30.09020572 150.25633226 -32.317276 145.14717102 C-33.18304732 142.24299667 -33.44793883 139.64114585 -33.46444702 136.61557007 C-33.47160233 135.7117157 -33.47875763 134.80786133 -33.48612976 133.87661743 C-33.48881866 132.89219162 -33.49150757 131.90776581 -33.49427795 130.89350891 C-33.50084915 129.85066742 -33.50742035 128.80782593 -33.51419067 127.73338318 C-33.53391366 124.27886378 -33.54558705 120.82438794 -33.55555725 117.36982727 C-33.55963278 116.18717222 -33.56370831 115.00451717 -33.56790733 113.78602409 C-33.58876853 107.52058462 -33.6030674 101.25516701 -33.61244202 94.98970032 C-33.62347791 88.54068881 -33.65784549 82.09202505 -33.69761372 75.64313602 C-33.72385887 70.66630445 -33.73214111 65.68955452 -33.7357235 60.71265984 C-33.74057273 58.33700156 -33.7521388 55.96134653 -33.77076149 53.5857563 C-34.00036518 22.34263858 -34.00036518 22.34263858 -23.317276 11.14717102 C-16.9032428 4.67277045 -9.29206615 0.05354688 0 0 Z " fill="#F1F4F5" transform="translate(359.31727600097656,-0.1471710205078125)"/>
<path d="M0 0 C77.22 0 154.44 0 234 0 C234 4.62 234 9.24 234 14 C231.04416962 14.00879936 231.04416962 14.00879936 228.02862549 14.01777649 C209.48744453 14.07438996 190.94638071 14.14744205 172.40532303 14.23571491 C162.87244013 14.28070345 153.33959484 14.32011102 143.80664062 14.34643555 C135.49887643 14.3693909 127.19123097 14.40276124 118.8835609 14.44870156 C114.48364794 14.4726671 110.08385281 14.491374 105.68387604 14.49761391 C101.54373257 14.50364976 97.40389073 14.52359491 93.2638588 14.55427551 C91.74330614 14.56307988 90.22271411 14.56677337 88.70213699 14.56500816 C86.62751064 14.56335998 84.55380878 14.58001381 82.47930908 14.60127258 C80.73712034 14.60818603 80.73712034 14.60818603 78.95973587 14.61523914 C75.70963299 15.03774724 74.31634866 15.71999911 72 18 C71.33740346 20.83568858 71.71832307 23.04239226 72 26 C74.6392769 28.6392769 75.83279219 28.25855563 79.51748657 28.2784729 C80.68980331 28.28963638 81.86212006 28.30079987 83.06996155 28.31230164 C84.36252365 28.31446182 85.65508575 28.31662201 86.98681641 28.31884766 C88.35655818 28.32814205 89.72629426 28.33830998 91.09602356 28.34928894 C94.82098084 28.37665832 98.54590017 28.39175877 102.27093172 28.40471697 C106.16140901 28.42031729 110.05180842 28.44711731 113.94223022 28.4727478 C121.3121972 28.51959066 128.68217874 28.55630803 136.05221879 28.58942068 C144.4415127 28.62760325 152.8307285 28.67702347 161.21995664 28.72740483 C178.47991465 28.83080655 195.73991781 28.92004005 213 29 C212.84367964 30.92785581 212.68613137 32.85561209 212.52806091 34.7833252 C212.44045722 35.85685493 212.35285353 36.93038467 212.26259518 38.03644562 C211.98915003 41.12244888 211.60124534 44.1619615 211.09765625 47.21875 C210.92943359 48.25386719 210.76121094 49.28898437 210.58789062 50.35546875 C210.41451172 51.39316406 210.24113281 52.43085938 210.0625 53.5 C209.89298828 54.53769531 209.72347656 55.57539063 209.54882812 56.64453125 C209.03798943 59.76394926 208.52013159 62.88211895 208 66 C207.81034668 67.13953125 207.62069336 68.2790625 207.42529297 69.453125 C206.95086584 72.30219578 206.47576271 75.15115199 206 78 C205.14277344 77.66226563 204.28554688 77.32453125 203.40234375 76.9765625 C199.94350915 75.62734404 196.47389142 74.30989523 193 73 C191.865625 72.566875 190.73125 72.13375 189.5625 71.6875 C175.8566192 69.04250546 162.90982976 71.77850395 151.26953125 79.39453125 C150.52058594 79.92433594 149.77164063 80.45414062 149 81 C148.30261719 81.47824219 147.60523438 81.95648438 146.88671875 82.44921875 C137.74819389 89.49386801 132.52171118 100.9615696 130 112 C129.62115877 115.59509254 129.60092464 119.14532782 129.63671875 122.7578125 C129.63622025 123.7457077 129.63572174 124.73360291 129.63520813 125.75143433 C129.63753227 127.82373076 129.6471616 129.89603092 129.66381836 131.96826172 C129.68748973 135.12363116 129.68435623 138.27815747 129.67773438 141.43359375 C129.68331001 143.45833832 129.69041916 145.48307937 129.69921875 147.5078125 C129.69785164 148.90811203 129.69785164 148.90811203 129.69645691 150.33670044 C129.84933612 164.58006823 135.01271372 177.7470944 145 188 C147.3754917 189.98818327 149.77845761 191.84432157 152.3125 193.625 C152.869375 194.07875 153.42625 194.5325 154 195 C154 195.66 154 196.32 154 197 C152.58460938 197.67482422 152.58460938 197.67482422 151.140625 198.36328125 C137.74500406 204.98043746 127.98971878 213.17817585 120 226 C119.34 226.99 118.68 227.98 118 229 C114.17239084 227.72413028 113.85390227 226.44156916 111.875 223 C104.11960797 210.47455513 93.12316083 203.1901702 80 197 C81.4339532 193.49478107 83.09045747 191.99655409 86.1875 189.875 C95.92197208 182.51555161 101.93754851 170.9582638 104 159 C104.0997273 157.4381847 104.15744391 155.87322342 104.17700195 154.30834961 C104.18983719 153.40648422 104.20267242 152.50461884 104.21589661 151.57542419 C104.22328354 150.61080765 104.23067047 149.6461911 104.23828125 148.65234375 C104.25038887 147.14082481 104.25038887 147.14082481 104.26274109 145.59877014 C104.27655228 143.4663361 104.28728765 141.33388023 104.29516602 139.20141602 C104.3066558 137.03793787 104.32705961 134.87448739 104.35668945 132.71118164 C104.58281191 116.18655655 103.64942073 103.95155542 94 90 C93.56042969 89.36320312 93.12085938 88.72640625 92.66796875 88.0703125 C85.03435022 78.17080721 72.91261367 73.44103442 61 71 C49.13971428 69.51215054 38.62379067 73.10191359 28 78 C27.32231944 73.9842586 26.64699575 69.96812785 25.97363281 65.95166016 C25.74540169 64.5921826 25.51658331 63.23280348 25.28710938 61.87353516 C20.83835321 35.51270369 20.83835321 35.51270369 21 29 C21.74161377 28.98541748 22.48322754 28.97083496 23.24731445 28.95581055 C26.60290631 28.88140543 29.95749494 28.78471994 33.3125 28.6875 C34.47974609 28.66494141 35.64699219 28.64238281 36.84960938 28.61914062 C37.96787109 28.58369141 39.08613281 28.54824219 40.23828125 28.51171875 C41.7857605 28.47244263 41.7857605 28.47244263 43.36450195 28.43237305 C46.0089979 28.19842302 46.0089979 28.19842302 47.83276367 26.68676758 C49.82023395 23.81468388 49.41975873 21.35806982 49 18 C46.23339575 15.3113614 44.22331158 14.62111393 40.41503906 14.56762695 C39.51440735 14.54783279 38.61377563 14.52803864 37.68585205 14.50764465 C36.24033966 14.49805977 36.24033966 14.49805977 34.765625 14.48828125 C33.77246277 14.47033005 32.77930054 14.45237885 31.75604248 14.43388367 C28.58740469 14.37974994 25.41891782 14.34587472 22.25 14.3125 C20.10023941 14.27932968 17.95049873 14.24484029 15.80078125 14.20898438 C10.53396299 14.12402148 5.26718973 14.05722457 0 14 C0 9.38 0 4.76 0 0 Z " fill="#FDE076" transform="translate(139,234)"/>
<path d="M0 0 C77.22 0 154.44 0 234 0 C234 4.62 234 9.24 234 14 C231.04416962 14.00879936 231.04416962 14.00879936 228.02862549 14.01777649 C209.48744453 14.07438996 190.94638071 14.14744205 172.40532303 14.23571491 C162.87244013 14.28070345 153.33959484 14.32011102 143.80664062 14.34643555 C135.49887643 14.3693909 127.19123097 14.40276124 118.8835609 14.44870156 C114.48364794 14.4726671 110.08385281 14.491374 105.68387604 14.49761391 C101.54373257 14.50364976 97.40389073 14.52359491 93.2638588 14.55427551 C91.74330614 14.56307988 90.22271411 14.56677337 88.70213699 14.56500816 C86.62751064 14.56335998 84.55380878 14.58001381 82.47930908 14.60127258 C80.73712034 14.60818603 80.73712034 14.60818603 78.95973587 14.61523914 C75.70963299 15.03774724 74.31634866 15.71999911 72 18 C71.33740346 20.83568858 71.71832307 23.04239226 72 26 C74.6392769 28.6392769 75.83279219 28.25855563 79.51748657 28.2784729 C80.68980331 28.28963638 81.86212006 28.30079987 83.06996155 28.31230164 C84.36252365 28.31446182 85.65508575 28.31662201 86.98681641 28.31884766 C88.35655818 28.32814205 89.72629426 28.33830998 91.09602356 28.34928894 C94.82098084 28.37665832 98.54590017 28.39175877 102.27093172 28.40471697 C106.16140901 28.42031729 110.05180842 28.44711731 113.94223022 28.4727478 C121.3121972 28.51959066 128.68217874 28.55630803 136.05221879 28.58942068 C144.4415127 28.62760325 152.8307285 28.67702347 161.21995664 28.72740483 C178.47991465 28.83080655 195.73991781 28.92004005 213 29 C212.85688704 30.85437862 212.71036549 32.70849429 212.5625 34.5625 C212.44068359 36.11130859 212.44068359 36.11130859 212.31640625 37.69140625 C211.986633 41.13977586 211.48989802 44.57071388 211 48 C158.2 47.67 105.4 47.34 51 47 C51.66 51.95 52.32 56.9 53 62 C53.06748892 64.66581251 53.10875299 67.33555186 53 70 C51.42412109 70.36351562 51.42412109 70.36351562 49.81640625 70.734375 C48.39832849 71.07245976 46.98036585 71.41102761 45.5625 71.75 C44.87478516 71.90726562 44.18707031 72.06453125 43.47851562 72.2265625 C38.01121599 73.54888613 33.07098638 75.57994209 28 78 C27.32231944 73.9842586 26.64699575 69.96812785 25.97363281 65.95166016 C25.74540169 64.5921826 25.51658331 63.23280348 25.28710938 61.87353516 C20.83835321 35.51270369 20.83835321 35.51270369 21 29 C21.74161377 28.98541748 22.48322754 28.97083496 23.24731445 28.95581055 C26.60290631 28.88140543 29.95749494 28.78471994 33.3125 28.6875 C34.47974609 28.66494141 35.64699219 28.64238281 36.84960938 28.61914062 C37.96787109 28.58369141 39.08613281 28.54824219 40.23828125 28.51171875 C41.7857605 28.47244263 41.7857605 28.47244263 43.36450195 28.43237305 C46.0089979 28.19842302 46.0089979 28.19842302 47.83276367 26.68676758 C49.82023395 23.81468388 49.41975873 21.35806982 49 18 C46.23339575 15.3113614 44.22331158 14.62111393 40.41503906 14.56762695 C39.51440735 14.54783279 38.61377563 14.52803864 37.68585205 14.50764465 C36.24033966 14.49805977 36.24033966 14.49805977 34.765625 14.48828125 C33.77246277 14.47033005 32.77930054 14.45237885 31.75604248 14.43388367 C28.58740469 14.37974994 25.41891782 14.34587472 22.25 14.3125 C20.10023941 14.27932968 17.95049873 14.24484029 15.80078125 14.20898438 C10.53396299 14.12402148 5.26718973 14.05722457 0 14 C0 9.38 0 4.76 0 0 Z " fill="#F8CA82" transform="translate(139,234)"/>
<path d="M0 0 C1.28438965 -0.01073296 1.28438965 -0.01073296 2.59472656 -0.02168274 C3.52619003 -0.02437164 4.4576535 -0.02706055 5.41734314 -0.02983093 C6.40487579 -0.03640213 7.39240845 -0.04297333 8.40986633 -0.04974365 C11.67920511 -0.06945804 14.94849792 -0.081137 18.21788025 -0.09111023 C19.89631421 -0.09722352 19.89631421 -0.09722352 21.60865593 -0.10346031 C27.53462921 -0.12431609 33.46057939 -0.13861829 39.38658142 -0.147995 C45.49052961 -0.15904039 51.59411136 -0.1934205 57.69793034 -0.23316669 C62.40532075 -0.25938784 67.1126247 -0.26769188 71.82008171 -0.27127647 C74.06900435 -0.27613051 76.31792344 -0.28771051 78.56677437 -0.30631447 C81.72558714 -0.33081574 84.88346328 -0.32972028 88.04234314 -0.32279968 C88.95963699 -0.33560974 89.87693085 -0.3484198 90.82202148 -0.36161804 C101.58692815 -0.27628737 109.84508574 3.34149018 117.52256775 10.78779602 C120.48828993 14.02702965 122.78434621 17.18835881 124.682724 21.14717102 C124.99983337 21.79814758 125.31694275 22.44912415 125.6436615 23.11982727 C128.40391119 29.89383453 128.91534035 37.97853384 127.682724 45.14717102 C125.3780365 48.10029602 125.3780365 48.10029602 122.682724 50.14717102 C119.21726582 50.14717102 116.87597602 49.983278 113.99913025 47.96748352 C112.10322326 45.34584359 112.30964457 43.22804182 112.245224 40.02217102 C111.77808215 32.09838757 110.25114698 26.15294762 104.245224 20.70967102 C98.63008162 16.13678245 93.30702989 15.84943669 86.3377533 15.85664368 C85.40377716 15.84992645 84.46980103 15.84320923 83.50752258 15.83628845 C80.42394165 15.8173113 77.34057843 15.81338429 74.25694275 15.81123352 C72.10848909 15.80480507 69.9600363 15.79807667 67.81158447 15.7910614 C63.30840526 15.7790891 58.80530276 15.7753805 54.30210876 15.77656555 C48.54200317 15.77676866 42.7823914 15.74947448 37.02240276 15.71502113 C32.58448036 15.69274312 28.14667659 15.68872831 23.70870399 15.689785 C21.58569958 15.68743011 19.46269185 15.6786129 17.33974266 15.66312027 C14.3647733 15.64344384 11.3908661 15.64930529 8.4158783 15.66133118 C7.54547409 15.65009216 6.67506989 15.63885315 5.77828979 15.62727356 C-0.6168778 15.6927035 -6.09200662 17.09199299 -10.84517384 21.59449196 C-14.47727543 25.7808768 -16.55775972 29.25779406 -16.5957489 34.80421448 C-16.60691238 35.73527008 -16.61807587 36.66632568 -16.62957764 37.62559509 C-16.63173782 38.63979523 -16.63389801 39.65399536 -16.63612366 40.69892883 C-16.64616928 41.7724057 -16.6562149 42.84588257 -16.66656494 43.95188904 C-16.69746441 47.50135257 -16.71445108 51.05074044 -16.7313385 54.60029602 C-16.75004468 57.06081293 -16.76961768 59.52132339 -16.7900238 61.98182678 C-16.84140896 68.45906272 -16.88100063 74.93631946 -16.91816711 81.41365051 C-16.95816668 88.02279333 -17.00927749 94.63184909 -17.0594635 101.24092102 C-17.15629842 114.20960882 -17.24105632 127.17834652 -17.317276 140.14717102 C-14.11310453 138.22969927 -10.90981731 136.31075503 -7.7066803 134.39155579 C-6.35412769 133.58218441 -6.35412769 133.58218441 -4.97425079 132.7564621 C-0.31409593 129.96329487 4.32570506 127.14805021 8.91319275 124.23701477 C9.75559509 123.70269836 10.59799744 123.16838196 11.46592712 122.61787415 C13.1152855 121.56608996 14.76094242 120.5084854 16.40342712 119.44599915 C17.23164978 118.9232843 18.05987244 118.40056946 18.91319275 117.86201477 C19.97123108 117.18320251 19.97123108 117.18320251 21.05064392 116.49067688 C29.15481327 112.354025 36.32654351 111.74058073 45.39694214 111.8281765 C47.50915234 111.84678785 49.62038572 111.84381385 51.73265076 111.83511353 C57.73097845 111.81346964 63.728917 111.82418611 69.72715759 111.86225891 C73.41425396 111.88416631 77.10038258 111.87672065 80.78744507 111.85180092 C82.18114898 111.84823354 83.57493134 111.85572802 84.96850586 111.8750515 C92.83828834 111.9821144 98.5639907 111.6372312 104.98948669 106.84402466 C109.64584259 102.17772395 111.75900107 95.84444641 111.8936615 89.36592102 C111.92202087 88.44166321 111.95038025 87.5174054 111.979599 86.56513977 C112.03167716 84.62002062 112.07595013 82.67467681 112.1124115 80.72920227 C112.143349 79.80494446 112.1742865 78.88068665 112.2061615 77.92842102 C112.22598083 77.08344055 112.24580017 76.23846008 112.26622009 75.36787415 C112.77455005 72.65757563 113.49746754 71.78976286 115.682724 70.14717102 C119.057724 69.14717102 119.057724 69.14717102 122.682724 69.14717102 C125.3780365 70.94795227 125.3780365 70.94795227 127.682724 74.14717102 C128.3774173 77.89092259 128.28930812 81.53882278 128.182724 85.33467102 C128.18530212 86.32531555 128.18788025 87.31596008 128.1905365 88.33662415 C128.03651498 100.08076478 124.85364122 109.43215142 116.86631775 118.12373352 C109.22259879 125.38140606 99.95217036 128.25507184 89.55064392 128.28901672 C88.33555649 128.29605118 87.12046906 128.30308563 85.86856079 128.31033325 C84.56328934 128.31449753 83.25801788 128.3186618 81.91319275 128.32295227 C80.54944086 128.33338825 79.18569621 128.34481278 77.82196045 128.35717773 C72.04828614 128.40940093 66.27474467 128.45758402 60.50083923 128.47309875 C56.96105865 128.48323049 53.4218768 128.51268026 49.88233376 128.55441856 C47.89287635 128.57256745 45.90326485 128.57009166 43.91372681 128.56716919 C36.82068315 128.66269123 31.64107941 129.19657891 25.682724 133.14717102 C24.38105286 133.89982239 24.38105286 133.89982239 23.05308533 134.66767883 C22.2979364 135.1404425 21.54278748 135.61320618 20.76475525 136.10029602 C19.4806073 136.90032043 19.4806073 136.90032043 18.17051697 137.71650696 C17.28767029 138.2711261 16.40482361 138.82574524 15.495224 139.39717102 C13.63977431 140.55345161 11.78430558 141.70970164 9.92881775 142.86592102 C8.17994864 143.95939726 6.43123877 145.05312826 4.682724 146.14717102 C2.14352799 147.73452285 -0.39808655 149.31783862 -2.942276 150.89717102 C-3.92454163 151.51076477 -4.90680725 152.12435852 -5.9188385 152.75654602 C-10.87924798 155.63261405 -15.71684226 155.88450623 -21.317276 155.14717102 C-26.39819712 153.09263748 -30.09020572 150.25633226 -32.317276 145.14717102 C-33.18304732 142.24299667 -33.44793883 139.64114585 -33.46444702 136.61557007 C-33.47160233 135.7117157 -33.47875763 134.80786133 -33.48612976 133.87661743 C-33.48881866 132.89219162 -33.49150757 131.90776581 -33.49427795 130.89350891 C-33.50084915 129.85066742 -33.50742035 128.80782593 -33.51419067 127.73338318 C-33.53391366 124.27886378 -33.54558705 120.82438794 -33.55555725 117.36982727 C-33.55963278 116.18717222 -33.56370831 115.00451717 -33.56790733 113.78602409 C-33.58876853 107.52058462 -33.6030674 101.25516701 -33.61244202 94.98970032 C-33.62347791 88.54068881 -33.65784549 82.09202505 -33.69761372 75.64313602 C-33.72385887 70.66630445 -33.73214111 65.68955452 -33.7357235 60.71265984 C-33.74057273 58.33700156 -33.7521388 55.96134653 -33.77076149 53.5857563 C-34.00036518 22.34263858 -34.00036518 22.34263858 -23.317276 11.14717102 C-16.9032428 4.67277045 -9.29206615 0.05354688 0 0 Z " fill="#020202" transform="translate(359.31727600097656,-0.1471710205078125)"/>
<path d="M0 0 C0.92489001 1.21354995 1.79049878 2.47260707 2.625 3.75 C6.4578337 9.07076423 10.92823577 10.97607859 17 13 C24.55721284 13.9256827 30.56399129 12.06364872 36.79296875 7.76171875 C39.64717004 5.48540513 41.97698597 3.03452104 44 0 C56.69803209 4.57586742 65.31373508 14.48852844 71.375 26.1875 C74.42946518 32.7197394 76.08802818 37.97182878 76.0390625 45.21875 C76.03342285 46.30091797 76.0277832 47.38308594 76.02197266 48.49804688 C76.01109619 49.73651367 76.01109619 49.73651367 76 51 C74.93884224 51.00879936 74.93884224 51.00879936 73.85624695 51.01777649 C67.19055068 51.07567101 60.52517582 51.14772853 53.85980511 51.23571491 C50.43300921 51.28045028 47.00633305 51.31969888 43.5793457 51.34643555 C39.6398769 51.37741047 35.70091349 51.43220098 31.76171875 51.48828125 C30.53039719 51.49467117 29.29907562 51.5010611 28.03044128 51.50764465 C26.88948502 51.52743881 25.74852875 51.54723297 24.57299805 51.56762695 C23.567061 51.57873001 22.56112396 51.58983307 21.52470398 51.60127258 C18.9850919 51.80928763 18.9850919 51.80928763 17.21418762 53.27702332 C15.68935801 55.22090517 15.68935801 55.22090517 15 59 C8.4 59 1.8 59 -5 59 C-5.66 57.35 -6.32 55.7 -7 54 C-10.28747416 51.80835056 -11.48494825 51.71320614 -15.32421875 51.5859375 C-16.35224609 51.54726563 -17.38027344 51.50859375 -18.43945312 51.46875 C-20.04723633 51.42234375 -20.04723633 51.42234375 -21.6875 51.375 C-22.77095703 51.33632813 -23.85441406 51.29765625 -24.97070312 51.2578125 C-27.64696467 51.16349491 -30.32321843 51.07789995 -33 51 C-33.43298495 35.00984802 -28.15273879 22.92006846 -17.26953125 11.296875 C-6.10714286 0 -6.10714286 0 0 0 Z " fill="#796C78" transform="translate(48,446)"/>
<path d="M0 0 C1.08782507 1.23155325 2.12406188 2.50934626 3.125 3.8125 C7.37060669 8.78057337 11.76672504 11.28577435 18.22265625 12.375 C25.59809849 12.79125071 32.35459634 10.25140737 37.9375 5.5 C39.6925687 3.372644 41.41281968 1.25546678 43 -1 C53.36891955 1.39282759 62.64840371 10.98438013 68.1875 19.75 C73.48540771 29.14174548 76.08298781 38.14519485 76 49 C75 50 75 50 73.19027615 50.12304783 C72.3947688 50.12212604 71.59926146 50.12120424 70.77964783 50.12025452 C69.86954453 50.12162918 68.95944122 50.12300385 68.02175903 50.12442017 C67.01547455 50.12082489 66.00919006 50.11722961 64.97241211 50.11352539 C63.91888046 50.11367142 62.86534882 50.11381744 61.77989197 50.1139679 C58.279022 50.11326826 54.77820448 50.10547348 51.27734375 50.09765625 C48.85738657 50.09579225 46.43742901 50.09436826 44.01747131 50.09336853 C37.63384976 50.08954192 31.25025079 50.07971041 24.86663818 50.06866455 C18.35836086 50.05845351 11.8500799 50.05387157 5.34179688 50.04882812 C-7.43881175 50.03808827 -20.21940467 50.02120112 -33 50 C-33.04253569 47.94940153 -33.07265066 45.8985434 -33.09765625 43.84765625 C-33.11578369 42.70562744 -33.13391113 41.56359863 -33.15258789 40.38696289 C-32.61486439 28.4512218 -24.82615615 15.8132345 -16.25390625 7.828125 C-4.67945482 -1.55981827 -4.67945482 -1.55981827 0 0 Z " fill="#FC75A7" transform="translate(297,447)"/>
<path d="M0 0 C1.0209375 1.5778125 1.0209375 1.5778125 2.0625 3.1875 C5.66147075 8.48389576 11.0440068 11.01466893 17 13 C23.89412358 13.86000315 30.05535203 12.6238574 36 9 C38.96246678 6.21038379 41.5296083 3.22945061 44 0 C57.61218828 5.1402669 65.93818834 15.19708094 72.58984375 27.82421875 C75.25927138 33.83597683 76.10365517 38.1702946 76.05053711 44.74487305 C76.04324081 45.916082 76.03594452 47.08729095 76.02842712 48.29399109 C76.0143557 49.6334655 76.0143557 49.6334655 76 51 C61.93582343 51.02333039 47.87164985 51.04091345 33.80745792 51.05181217 C27.27763767 51.0570417 20.74783037 51.06414061 14.21801758 51.07543945 C7.92218841 51.08626585 1.62637174 51.09227631 -4.66946602 51.09487724 C-7.07734944 51.09673194 -9.48523214 51.1003534 -11.89311028 51.10573006 C-15.25289286 51.1129372 -18.6126231 51.11399108 -21.97241211 51.11352539 C-22.97869659 51.11712067 -23.98498108 51.12071594 -25.02175903 51.12442017 C-25.93186234 51.1230455 -26.84196564 51.12167084 -27.77964783 51.12025452 C-28.57515517 51.12117631 -29.37066252 51.1220981 -30.19027615 51.12304783 C-32 51 -32 51 -33 50 C-33.35016219 34.09263216 -26.87572366 21.14933531 -16.1875 9.75 C-12.18079996 5.89227707 -5.83352467 0 0 0 Z " fill="#89C8FC" transform="translate(172,446)"/>
<path d="M0 0 C2.31707947 1.57788847 3.76114403 3.59319329 5.48828125 5.7734375 C9.30856953 9.87709881 14.46310769 11.89873543 19.953125 12.5390625 C27.35372921 12.79518541 32.70923136 10.45792628 38.78515625 6.36328125 C41.02733136 4.18705246 42.45601283 2.05600035 43.91015625 -0.69921875 C53.6173044 1.22039706 62.2235431 10.0479599 67.703125 17.85546875 C74.1832973 28.38374868 76.91015625 37.94772497 76.91015625 50.30078125 C40.94015625 50.30078125 4.97015625 50.30078125 -32.08984375 50.30078125 C-32.08984375 33.50810567 -27.54196131 21.26814582 -16.01171875 9.109375 C-14.10663403 7.37304779 -12.17311943 5.81701148 -10.08984375 4.30078125 C-9.38472656 3.77355469 -8.67960937 3.24632812 -7.953125 2.703125 C-2.73383239 -0.91468411 -2.73383239 -0.91468411 0 0 Z " fill="#DB8657" transform="translate(420.08984375,446.69921875)"/>
<path d="M0 0 C7.3749392 5.30304992 12.85620611 12.74426553 15.5234375 21.4921875 C15.98274892 24.73135605 16.04797254 27.91124804 16.0234375 31.1796875 C16.01771729 32.06237305 16.01199707 32.94505859 16.00610352 33.85449219 C15.72823904 44.06718108 12.60935322 52.37480332 5.46484375 59.8125 C-1.69929064 66.01084565 -11.83994208 70.22130498 -21.4140625 69.77734375 C-33.13108371 68.1573768 -41.90453859 62.51075835 -49.1015625 53.2421875 C-55.53506639 43.72384893 -55.69901612 32.67491757 -54.04296875 21.58984375 C-51.54261755 11.75927041 -45.46456126 4.29853008 -37.0078125 -1.1015625 C-24.89697378 -7.82980624 -11.82056054 -7.19674506 0 0 Z " fill="#AC6B6B" transform="translate(337.4765625,324.5078125)"/>
<path d="M0 0 C5.87968188 4.76266507 11.09632036 12.44521567 12.47265625 19.9609375 C13.4977297 31.47903559 13.81742539 42.36040654 6.69921875 52.09375 C0.74887001 59.08206977 -5.41044254 63.92479428 -14.3125 66.375 C-26.5808663 67.35392664 -36.502713 66.46502849 -46.23828125 58.39453125 C-53.52771899 51.29728208 -57.5930919 42.40120702 -57.93359375 32.27026367 C-57.95169487 20.59164487 -56.17344482 12.28728956 -48.41796875 3.140625 C-34.10638082 -10.50056268 -16.07172808 -10.65255195 0 0 Z " fill="#796C78" transform="translate(216.3125,326.625)"/>
<path d="M0 0 C7.82293271 6.57837523 13.76755445 14.10383182 15.75 24.3125 C16.5870297 37.09329964 15.00361076 47.2662498 6.75 57.3125 C-0.18976547 64.72077284 -6.913095 68.36953544 -17.05419922 68.88525391 C-27.55314426 69.10393935 -35.57253452 67.40814257 -43.61328125 60.19140625 C-51.56496572 51.80361477 -54.4452066 43.54150117 -54.5625 32.1875 C-54.59150391 31.27484375 -54.62050781 30.3621875 -54.65039062 29.421875 C-54.73921734 19.82858992 -51.24472596 11.50064359 -44.53515625 4.53125 C-31.25126076 -7.88458895 -15.76583919 -8.18610881 0 0 Z " fill="#AC6B6B" transform="translate(89.25,324.6875)"/>
<path d="M0 0 C7.65028723 5.47798345 12.28888272 12.36664815 15.25 21.25 C16.6725369 34.20900192 16.1582899 45.45802428 8.25 56.25 C5.51070433 59.41684454 2.706224 61.89455967 -0.75 64.25 C-1.3790625 64.70117188 -2.008125 65.15234375 -2.65625 65.6171875 C-10.15159921 69.92998764 -20.42518908 69.42228032 -28.75 68.25 C-37.69609251 65.54225221 -44.75562412 60.36766059 -49.46875 52.3125 C-54.68171897 42.27999369 -56.56925839 32.44186065 -54.06640625 21.171875 C-51.0620643 12.2461122 -45.68115465 4.48052665 -37.75 -0.75 C-24.815834 -7.00717768 -12.54394149 -7.87153376 0 0 Z " fill="#796C78" transform="translate(461.75,324.75)"/>
<path d="M0 0 C77.22 0 154.44 0 234 0 C234 4.62 234 9.24 234 14 C232.03166702 14.00142502 230.06333405 14.00285004 228.03535461 14.00431824 C209.50917142 14.02010121 190.98319888 14.06338576 172.4571352 14.13209057 C162.93209075 14.1667515 153.40719118 14.19209753 143.88208008 14.19555664 C135.58048398 14.19859501 127.27914584 14.21906818 118.97764939 14.26052457 C114.5815301 14.28186799 110.18577767 14.29444838 105.78960609 14.28615379 C101.65176616 14.27862201 97.51467006 14.29440009 93.37696648 14.32806015 C91.85844744 14.33630407 90.33985458 14.33603073 88.82134247 14.32659721 C86.74653908 14.3149839 84.67417719 14.334073 82.5995636 14.36076355 C80.85875755 14.36491162 80.85875755 14.36491162 79.0827837 14.36914349 C75.07124888 15.19005832 73.5797843 16.89824143 71 20 C70.67 20.66 70.34 21.32 70 22 C66.91738544 22.1746397 63.83604167 22.28094067 60.75 22.375 C59.87730469 22.42527344 59.00460938 22.47554688 58.10546875 22.52734375 C55.60293001 22.5846538 53.4396564 22.56970621 51 22 C48.515625 19.0390625 48.515625 19.0390625 47 16 C44.67148048 14.83574024 43.23719816 14.84542008 40.64208984 14.79467773 C39.29091568 14.7647599 39.29091568 14.7647599 37.91244507 14.73423767 C36.93844757 14.71752518 35.96445007 14.70081268 34.9609375 14.68359375 C33.96494537 14.66281265 32.96895325 14.64203156 31.94277954 14.62062073 C28.75359146 14.55510958 25.56431942 14.49623296 22.375 14.4375 C20.21613707 14.39431627 18.0572827 14.35070203 15.8984375 14.30664062 C10.5990449 14.19942658 5.29956766 14.09816352 0 14 C0 9.38 0 4.76 0 0 Z " fill="#FEE076" transform="translate(139,234)"/>
<path d="M0 0 C3.87850842 0.7481678 7.59084084 1.73710599 11.375 2.875 C28.40454799 7.69303055 44.34704516 8.66553074 62 9 C62.76925257 19.42764599 62.31583647 27.2043259 56 36 C51.55783859 40.82223939 46.46595267 44.44713077 41 48 C39.28322573 51.43354855 39.71289898 55.60723077 39.65820312 59.4140625 C39.51579909 62.77877168 39.2290622 64.69800988 37.171875 67.41015625 C34.04566331 69.69858819 31.8570689 70.06766788 28 70 C24.43993542 67.30799181 23.1292129 65.87408724 22.46875 61.40625 C22.48958333 58.80208333 22.51041667 56.19791667 22.53125 53.59375 C21.75438081 48.33845844 18.97945005 46.52582608 14.9375 43.41015625 C14.298125 42.96542969 13.65875 42.52070313 13 42.0625 C6.5546834 37.28908883 2.36841789 31.6596978 0 24 C-0.45342251 19.79412717 -0.38238865 15.661207 -0.25 11.4375 C-0.23195312 10.33341797 -0.21390625 9.22933594 -0.1953125 8.09179688 C-0.14859048 5.39360019 -0.0831014 2.69727965 0 0 Z " fill="#FDCCBD" transform="translate(225,99)"/>
<path d="M0 0 C1.37943762 0.74676322 2.73527439 1.53895237 4.0625 2.375 C4.75859375 2.7875 5.4546875 3.2 6.171875 3.625 C12.6235872 7.89380206 16.62943238 14.07579715 19.0625 21.375 C19.13187062 23.60318441 19.14707084 25.83334524 19.125 28.0625 C19.11597656 29.24199219 19.10695313 30.42148438 19.09765625 31.63671875 C19.08605469 32.54035156 19.07445312 33.44398437 19.0625 34.375 C1.09227936 39.41138418 -24.90803055 34.50744029 -41.02734375 25.68359375 C-41.97287109 25.03583984 -41.97287109 25.03583984 -42.9375 24.375 C-41.54940576 16.04643456 -37.90390251 9.42863206 -31.13671875 4.21875 C-21.83267707 -1.7949882 -10.6998117 -4.51603261 0 0 Z " fill="#786B77" transform="translate(267.9375,57.625)"/>
<path d="M0 0 C0.8145163 -0.01134979 1.62903259 -0.02269958 2.4682312 -0.03439331 C3.80315865 -0.02999741 3.80315865 -0.02999741 5.16505432 -0.0255127 C6.10516357 -0.03398224 7.04527283 -0.04245178 8.01387024 -0.05117798 C11.12763422 -0.07461489 14.240906 -0.07556854 17.35475159 -0.07434082 C19.51564737 -0.08143835 21.67654126 -0.08913674 23.83743286 -0.09741211 C28.36938209 -0.11087232 32.90115708 -0.11241874 37.43312073 -0.10656738 C43.24537273 -0.10066992 49.05678982 -0.13125817 54.86888027 -0.17168427 C59.33240272 -0.19751349 63.79572288 -0.200443 68.25930977 -0.1967926 C70.40237082 -0.19848833 72.54544077 -0.2081741 74.68842888 -0.22593689 C77.6838125 -0.24803187 80.67748986 -0.23847257 83.67286682 -0.2208252 C84.56079422 -0.23408844 85.44872162 -0.24735168 86.36355591 -0.26101685 C92.35396741 -0.17886541 92.35396741 -0.17886541 95.56167603 2.74145508 C96.98365784 5.39440918 96.98365784 5.39440918 97.04615784 8.45690918 C95.67453046 12.24905547 94.41554708 13.27786552 90.98365784 15.39440918 C87.97240381 15.97043311 85.01691613 15.94133789 81.95826721 15.9119873 C81.05848648 15.91899658 80.15870575 15.92600586 79.23165894 15.93322754 C76.26325947 15.95080429 73.29581667 15.93918582 70.32740784 15.92565918 C68.26144732 15.92835418 66.19548804 15.93223667 64.12953186 15.93725586 C59.80197561 15.94315048 55.47474986 15.93458894 51.14723206 15.91589355 C45.60199934 15.89310423 40.05754104 15.90622748 34.51233673 15.93018341 C30.24692456 15.94464223 25.98169579 15.94003496 21.71627808 15.92967224 C19.671752 15.9270052 17.62720923 15.93027391 15.58270264 15.93959045 C12.72436971 15.94975725 9.86728825 15.93425295 7.00904846 15.9119873 C6.16526138 15.92008423 5.3214743 15.92818115 4.45211792 15.93652344 C0.42761332 15.87848754 -1.55485448 15.68486522 -5.0433197 13.48925781 C-7.01634216 11.39440918 -7.01634216 11.39440918 -7.61009216 9.35925293 C-7.35534005 3.85023838 -7.35534005 3.85023838 -5.73611355 1.672966 C-3.64753055 0.12021773 -2.58282498 0.01361505 0 0 Z " fill="#070808" transform="translate(362.01634216308594,34.6055908203125)"/>
<path d="M0 0 C0.89817444 -0.00861557 1.79634888 -0.01723114 2.72174072 -0.02610779 C5.68531261 -0.04877621 8.6479395 -0.04202701 11.61157227 -0.03295898 C13.67513815 -0.03819437 15.73870164 -0.04447054 17.80226135 -0.05174255 C22.12561306 -0.06214854 26.44863567 -0.05758261 30.77197266 -0.04296875 C36.30825589 -0.02578543 41.84350086 -0.04927 47.37966824 -0.08445835 C51.64084227 -0.10643545 55.90176802 -0.10498999 60.16298103 -0.09669304 C62.20390015 -0.0958736 64.24483752 -0.10273547 66.28570366 -0.11746407 C69.14163596 -0.13491442 71.99570465 -0.12036313 74.8515625 -0.09765625 C75.6917543 -0.10934845 76.53194611 -0.12104065 77.39759827 -0.13308716 C81.51455835 -0.06659923 84.23805428 0.29479743 87.55775452 2.84632874 C89.99047852 5.53344727 89.99047852 5.53344727 90.05297852 9.15844727 C89.01806138 12.44583111 88.60341705 13.49357917 85.99047852 15.53344727 C82.89436811 15.83515318 79.99873467 15.9533363 76.90087891 15.9375 C75.50534538 15.94779488 75.50534538 15.94779488 74.08161926 15.95829773 C71.00030336 15.97662795 67.9194936 15.97271928 64.83813477 15.96704102 C62.69965956 15.97159991 60.56118582 15.9769046 58.42271423 15.98292542 C53.93783624 15.99186882 49.45313619 15.98941947 44.96826172 15.97949219 C39.21664449 15.96800258 33.4656412 15.98820796 27.71410465 16.01740932 C23.2969115 16.03574275 18.87986622 16.03548453 14.46264458 16.0297718 C12.34192481 16.02961823 10.22119524 16.03569215 8.10051155 16.04806328 C5.1364386 16.06291686 2.17350945 16.05233735 -0.79052734 16.03515625 C-1.669104 16.04482422 -2.54768066 16.05449219 -3.45288086 16.06445312 C-9.36589589 15.99256807 -9.36589589 15.99256807 -12.55055237 13.72084045 C-14.71657818 10.47337616 -14.62137649 8.34054507 -14.00952148 4.53344727 C-9.79749671 -0.13425744 -5.88522388 -0.04560143 0 0 Z " fill="#050505" transform="translate(369.009521484375,58.466552734375)"/>
<path d="M0 0 C1.11328125 1.42578125 1.11328125 1.42578125 2.3125 3.3125 C4.48057054 6.5000799 6.47721121 8.28893116 10 10 C8.73009395 12.55965437 7.43284684 15.10414175 6.125 17.64453125 C5.41650149 19.03376994 4.70817301 20.42309535 4 21.8125 C3.64421875 22.49892578 3.2884375 23.18535156 2.921875 23.89257812 C-1.61389215 32.83717865 -2.19121505 39.48579564 -3 50 C23.07 50 49.14 50 76 50 C76 50.33 76 50.66 76 51 C61.93582343 51.02333039 47.87164985 51.04091345 33.80745792 51.05181217 C27.27763767 51.0570417 20.74783037 51.06414061 14.21801758 51.07543945 C7.92218841 51.08626585 1.62637174 51.09227631 -4.66946602 51.09487724 C-7.07734944 51.09673194 -9.48523214 51.1003534 -11.89311028 51.10573006 C-15.25289286 51.1129372 -18.6126231 51.11399108 -21.97241211 51.11352539 C-22.97869659 51.11712067 -23.98498108 51.12071594 -25.02175903 51.12442017 C-25.93186234 51.1230455 -26.84196564 51.12167084 -27.77964783 51.12025452 C-28.57515517 51.12117631 -29.37066252 51.1220981 -30.19027615 51.12304783 C-32 51 -32 51 -33 50 C-33.35016219 34.09263216 -26.87572366 21.14933531 -16.1875 9.75 C-12.18079996 5.89227707 -5.83352467 0 0 0 Z " fill="#60B4F9" transform="translate(172,446)"/>
<path d="M0 0 C1.68359375 1.7421875 1.68359375 1.7421875 3.4375 3.875 C5.75795299 6.68861414 8.00589673 8.90741794 11 11 C10.38125 11.061875 9.7625 11.12375 9.125 11.1875 C8.42375 11.455625 7.7225 11.72375 7 12 C6.28499394 13.64650799 5.62555551 15.31747139 5 17 C4.20081688 18.569353 3.38792634 20.13178992 2.5625 21.6875 C-2.03449599 30.86793153 -3.12207593 38.4649112 -4 49 C22.07 49 48.14 49 75 49 C75 49.33 75 49.66 75 50 C39.36 50 3.72 50 -33 50 C-33 34.17563237 -29.26766131 21.38247656 -18.25 9.6875 C-5.78136282 -1.92712094 -5.78136282 -1.92712094 0 0 Z " fill="#F95692" transform="translate(297,447)"/>
<path d="M0 0 C2.87120939 1.95102464 4.74785882 4.62807383 6.92578125 7.30859375 C7.91578125 7.96859375 8.90578125 8.62859375 9.92578125 9.30859375 C8.40174816 13.35751748 6.49763091 17.10502645 4.48828125 20.93359375 C-0.33644719 30.40408079 -2.00467779 38.61318411 -3.07421875 49.30859375 C23.32578125 49.30859375 49.72578125 49.30859375 76.92578125 49.30859375 C76.92578125 49.63859375 76.92578125 49.96859375 76.92578125 50.30859375 C40.95578125 50.30859375 4.98578125 50.30859375 -32.07421875 50.30859375 C-32.07421875 33.51591817 -27.52633631 21.27595832 -15.99609375 9.1171875 C-14.09100903 7.38086029 -12.15749443 5.82482398 -10.07421875 4.30859375 C-9.36910156 3.78136719 -8.66398437 3.25414062 -7.9375 2.7109375 C-2.71898916 -0.90632972 -2.71898916 -0.90632972 0 0 Z " fill="#C27843" transform="translate(420.07421875,446.69140625)"/>
<path d="M0 0 C0.79921875 0.00902344 1.5984375 0.01804687 2.421875 0.02734375 C3.02515625 0.03894531 3.6284375 0.05054688 4.25 0.0625 C3.6621875 0.31 3.074375 0.5575 2.46875 0.8125 C-0.09742906 2.25823468 -1.43357715 3.75068909 -3.25 6.0625 C-3.8171875 6.76375 -4.384375 7.465 -4.96875 8.1875 C-10.09035009 16.45394226 -11.32363522 23.78870714 -11.140625 33.4140625 C-11.13496521 34.55410736 -11.12930542 35.69415222 -11.12347412 36.8687439 C-11.10125659 40.47544067 -11.05108613 44.0811084 -11 47.6875 C-10.97991617 50.14712097 -10.96166872 52.60675767 -10.9453125 55.06640625 C-10.90143985 61.06544953 -10.83467526 67.06390121 -10.75 73.0625 C-19.89326768 70.12503841 -27.35745454 64.35984477 -31.97265625 55.79296875 C-36.55219853 45.89524834 -37.64628725 34.64908369 -34.125 24.1875 C-30.56554603 15.68227841 -24.65468523 7.91901697 -16.22265625 3.83984375 C-10.7699571 1.60591855 -5.92940313 -0.0871971 0 0 Z " fill="#665C66" transform="translate(442.75,318.9375)"/>
<path d="M0 0 C0.89203125 0.00902344 1.7840625 0.01804687 2.703125 0.02734375 C3.37859375 0.03894531 4.0540625 0.05054688 4.75 0.0625 C3.698125 0.8359375 3.698125 0.8359375 2.625 1.625 C-4.46052139 7.63228987 -8.70925374 13.76767623 -10.25 23.0625 C-10.33263667 24.78008657 -10.36787873 26.50040288 -10.36352539 28.2199707 C-10.36341209 29.72096062 -10.36341209 29.72096062 -10.36329651 31.25227356 C-10.35813522 32.3201561 -10.35297394 33.38803864 -10.34765625 34.48828125 C-10.34553383 36.14237251 -10.34553383 36.14237251 -10.34336853 37.82987976 C-10.33778004 41.34494767 -10.32522959 44.85995141 -10.3125 48.375 C-10.30748352 50.76106679 -10.30292087 53.14713457 -10.29882812 55.53320312 C-10.28781437 61.3763239 -10.27108764 67.21940737 -10.25 73.0625 C-19.58953877 70.04997626 -26.12534611 64.49547476 -31.25 56.0625 C-34.28174078 49.97897532 -34.74083065 44.34951036 -34.6875 37.625 C-34.70748047 36.73490234 -34.72746094 35.84480469 -34.74804688 34.92773438 C-34.74115567 25.49367944 -31.11793672 17.11894452 -24.53515625 10.28125 C-17.55546984 3.75766191 -9.62882595 -0.12669508 0 0 Z " fill="#995C5C" transform="translate(69.25,318.9375)"/>
<path d="M0 0 C1.61648437 0.01353516 1.61648437 0.01353516 3.265625 0.02734375 C4.08546875 0.03894531 4.9053125 0.05054688 5.75 0.0625 C5.75 0.3925 5.75 0.7225 5.75 1.0625 C4.450625 1.3409375 4.450625 1.3409375 3.125 1.625 C-3.68727057 4.52652265 -6.71069855 10.35099487 -9.48828125 16.94921875 C-10.84003867 20.69947909 -11.38333472 24.02448164 -11.45532227 28.01464844 C-11.47526749 28.99536316 -11.49521271 29.97607788 -11.51576233 30.98651123 C-11.54083107 32.5632663 -11.54083107 32.5632663 -11.56640625 34.171875 C-11.58718735 35.25382141 -11.60796844 36.33576782 -11.62937927 37.45050049 C-11.69472931 40.90443613 -11.75369229 44.35844737 -11.8125 47.8125 C-11.85569904 50.15495571 -11.89931378 52.4974038 -11.94335938 54.83984375 C-12.05039583 60.5806494 -12.15218926 66.32153015 -12.25 72.0625 C-19.04355733 70.85913009 -23.67226272 67.17471412 -28.05859375 61.87890625 C-35.54435828 51.10761914 -37.05246978 39.95807346 -35.25 27.0625 C-32.97108618 18.39288855 -27.82109016 10.89770427 -20.25 6.0625 C-13.34750022 2.09590511 -7.99758614 -0.08693028 0 0 Z " fill="#665C66" transform="translate(194.25,318.9375)"/>
<path d="M0 0 C1.40234375 1.6796875 1.40234375 1.6796875 2.9375 3.875 C4.89947938 6.67496035 6.09094143 8.06062762 9 10 C7.63112292 13.61774656 5.97687198 16.92059976 4.125 20.3125 C1.6582507 25.20367691 -0.03950271 29.96432699 -1.375 35.25 C-1.54241699 35.89880127 -1.70983398 36.54760254 -1.88232422 37.21606445 C-3.18612048 42.74772533 -4.14937162 48.53706082 -1.6875 53.8125 C-0.22444433 55.70905365 1.22557947 57.3945719 3 59 C0.36 59 -2.28 59 -5 59 C-5.268125 58.21625 -5.53625 57.4325 -5.8125 56.625 C-6.84814432 53.71885077 -6.84814432 53.71885077 -10 52 C-12.51502177 51.63303819 -12.51502177 51.63303819 -15.32421875 51.5859375 C-16.35224609 51.54726563 -17.38027344 51.50859375 -18.43945312 51.46875 C-20.04723633 51.42234375 -20.04723633 51.42234375 -21.6875 51.375 C-22.77095703 51.33632813 -23.85441406 51.29765625 -24.97070312 51.2578125 C-27.64696467 51.16349491 -30.32321843 51.07789995 -33 51 C-33.43298495 35.00984802 -28.15273879 22.92006846 -17.26953125 11.296875 C-6.10714286 0 -6.10714286 0 0 0 Z " fill="#665D66" transform="translate(48,446)"/>
<path d="M0 0 C0 0.33 0 0.66 0 1 C-0.845625 1.144375 -1.69125 1.28875 -2.5625 1.4375 C-8.97682798 4.35310363 -12.62893678 10.31183035 -15.1953125 16.7421875 C-18.51599117 27.15145296 -17.41382811 38.45743704 -17.25 49.25 C-17.22990578 51.55597409 -17.21166018 53.86196506 -17.1953125 56.16796875 C-17.15154617 61.77901844 -17.08486578 67.38942926 -17 73 C-18.61167209 72.21956981 -20.22050946 71.43328375 -21.828125 70.64453125 C-22.7243457 70.20729736 -23.62056641 69.77006348 -24.54394531 69.31958008 C-27.69262053 67.62787138 -29.70706341 65.73878537 -32 63 C-32.75410156 62.12021484 -32.75410156 62.12021484 -33.5234375 61.22265625 C-41.28712539 51.66006506 -41.85352729 41.91331754 -41 30 C-39.52111852 20.10082035 -34.12195768 11.98248734 -26.125 6.0625 C-17.44802347 0.52178004 -10.22263138 -0.46702377 0 0 Z " fill="#985C5C" transform="translate(324,319)"/>
<path d="M0 0 C9.20613041 9.10230187 18.03202805 18.55512593 26.08984375 28.69140625 C27.81559607 30.77713144 29.60124839 32.63885868 31.5625 34.5 C34 37 34 37 34 40 C17.5 40 1 40 -16 40 C-16 24.8708423 -11.88389659 12.34203476 -1.2578125 1.16796875 C-0.84273437 0.78253906 -0.42765625 0.39710938 0 0 Z " fill="#786B77" transform="translate(214,179)"/>
<path d="M0 0 C6.94520763 6.72192684 11.44197534 14.05362069 15 23 C15.4125 23.94875 15.825 24.8975 16.25 25.875 C17 29 17 29 17 40 C0.5 40 -16 40 -33 40 C-32.05577329 36.22309317 -31.79366971 35.41679617 -29.3046875 32.828125 C-28.7573999 32.250625 -28.2101123 31.673125 -27.64624023 31.078125 C-27.06173096 30.47484375 -26.47722168 29.8715625 -25.875 29.25 C-24.67504059 27.98507721 -23.47581447 26.71945837 -22.27734375 25.453125 C-21.7035498 24.85048828 -21.12975586 24.24785156 -20.53857422 23.62695312 C-17.58810384 20.50700159 -14.79108145 17.26200466 -12 14 C-10.97145803 12.80199415 -9.94280066 11.60408738 -8.9140625 10.40625 C-5.93930168 6.94040789 -2.9688181 3.47093348 0 0 Z " fill="#786B77" transform="translate(297,179)"/>
<path d="M0 0 C0.99966797 0.68835938 0.99966797 0.68835938 2.01953125 1.390625 C15.67234332 10.47976982 27.71022444 12.77853629 44 11 C48.66440758 10.0609007 52.80910233 8.22791974 57 6 C57.9178125 5.52304687 58.835625 5.04609375 59.78125 4.5546875 C61.88795708 3.41680559 63.95383963 2.24250048 66 1 C63.93960554 9.92837598 58.05414575 15.56433415 50.625 20.4375 C49.58601563 21.07558594 48.54703125 21.71367187 47.4765625 22.37109375 C44.90957584 23.76291162 44.90957584 23.76291162 44 26 C43.86699884 29.29547313 43.75213441 32.5846113 43.74609375 35.8828125 C43.54664963 41.53023017 42.02067637 44.0280591 38 48 C35.09704195 49.45147903 33.22738221 49.37239025 30 49 C26.56770389 46.94696376 24.29044759 44.87134276 23 41 C23.03702589 39.15076247 23.07452273 37.30153087 23.11621094 35.45239258 C23.18005212 28.30897942 23.18005212 28.30897942 19.6640625 22.34375 C16.85051683 20.38256535 13.99507398 18.66727217 11 17 C6.45979336 13.06515425 2.87537481 8.27646099 0 3 C0 2.01 0 1.02 0 0 Z " fill="#F8C8BA" transform="translate(285,396)"/>
<path d="M0 0 C0.99966797 0.68835938 0.99966797 0.68835938 2.01953125 1.390625 C16.19818071 10.82983779 29.82303403 13.4952127 46.671875 10.3046875 C53.3677002 8.24043051 59.14705438 4.78925762 65 1 C65.66 0.67 66.32 0.34 67 0 C64.84029647 9.35871529 57.78719691 15.93913828 50 21 C49.030625 21.5775 48.06125 22.155 47.0625 22.75 C44.86104578 23.83364126 44.86104578 23.83364126 44 26 C43.86685023 29.53956477 43.75210241 33.07312735 43.74609375 36.61523438 C43.60706483 40.82634704 43.35288446 42.54958466 40.66796875 45.9765625 C37.27815251 48.54746266 35.24923405 49.07454797 31 49 C26.9773402 46.95072048 24.53748866 45.25277826 23 41 C22.78411871 37.60252399 22.68185562 34.24627927 22.69726562 30.84375 C22.58885355 27.09479048 22.38332538 25.38788878 19.703125 22.67578125 C18.81109375 22.12277344 17.9190625 21.56976563 17 21 C16.33097656 20.51917969 15.66195313 20.03835938 14.97265625 19.54296875 C14.02712891 18.87201172 14.02712891 18.87201172 13.0625 18.1875 C7.19401227 13.79167051 2.8545616 8.8192305 0 2 C0 1.34 0 0.68 0 0 Z " fill="#F7C8B9" transform="translate(409,396)"/>
<path d="M0 0 C0.495 0.99 0.495 0.99 1 2 C-3.21887196 11.30533453 -9.66873738 17.96517122 -18.3984375 23.0546875 C-19.98380945 23.90063656 -19.98380945 23.90063656 -21 25 C-21.17019112 28.27901567 -21.29698737 31.55094107 -21.34179688 34.83398438 C-21.5450844 39.95399356 -22.69455116 42.89625409 -26 47 C-28.65863745 49.10857453 -29.98701207 49.00023614 -33.4375 48.9375 C-37.81784314 47.78477812 -39.23028944 46.56506663 -42 43 C-42.63166587 40.13930669 -42.61012817 37.35785874 -42.5625 34.4375 C-42.37024286 28.70570328 -42.37024286 28.70570328 -44.75390625 23.6484375 C-46.9172561 22.06072682 -49.08297678 20.5828194 -51.375 19.1875 C-57.21859945 15.38147141 -61.99418365 10.36525816 -65 4 C-64.67 3.01 -64.34 2.02 -64 1 C-63.47792969 1.38671875 -62.95585938 1.7734375 -62.41796875 2.171875 C-49.44186217 11.3528681 -36.61631285 12.64551453 -21 11 C-13.08711542 9.10831345 -6.50187579 4.77789357 0 0 Z " fill="#F7C8B9" transform="translate(102,396)"/>
<path d="M0 0 C1 3 1 3 -0.0390625 5.0859375 C-5.15386625 12.46838824 -10.46352726 17.49293275 -17.890625 22.546875 C-19.89223262 23.83184514 -19.89223262 23.83184514 -21 25 C-21.20392201 28.3080682 -21.3462654 31.60882588 -21.4296875 34.921875 C-21.62868474 39.43247911 -22.24999352 42.39145491 -25 46 C-28.01757067 48.51464223 -29.54477949 48.99187106 -33.5 49.0625 C-37.73104291 47.77807626 -39.85752566 45.77456868 -42 42 C-42.4135099 39.11968969 -42.61291455 36.73536241 -42.5625 33.875 C-42.40543354 28.4666759 -42.40543354 28.4666759 -44.72265625 23.7109375 C-47.05592283 21.95798594 -49.41879576 20.32625568 -51.875 18.75 C-58.53122719 14.16525354 -63.00756287 8.96974852 -65 1 C-62.56275165 2.20950728 -60.14063573 3.44350981 -57.72265625 4.69140625 C-56.50267605 5.31524477 -55.28262215 5.93893916 -54.0625 6.5625 C-53.45470703 6.87896484 -52.84691406 7.19542969 -52.22070312 7.52148438 C-42.25285451 12.58605471 -27.80167391 13.02595626 -17.01171875 10.09375 C-10.59229669 7.74021336 -5.13381262 4.51341231 0 0 Z " fill="#F8C9BA" transform="translate(226,396)"/>
<path d="M0 0 C1.5627962 0.14262412 3.12522696 0.28925511 4.6875 0.4375 C5.99267578 0.55931641 5.99267578 0.55931641 7.32421875 0.68359375 C10 1 10 1 12.25390625 1.5 C15.39833197 2.07252702 18.41871466 2.21429682 21.61328125 2.31640625 C22.86044922 2.35830078 24.10761719 2.40019531 25.39257812 2.44335938 C26.68615234 2.48267578 27.97972656 2.52199219 29.3125 2.5625 C31.28186523 2.62727539 31.28186523 2.62727539 33.29101562 2.69335938 C36.52724288 2.79927227 39.76354458 2.90134885 43 3 C43.71665385 14.92803533 42.59626519 23.82858505 34.4375 33.3125 C32 35 32 35 29.7421875 34.73828125 C19.16455793 31.8904579 9.64042453 28.16530497 3.625 18.5625 C0.77352201 12.31118287 -0.28524991 6.84599774 0 0 Z " fill="#FDDDCD" transform="translate(244,105)"/>
<path d="M0 0 C-1.42937195 3.81165853 -3.1828958 7.35364647 -5.09765625 10.9375 C-7.16931119 15.67271129 -7.26496112 20.71531752 -7.5625 25.8125 C-7.60568359 26.50537109 -7.64886719 27.19824219 -7.69335938 27.91210938 C-7.79861453 29.60788686 -7.89972863 31.30392052 -8 33 C-14.82207807 31.34464282 -20.83373752 29.37399268 -27 26 C-25.61190576 17.67143456 -21.96640251 11.05363206 -15.19921875 5.84375 C-6.15817111 0 -6.15817111 0 0 0 Z " fill="#655B65" transform="translate(252,56)"/>
<path d="M0 0 C0.495 0.99 0.495 0.99 1 2 C-2.60011459 9.35887829 -7.43838559 15.16644434 -14 20 C-15.04414063 20.77730469 -15.04414063 20.77730469 -16.109375 21.5703125 C-21.14503929 25.03469808 -21.14503929 25.03469808 -24.40625 24.90234375 C-27.76054442 23.73541301 -29.71332351 21.9691449 -32.3125 19.5625 C-33.63701172 18.35787109 -33.63701172 18.35787109 -34.98828125 17.12890625 C-37 15 -37 15 -37 13 C-36.12859375 12.90203125 -35.2571875 12.8040625 -34.359375 12.703125 C-22.63363797 11.23106278 -8.78368353 8.78368353 0 0 Z " fill="#F7D8C8" transform="translate(475,396)"/>
<path d="M0 0 C0.495 0.99 0.495 0.99 1 2 C-3.61574397 12.18069336 -11.53661768 20.55383235 -21.95703125 24.796875 C-26.2426622 25.2229798 -29.80662535 21.54884032 -33 19 C-37 14.6097561 -37 14.6097561 -37 13 C-35.98421875 12.91363281 -34.9684375 12.82726562 -33.921875 12.73828125 C-20.89428511 11.47349755 -10.65180627 7.8274637 0 0 Z " fill="#F8D8C9" transform="translate(102,396)"/>
<path d="M0 0 C0.495 0.99 0.495 0.99 1 2 C-1.98689364 8.69642283 -6.09876315 13.75063067 -12 18 C-12.74894531 18.57105469 -13.49789063 19.14210938 -14.26953125 19.73046875 C-20.18948351 24.02071608 -20.18948351 24.02071608 -23.4453125 23.9375 C-26.7412792 22.72797093 -28.69202472 20.9558152 -31.25 18.5625 C-32.12140625 17.75941406 -32.9928125 16.95632813 -33.890625 16.12890625 C-36 14 -36 14 -37 12 C-35.49373047 11.87044922 -35.49373047 11.87044922 -33.95703125 11.73828125 C-21.3200012 10.50036176 -10.58462583 7.2639589 0 0 Z " fill="#F8D9C9" transform="translate(350,397)"/>
<path d="M0 0 C1 3 1 3 -0.0390625 5.0859375 C-5.79750252 13.39738049 -12.59126232 20.65880458 -21.9921875 24.8984375 C-25.07309469 25.05428105 -26.60012495 23.65028699 -29.0625 21.875 C-29.91972656 21.27429688 -30.77695313 20.67359375 -31.66015625 20.0546875 C-34.11165448 17.90195283 -35.48548076 15.8701381 -37 13 C-35.49373047 12.87044922 -35.49373047 12.87044922 -33.95703125 12.73828125 C-21.19875586 11.49005273 -9.87282183 8.67973158 0 0 Z " fill="#F9D9CA" transform="translate(226,396)"/>
<path d="M0 0 C4.75 0.875 4.75 0.875 7 2 C2.84170675 11.36160261 -5.92709688 19.72185639 -13 27 C-13.33 27 -13.66 27 -14 27 C-14.54022777 22.87826216 -14.78411748 19.09951354 -14 15 C-11.92014303 12.89398131 -9.87327852 11.75282211 -7.265625 10.37109375 C-3.73792211 8.23622528 -2.70239506 5.68852263 -1 2 C-0.67 1.34 -0.34 0.68 0 0 Z " fill="#EAEDEE" transform="translate(278,167)"/>
<path d="M0 0 C0.495 1.19625 0.99 2.3925 1.5 3.625 C4.19244593 9.07768725 8.63182715 12.31591358 14 15 C14 18.96 14 22.92 14 27 C10.02063755 23.07280147 6.17995264 19.03347071 2.375 14.9375 C1.80265625 14.32583984 1.2303125 13.71417969 0.640625 13.08398438 C-7 4.86587028 -7 4.86587028 -7 2 C-4.35261084 0.5393715 -3.10551666 0 0 0 Z " fill="#EBEEEF" transform="translate(234,167)"/>
</svg>
